<svg xmlns="http://www.w3.org/2000/svg" viewBox="0 0 1364 960"><linearGradient id="a" x1="158.18" x2="277.022" y1="115.514" y2="351.341" gradientUnits="userSpaceOnUse"><stop offset="0" stop-color="#f5cbfb"/><stop offset="1" stop-color="#84d4ff"/></linearGradient><path fill="url(#a)" d="M214.193 315.791c-1.885-3.098-.069-7.409 3.039-9.264 3.108-1.855 7.01-1.787 10.585-1.147 5.783 1.035 10.824 3.21 15.99 5.714a246.707 246.707 0 0 1-16.142-21.781c-6.997 4.193-15.265 6.246-23.411 5.785-3.088-.175-6.545-.95-8.145-3.595-1.87-3.091-.053-7.401 3.044-9.261 3.098-1.86 6.981-1.8 10.538-1.168 5.973 1.061 11.147 3.351 16.49 5.961-6-9.329-11.347-19.085-15.807-29.232-7.489 2.919-15.843 3.594-23.697 1.872-3.021-.662-6.312-1.975-7.473-4.841-1.356-3.348 1.122-7.316 4.475-8.661 3.353-1.346 7.178-.671 10.59.517 5.528 1.925 10.141 4.862 14.827 8.143-4.533-10.77-8.248-22.356-8.506-34.073-.006-.244 0-.488-.004-.732-7.903 1.893-16.373 1.385-23.984-1.472-2.896-1.086-5.965-2.856-6.705-5.858-.864-3.508 2.155-7.082 5.665-7.934 3.51-.853 7.2.361 10.407 2.024 5.651 2.93 10.06 6.889 14.607 11.21.071-13.542 2.639-27.129 2.244-40.653-8.019 2.01-16.647 1.537-24.389-1.368-2.895-1.086-5.966-2.856-6.705-5.859-.864-3.508 2.155-7.081 5.665-7.934 3.51-.853 7.2.361 10.407 2.024 5.803 3.009 10.297 7.103 14.974 11.56-.159-3.378-.514-6.751-1.158-10.118-1.305-6.818-4.057-13.291-7.825-19.189-7.339 4.205-15.997 6.075-24.416 5.243-3.077-.304-6.5-1.224-7.988-3.934-1.738-3.167.258-7.397 3.43-9.125 3.173-1.728 7.051-1.505 10.577-.725 6.469 1.432 11.924 4.287 17.676 7.438-6.277-9.392-15.132-17.245-24.801-22.572-7.074 2.976-14.99 3.94-22.567 2.701-3.052-.5-6.409-1.635-7.721-4.434-1.534-3.272.728-7.366 4.004-8.889 3.276-1.522 7.132-1.054 10.603-.05 5.536 1.601 10.239 4.229 15.015 7.196.209.003.429.052.657.171 8.331 4.349 15.729 10.397 21.865 17.501a85.015 85.015 0 0 1 3.897 4.862c-1.857-7.231-1.725-14.972.435-22.12.894-2.96 2.46-6.14 5.408-7.074 3.444-1.092 7.207 1.686 8.287 5.134 1.081 3.448.111 7.208-1.339 10.518-2.704 6.172-6.649 11.031-10.94 16.158 2.448 3.62 4.557 7.464 6.087 11.551 2.317 6.19 3.348 12.566 3.671 19.019 1.569-7.539 5.286-14.628 10.635-20.171 2.147-2.226 4.991-4.34 8.04-3.826 3.562.601 5.642 4.79 5.031 8.351-.612 3.56-3.192 6.464-5.992 8.747-5.366 4.374-11.266 6.917-17.616 9.598.224 10.658-1.269 21.489-1.935 32.016-.21 3.314-.325 6.608-.261 9.892 1.287-8.262 5.159-16.107 10.958-22.133 2.144-2.228 4.985-4.346 8.035-3.837 3.563.596 5.649 4.783 5.041 8.344-.607 3.561-3.183 6.469-5.98 8.755-5.482 4.481-11.525 7.047-18.037 9.805.106 3.5.433 6.988 1.106 10.474 1.231 6.377 3.186 12.605 5.506 18.663a163.04 163.04 0 0 0 1.932 4.802c.449-7.57 3.021-15.012 7.385-21.217 1.779-2.529 4.263-5.056 7.354-5.018 3.613.045 6.313 3.864 6.257 7.476-.056 3.612-2.158 6.879-4.574 9.565-4.463 4.964-9.677 8.323-15.299 11.808 4.358 9.913 9.66 19.433 15.532 28.53-1.487-7.773-.689-15.977 2.315-23.301 1.174-2.861 3.036-5.876 6.059-6.525 3.532-.757 7.013 2.368 7.758 5.903.747 3.535-.578 7.186-2.338 10.342-3.339 5.988-7.827 10.5-12.684 15.284.788 1.2 1.583 2.395 2.389 3.58 4.426 6.503 9.164 12.83 14.237 18.873-1.332-7.593-.497-15.562 2.43-22.696 1.174-2.861 3.035-5.876 6.059-6.525 3.532-.757 7.013 2.368 7.759 5.903.746 3.535-.579 7.186-2.339 10.341-3.247 5.824-7.581 10.251-12.283 14.89 5.865 6.819 12.172 13.253 18.964 19.131 1.415 1.225-.582 3.335-1.994 2.113-6.859-5.936-13.215-12.447-19.132-19.336-7.034 4.205-15.359 6.255-23.567 5.776-3.097-.182-6.573-.965-8.187-3.616z"/><linearGradient id="b" x1="1264.692" x2="1074.514" y1="282.479" y2="368.088" gradientUnits="userSpaceOnUse"><stop offset="0" stop-color="#f5cbfb"/><stop offset="1" stop-color="#84d4ff"/></linearGradient><path fill="url(#b)" d="M1158.031 380.588c3.18-1.98 4.74-6.011 4.325-9.729-.415-3.718-2.567-7.087-5.362-9.574-2.796-2.488-6.205-4.183-9.669-5.603-5.733-2.35-11.949-4.026-18.083-3.671a177.363 177.363 0 0 1 20.012-18.518c.649-.514 1.307-1.016 1.963-1.522l10.978 16.068c2.441 3.573 4.971 7.237 8.572 9.641 3.601 2.405 8.575 3.282 12.253.991 3.18-1.98 4.74-6.011 4.325-9.73-.414-3.718-2.566-7.086-5.362-9.574-2.796-2.488-6.205-4.183-9.669-5.603-5.913-2.424-12.342-4.134-18.663-3.633a180.955 180.955 0 0 1 25.724-15.969l11.748 15.853c2.577 3.477 5.246 7.04 8.936 9.305 3.691 2.265 8.694 2.951 12.283.52 3.102-2.101 4.506-6.189 3.948-9.888-.557-3.699-2.837-6.983-5.725-9.361-2.889-2.379-6.361-3.942-9.877-5.229-5.63-2.059-11.689-3.476-17.616-3.031a178.11 178.11 0 0 1 20.291-8.287 172.14 172.14 0 0 1 6.193-1.946l12.619 15.906c2.69 3.391 5.475 6.864 9.238 9.006 3.762 2.142 8.786 2.664 12.293.117 3.031-2.202 4.299-6.333 3.621-10.012-.678-3.679-3.065-6.886-6.03-9.168-2.966-2.282-6.487-3.731-10.044-4.901-5.082-1.672-10.488-2.816-15.793-2.59a170.738 170.738 0 0 1 21.623-4.102l18.204 7.778c3.982 1.702 8.088 3.431 12.42 3.525 4.332.094 9.002-1.836 10.874-5.741 1.619-3.376.767-7.61-1.583-10.522-2.349-2.911-5.977-4.595-9.675-5.192-3.698-.597-7.486-.196-11.174.466-6.795 1.22-13.651 3.463-18.891 7.898-.024.001-.046-.002-.07.002a172.22 172.22 0 0 0-23.004 4.411c4.583-3.163 8.3-7.63 11.379-12.325 2.053-3.132 3.906-6.459 4.804-10.092.899-3.634.769-7.629-.992-10.929-1.76-3.301-5.325-5.742-9.068-5.576-4.329.193-7.935 3.731-9.544 7.751-1.609 4.02-1.624 8.473-1.617 12.801l.034 19.775a178.05 178.05 0 0 0-26.743 10.303c3.982-4.302 6.647-9.824 8.561-15.418 1.212-3.542 2.18-7.224 2.148-10.965-.032-3.741-1.151-7.579-3.677-10.338-2.526-2.76-6.587-4.241-10.172-3.151-4.147 1.26-6.761 5.58-7.322 9.873-.561 4.293.531 8.608 1.613 12.799 1.649 6.378 3.296 12.756 4.944 19.135-.268.137-.539.268-.807.406a183.504 183.504 0 0 0-25.075 15.666c3.81-5.35 5.578-12.013 6.406-18.573.469-3.713.671-7.513-.119-11.17s-2.664-7.187-5.698-9.379c-3.034-2.192-7.312-2.819-10.603-1.028-3.806 2.072-5.491 6.831-5.17 11.147.321 4.316 2.265 8.321 4.175 12.204l9.002 18.306c-.109.083-.218.169-.327.253l-.182-.063.091.133a180.38 180.38 0 0 0-21.341 19.29c1.257-5.764.785-11.917-.373-17.756-.742-3.741-1.768-7.48-3.708-10.763-1.94-3.283-4.886-6.096-8.522-7.244-3.636-1.147-7.971-.385-10.575 2.402-3.011 3.223-3.109 8.364-1.41 12.435s4.865 7.321 7.96 10.464l13.185 13.393.322.471a171.822 171.822 0 0 0-18.852 25.461c-.579.956.803 2.043 1.39 1.074a171.513 171.513 0 0 1 18.485-25.038l10.414 15.244c2.441 3.573 4.971 7.236 8.572 9.641 3.607 2.404 8.58 3.281 12.259.99z"/><linearGradient id="c" x1="1285.421" x2="882.084" y1="25.916" y2="387.885" gradientUnits="userSpaceOnUse"><stop offset="0" stop-color="#ff66ba"/><stop offset="1" stop-color="#8a1988"/></linearGradient><path fill="url(#c)" d="M1161.067 206.459c3.155-2.105 7.006-2.497 10.495-2.29 5.954.38 11.558 2.256 17.453 2.921 5.887.605 12.565-.213 17.544-4.42 12.077-10.118 5.852-30.637 16.262-42.568-5.031 1.676-9.513 5.113-13.778 8.555-4.231 3.469-8.543 7.04-13.455 9.198-4.885 2.122-10.649 2.555-14.536-.235-3.867-2.884-4.842-9.576-1.11-13.604 4.494-4.924 11.635-3.384 17.741-4.599 8.762-1.776 16.021-9.995 19.355-18.71 3.341-8.654 3.522-17.863 3.706-26.795-10.525 9.904-24.176 16.123-37.524 17.048.8-7.116 9.115-10.851 14.987-15.349 8.857-6.737 13.728-17.891 15.075-28.507 1.036-8.258.235-16.362-.986-24.354-8.073.272-16.183 1.012-24.139 3.591-10.156 3.333-20.199 10.24-25.119 20.194-3.3 6.639-5.438 15.522-12.21 17.651-1.631-13.295 1.847-27.874 9.622-40.114-8.748 1.898-17.74 3.826-25.605 8.744-7.925 4.925-14.667 13.61-14.728 22.526-.039 6.223 2.83 12.969-1.151 18.295-3.282 4.44-10.052 4.743-13.562 1.476-3.51-3.267-4.187-9.004-3.007-14.216 1.179-5.213 3.908-10.144 6.494-14.965 2.613-4.856 5.11-9.915 5.821-15.165-9.754 12.504-31.09 10.227-38.773 24.032-3.164 5.694-2.712 12.416-.963 18.056 1.72 5.676 4.646 10.805 6.104 16.604.898 3.421 1.222 7.219-.28 10.737-1.442 3.511-5.167 6.55-8.57 6.023-4.694-.714-5.88-6.576-6.869-11.286-3.55-16.193-15.911-28.935-31.712-32.546 5.017 11.319 1.645 25.483-2.08 38.481-3.699 12.966-7.648 26.951-3.687 38.765 7.042 20.886 36.885 38.896 58.084 33.982a24.322 24.322 0 0 0 5.734-2.007 15.33 15.33 0 0 0-.37 1.591c-.263 1.176-.404 2.337-.512 3.525-1.802 21.434 19.462 46.179 41.502 49.179 12.388 1.693 25.352-4.847 37.383-10.907 12.084-6.128 25.357-12.149 37.414-9.333-6.547-14.85-21.372-24.609-37.999-24.999-4.779-.117-10.749-.124-12.328-4.578-1.163-3.293 1.088-7.549 4.277-9.627zm35.013-69.28c3.311-1.04 6.589-.004 7.33 2.353.743 2.356-1.315 5.105-4.627 6.145-3.345 1.013-6.596-.057-7.337-2.414-.708-2.33 1.349-5.078 4.634-6.084zm-95.69-5.819c2.131-.035 3.905 2.416 3.918 5.415-.013 3.034-1.707 5.461-3.871 5.469-2.13.035-3.905-2.416-3.918-5.415.013-3.034 1.706-5.461 3.871-5.469zm66.122 107.62c1.275 3.995-2.255 8.68-7.923 10.463-5.64 1.748-11.237-.067-12.512-4.062-1.249-4.028 2.281-8.714 7.923-10.463 5.667-1.782 11.263.033 12.512 4.062z"/><path fill="#B5BDFF" d="M1117.405 185.813v499.03c0 7.568-6.001 13.702-13.419 13.702h-809.32c-7.418 0-13.436-6.134-13.436-13.702v-499.03c0-7.567 6.017-13.702 13.436-13.702h809.32c7.419 0 13.419 6.135 13.419 13.702z"/><linearGradient id="d" x1="557.865" x2="876.743" y1="199.493" y2="737.276" gradientUnits="userSpaceOnUse"><stop offset="0" stop-color="#abdcff"/><stop offset="1" stop-color="#73b2ff"/></linearGradient><path fill="url(#d)" d="M1127.84 156.319H268.145c-7.068 0-12.801 5.431-12.801 12.126V703.19c0 6.694 5.734 12.125 12.801 12.125h859.695c7.067 0 12.801-5.43 12.801-12.125V168.444c.001-6.695-5.734-12.125-12.801-12.125zm-10.435 530.135c0 7.168-6.001 12.978-13.419 12.978h-809.32c-7.418 0-13.436-5.81-13.436-12.978V213.802c0-7.167 6.017-12.978 13.436-12.978h809.32c7.419 0 13.419 5.811 13.419 12.978v472.652z"/><path fill="#FFF" d="M1124.526 185.905v502.444c0 7.609-6.12 13.786-13.659 13.786H287.089c-7.538 0-13.674-6.177-13.674-13.786V185.905c0-7.61 6.136-13.801 13.674-13.801h823.777c7.54 0 13.66 6.191 13.66 13.801z"/><linearGradient id="e" x1="660.054" x2="978.932" y1="138.9" y2="676.683" gradientUnits="userSpaceOnUse"><stop offset="0" stop-color="#5d64c2"/><stop offset="1" stop-color="#251978"/></linearGradient><path fill="url(#e)" d="M1124.526 185.905v41.069H273.415v-41.069c0-7.61 6.136-13.801 13.674-13.801h823.777c7.54 0 13.66 6.191 13.66 13.801z"/><path fill="#FFF" d="M969.102 183.953H328.907c-14.048 0-25.436 6.79-25.436 15.166 0 8.376 11.388 15.166 25.436 15.166h640.196c14.047 0 25.435-6.79 25.435-15.166 0-8.376-11.388-15.166-25.436-15.166zM1064.835 214.285h-41.658c-8.468 0-15.332-6.79-15.332-15.166 0-8.376 6.865-15.166 15.332-15.166h41.658c8.468 0 15.332 6.79 15.332 15.166 0 8.377-6.864 15.166-15.332 15.166z"/><linearGradient id="f" x1="914.85" x2="1233.728" y1="-12.181" y2="525.602" gradientUnits="userSpaceOnUse"><stop offset="0" stop-color="#5d64c2"/><stop offset="1" stop-color="#251978"/></linearGradient><path fill="url(#f)" d="m1054 206.437-6.756-4.685a1.687 1.687 0 0 0-.245-.136 8.511 8.511 0 0 0 1-4.003c0-4.773-3.926-8.656-8.751-8.656s-8.751 3.883-8.751 8.656c0 4.773 3.926 8.657 8.751 8.657a8.762 8.762 0 0 0 5.744-2.142c.097.12.206.232.339.325l6.756 4.685c.377.262.825.347 1.245.274.42-.073.812-.305 1.076-.678a1.637 1.637 0 0 0-.408-2.297zm-14.753-2.641c-3.447 0-6.251-2.773-6.251-6.183 0-3.41 2.804-6.182 6.251-6.182 3.447 0 6.251 2.773 6.251 6.182 0 3.41-2.804 6.183-6.251 6.183z"/><path fill="#FFF" d="M1098.682 189.104c0-1.896 1.554-3.434 3.471-3.434s3.471 1.538 3.471 3.434c0 1.896-1.554 3.434-3.471 3.434s-3.471-1.538-3.471-3.434zM1098.682 197.688c0-1.896 1.554-3.434 3.471-3.434s3.471 1.537 3.471 3.434c0 1.897-1.554 3.434-3.471 3.434-1.917.001-3.471-1.537-3.471-3.434zM1098.682 206.274c0-1.897 1.554-3.434 3.471-3.434s3.471 1.537 3.471 3.434c0 1.896-1.554 3.434-3.471 3.434-1.917-.001-3.471-1.538-3.471-3.434z"/><linearGradient id="g" x1="895.328" x2="895.328" y1="203.647" y2="685.449" gradientUnits="userSpaceOnUse"><stop offset="0" stop-color="#abdcff"/><stop offset="1" stop-color="#73b2ff"/></linearGradient><path fill="url(#g)" d="M990.657 499.517H799.999c-13.933 0-25.228 11.295-25.228 25.228v37.994c0 13.933 11.295 25.228 25.228 25.228h190.658c13.933 0 25.228-11.295 25.228-25.228v-37.994c0-13.933-11.295-25.228-25.228-25.228z"/><path fill="#FFF" d="m820.18 566.354-14.35-37.038h5.305l9.626 26.907a85.07 85.07 0 0 1 1.946 6.063 77.318 77.318 0 0 1 1.996-6.063l10.005-26.907h5.002l-14.502 37.038h-5.028zM844.208 566.354v-37.038h26.781v4.37H849.11v11.344h20.489v4.346H849.11v12.607h22.738v4.37h-27.64zM878.694 566.354v-37.038h16.423c3.301 0 5.81.332 7.528.998 1.718.665 3.09 1.841 4.118 3.524 1.027 1.684 1.54 3.546 1.54 5.584 0 2.628-.85 4.843-2.551 6.644-1.701 1.803-4.329 2.949-7.882 3.437 1.297.624 2.281 1.238 2.956 1.844 1.431 1.314 2.788 2.956 4.068 4.926l6.442 10.081h-6.165l-4.901-7.705c-1.432-2.223-2.611-3.925-3.537-5.104-.926-1.178-1.756-2.004-2.489-2.476a7.368 7.368 0 0 0-2.237-.984c-.556-.117-1.465-.177-2.728-.177h-5.684v16.447h-4.901zm4.902-20.691h10.535c2.24 0 3.991-.233 5.255-.695 1.263-.464 2.223-1.205 2.88-2.223a6.023 6.023 0 0 0 .986-3.323c0-1.751-.636-3.192-1.907-4.321-1.273-1.127-3.282-1.692-6.027-1.692h-11.722v12.254zM916.819 566.354v-37.038h4.902v37.038h-4.902zM930.613 566.354v-37.038H955.6v4.37h-20.085v11.47h17.382v4.372h-17.382v16.826h-4.902zM972.401 566.354v-15.689l-14.275-21.349h5.963l7.302 11.166a112.346 112.346 0 0 1 3.764 6.267c1.112-1.938 2.459-4.118 4.043-6.544l7.175-10.889h5.71l-14.78 21.349v15.689h-4.902z"/><linearGradient id="h" x1="622.638" x2="1262.117" y1="443.301" y2="432.959" gradientUnits="userSpaceOnUse"><stop offset="0" stop-color="#5d64c2"/><stop offset="1" stop-color="#251978"/></linearGradient><path fill="url(#h)" d="m768.045 410.558-39.162.131c-6.109.02-11.044 4.989-11.023 11.097l.131 39.162c.02 6.108 4.988 11.044 11.097 11.023l39.162-.131c6.108-.02 11.044-4.989 11.023-11.097l-.131-39.162c-.02-6.108-4.989-11.043-11.097-11.023z"/><linearGradient id="i" x1="622.659" x2="1262.138" y1="444.598" y2="434.255" gradientUnits="userSpaceOnUse"><stop offset="0" stop-color="#5d64c2"/><stop offset="1" stop-color="#251978"/></linearGradient><path fill="url(#i)" d="m869.052 410.221-39.162.131c-6.109.02-11.044 4.989-11.023 11.097l.131 39.162c.02 6.108 4.989 11.044 11.097 11.023l39.162-.131c6.108-.02 11.044-4.989 11.023-11.097l-.131-39.162c-.021-6.108-4.989-11.043-11.097-11.023z"/><linearGradient id="j" x1="622.68" x2="1262.159" y1="445.894" y2="435.552" gradientUnits="userSpaceOnUse"><stop offset="0" stop-color="#5d64c2"/><stop offset="1" stop-color="#251978"/></linearGradient><path fill="url(#j)" d="m970.058 409.884-39.162.131c-6.109.02-11.044 4.989-11.023 11.097l.131 39.162c.02 6.108 4.988 11.044 11.097 11.023l39.162-.131c6.108-.02 11.044-4.989 11.023-11.097l-.131-39.162c-.02-6.108-4.989-11.043-11.097-11.023z"/><linearGradient id="k" x1="622.701" x2="1262.18" y1="447.19" y2="436.848" gradientUnits="userSpaceOnUse"><stop offset="0" stop-color="#5d64c2"/><stop offset="1" stop-color="#251978"/></linearGradient><path fill="url(#k)" d="m1071.065 409.547-39.162.131c-6.109.02-11.044 4.989-11.023 11.097l.131 39.162c.02 6.108 4.988 11.044 11.097 11.023l39.162-.131c6.108-.02 11.044-4.989 11.023-11.097l-.131-39.162c-.02-6.108-4.989-11.043-11.097-11.023z"/><path fill="#FFF" d="M761.658 445.508V418.78h-10.526l-22.011 26.163v9.937h22.011v8.119h10.526v-8.119h5.454v-9.372h-5.454zm-10.526 0H739.5l11.632-13.683v13.683zM836.893 419.522h28.68v9.639h-19.427l-1.038 6.525a20.817 20.817 0 0 1 3.989-1.424 16.65 16.65 0 0 1 3.9-.475c4.35 0 7.879 1.315 10.589 3.945 2.709 2.63 4.063 5.942 4.063 9.936 0 2.808-.697 5.507-2.091 8.097-1.394 2.591-3.371 4.568-5.932 5.932-2.561 1.364-5.838 2.047-9.832 2.047-2.867 0-5.324-.272-7.37-.816-2.046-.544-3.787-1.354-5.22-2.432-1.434-1.077-2.595-2.299-3.485-3.663-.89-1.364-1.631-3.065-2.224-5.101l12.22-1.335c.297 1.957.988 3.445 2.076 4.464 1.087 1.019 2.382 1.527 3.885 1.527 1.68 0 3.07-.638 4.167-1.913 1.098-1.275 1.646-3.178 1.646-5.709 0-2.59-.554-4.488-1.661-5.695-1.108-1.206-2.58-1.809-4.419-1.809-1.167 0-2.294.287-3.381.86-.811.415-1.701 1.167-2.669 2.254l-10.292-1.483 3.826-23.371zM964.478 438.151c-2.678-2.776-5.957-4.152-9.826-4.152-2.002 0-3.758.344-5.281 1.044-1.523.712-3.01 1.793-4.447 3.255.369-4.668.958-7.714 1.744-9.139 1.093-1.978 2.604-2.96 4.57-2.96 1.081 0 2.002.344 2.739 1.032.749.7 1.277 1.879 1.585 3.562l12.012-1.486c-.688-2.334-1.695-4.274-3.022-5.81-1.326-1.548-2.985-2.715-4.999-3.513-2.002-.798-4.741-1.204-8.193-1.204-5.859 0-10.44 1.83-13.732 5.478-3.304 3.648-4.962 9.396-4.962 17.245 0 5.355.786 9.654 2.358 12.909 1.572 3.255 3.673 5.626 6.301 7.112 2.628 1.474 6.129 2.223 10.477 2.223 3.611 0 6.62-.614 9.028-1.83 2.407-1.216 4.286-3.009 5.638-5.38 1.351-2.371 2.027-4.999 2.027-7.861-.001-4.249-1.34-7.761-4.017-10.525zm-9.028 16.25c-1.068 1.204-2.395 1.806-3.98 1.806-1.719 0-3.169-.663-4.36-2.002-1.179-1.327-1.781-3.169-1.781-5.527 0-2.309.577-4.09 1.707-5.343 1.143-1.241 2.543-1.867 4.226-1.867 1.646 0 3.022.651 4.127 1.928 1.105 1.29 1.658 3.157 1.658 5.613 0 2.383-.529 4.189-1.597 5.392zM1038.907 419.522h28.681v9.639h-19.427l-1.038 6.525a20.817 20.817 0 0 1 3.989-1.424 16.65 16.65 0 0 1 3.9-.475c4.35 0 7.879 1.315 10.589 3.945 2.709 2.63 4.063 5.942 4.063 9.936 0 2.808-.697 5.507-2.091 8.097-1.394 2.591-3.371 4.568-5.932 5.932-2.561 1.364-5.838 2.047-9.832 2.047-2.867 0-5.324-.272-7.37-.816-2.046-.544-3.787-1.354-5.22-2.432-1.434-1.077-2.595-2.299-3.485-3.663-.89-1.364-1.631-3.065-2.224-5.101l12.219-1.335c.297 1.957.989 3.445 2.076 4.464 1.087 1.019 2.382 1.527 3.885 1.527 1.68 0 3.07-.638 4.167-1.913s1.646-3.178 1.646-5.709c0-2.59-.554-4.488-1.661-5.695-1.107-1.206-2.58-1.809-4.419-1.809-1.167 0-2.294.287-3.381.86-.811.415-1.701 1.167-2.669 2.254l-10.292-1.483 3.826-23.371z"/><linearGradient id="l" x1="895.328" x2="895.328" y1="203.647" y2="685.449" gradientUnits="userSpaceOnUse"><stop offset="0" stop-color="#abdcff"/><stop offset="1" stop-color="#73b2ff"/></linearGradient><circle cx="895.328" cy="316.342" r="64.739" fill="url(#l)"/><circle cx="894.364" cy="298.03" r="25.132" fill="#FFF"/><path fill="#FFF" d="M917.415 323.365c-2.023-1.58-4.85-1.525-6.839.097a25.05 25.05 0 0 1-15.887 5.655 24.954 24.954 0 0 1-15.461-5.328c-2.027-1.59-4.901-1.558-6.856.119-5.07 4.347-8.158 10.617-8.158 18.767v.735a7.632 7.632 0 0 0 7.631 7.631h46.965a7.631 7.631 0 0 0 7.631-7.631v-.735c0-8.497-3.449-14.953-9.026-19.31z"/><linearGradient id="m" x1="536.373" x2="536.373" y1="678.006" y2="685.619" gradientUnits="userSpaceOnUse"><stop offset="0" stop-color="#abdcff"/><stop offset="1" stop-color="#73b2ff"/></linearGradient><path fill="url(#m)" d="M576.504 683.768h-80.263a3.024 3.024 0 1 1 0-6.049h80.263a3.025 3.025 0 1 1 0 6.049z"/><linearGradient id="n" x1="665.233" x2="665.233" y1="678.006" y2="685.619" gradientUnits="userSpaceOnUse"><stop offset="0" stop-color="#abdcff"/><stop offset="1" stop-color="#73b2ff"/></linearGradient><path fill="url(#n)" d="M705.365 683.768h-80.263a3.024 3.024 0 1 1 0-6.049h80.263a3.024 3.024 0 0 1 0 6.049z"/><linearGradient id="o" x1="794.093" x2="794.093" y1="678.006" y2="685.619" gradientUnits="userSpaceOnUse"><stop offset="0" stop-color="#abdcff"/><stop offset="1" stop-color="#73b2ff"/></linearGradient><path fill="url(#o)" d="M834.225 683.768h-80.263a3.024 3.024 0 0 1 0-6.049h80.263a3.024 3.024 0 0 1 0 6.049z"/><path fill="#E0E9FF" d="M612.185 309.406H314.819a3.945 3.945 0 0 1-3.945-3.945v-18.87a3.945 3.945 0 0 1 3.945-3.945h297.366a3.945 3.945 0 0 1 3.945 3.945v18.87a3.945 3.945 0 0 1-3.945 3.945zM384.344 448.943h-68.8a4.67 4.67 0 0 1-4.67-4.67v-85.278a4.67 4.67 0 0 1 4.67-4.67h68.8a4.67 4.67 0 0 1 4.67 4.67v85.279a4.67 4.67 0 0 1-4.67 4.669zM531.151 448.943h-68.8a4.67 4.67 0 0 1-4.67-4.67v-85.278a4.67 4.67 0 0 1 4.67-4.67h68.8a4.67 4.67 0 0 1 4.669 4.67v85.279a4.67 4.67 0 0 1-4.669 4.669zM677.958 448.943h-68.8a4.67 4.67 0 0 1-4.669-4.67v-85.278a4.67 4.67 0 0 1 4.67-4.67h68.8a4.67 4.67 0 0 1 4.67 4.67v85.279a4.672 4.672 0 0 1-4.671 4.669zM679.447 282.646h-38.868c-1.757 0-3.181 2.097-3.181 4.685v17.391c0 2.587 1.424 4.685 3.181 4.685h38.868c1.757 0 3.181-2.098 3.181-4.685V287.33c-.001-2.587-1.425-4.684-3.181-4.684zM309.897 463.762h78.139v13.528h-78.139zM457.681 463.762h78.139v13.528h-78.139zM605.465 463.762h78.139v13.528h-78.139zM384.344 604.96h-68.8a4.67 4.67 0 0 1-4.67-4.669v-85.278a4.67 4.67 0 0 1 4.67-4.67h68.8a4.67 4.67 0 0 1 4.67 4.67v85.278a4.67 4.67 0 0 1-4.67 4.669zM531.15 604.96h-68.8a4.67 4.67 0 0 1-4.67-4.669v-85.278a4.67 4.67 0 0 1 4.67-4.67h68.8a4.67 4.67 0 0 1 4.669 4.67v85.278a4.668 4.668 0 0 1-4.669 4.669zM677.958 604.96h-68.8a4.67 4.67 0 0 1-4.669-4.669v-85.278a4.67 4.67 0 0 1 4.669-4.67h68.8a4.67 4.67 0 0 1 4.67 4.67v85.278a4.67 4.67 0 0 1-4.67 4.669zM309.897 619.78h78.139v13.527h-78.139zM457.681 619.78h78.139v13.527h-78.139zM605.465 619.78h78.139v13.527h-78.139z"/><path fill="#FFC9D0" d="M1274.49 803.866c22.21-146.574-59.555-130.914-160.59-175.864-46.13-32.239-46.599-94.642-98.577-126.236-11.41-7.283-27.81-21.9-41.297-12.715-.009 0-.009.008-.009.008-6.076 6.406-1.482 13.951-.189 21.495 7.291 24.115 27.679 39.844 41.113 60.032 28.002 54.984 39.918 122.067 14.502 180.366-3.484 6.864-6.948 18.835-13.218 21.495-51.032-16.955-88.364-149.748-156.623-120.363-13.269 5.563 24.768 50.863 35.323 65.382 11.659 31.143 22.344 61.626 42.681 88.835v.009c12.707 20.555 24.48 41.821 38.032 61.534.008 0 .008 0 .008.008 15.766 23.128 35.019 44.332 59.347 58.617 13.75 7.203 22.698 19.178 29.06 33.529h218.448c-10.232-51.899-14.058-105.825-8.011-156.132z"/><path fill="#FFBFC8" d="M903.082 737.675c.017.137.043.274.068.42a159.28 159.28 0 0 0-1.192-1.338c.563.182 1.183.49 1.124.918zM1092.813 960h-28.76c-6.36-14.352-15.313-26.322-29.06-33.529-24.349-14.299-43.55-35.47-59.347-58.617 0-.008 0-.008-.008-.008-24.605-42.345-57.899-82.458-72.487-129.75.008.008.008.008.008.017 50.258 49.98 68.553 133.352 141.974 163.448 18.843 4.136 35.526 28.11 47.68 58.439zM1060.296 710.734c-11.754 25.484-10.048 52.558-42.265 61.546 39.247-55.111 30.084-159.51-12.871-214.916-15.386-16.044-30.756-35.328-33.327-57.647 13.619 41.468 58.497 53.759 65.9 98.069 4.071 25.356 34.318 87.464 22.563 112.948zM1235.523 673.591c-20.019 1.306-28.894-9.455-48.952-10.488-29.866 2.595-52.897-15.345-72.691-35.128 37.001 23.056 84.858 22.511 121.643 45.616z"/><path fill="#FFD9DE" d="M896.539 684.933c.391 5.414-17.72 11.406-17.72 11.406-53.858-64.131 7.297-50.497 17.72-11.406zM1017.971 503.78c-8.124 6.115-21.576 14.742-31.099 9.378-4.821-5.303-16.017-18.546-12.85-24.109 12.628-8.442 23.997-1.735 43.949 14.731z"/><path fill="#FFC9D0" d="M389.434 594.992c-.022 1.916.628 5.682 1.828 10.759.441 1.861.958 3.898 1.542 6.079 1.453 5.44 3.326 11.816 5.528 18.71a519.182 519.182 0 0 0 3.535 10.715c.022.055.033.11.055.165.275.793.54 1.586.815 2.39.308.859.605 1.718.903 2.577.914 2.588 1.85 5.209 2.819 7.841.077.209.165.419.231.639a956.407 956.407 0 0 0 2.445 6.475 457.153 457.153 0 0 0 5.473 13.633c.243.584.485 1.156.727 1.729a563.464 563.464 0 0 0 1.52 3.524c.286.65.573 1.299.859 1.938.452 1.024.903 2.037 1.366 3.039.165.374.341.749.518 1.123a175.005 175.005 0 0 0 1.618 3.469c.496 1.046.991 2.081 1.487 3.106a211.75 211.75 0 0 0 5.418 10.34l5.705-6.332c.87-.969 1.762-1.96 2.665-2.962l1.608-1.784 6.662-7.411.727-.804.716-.793h.011c.132-.154.286-.319.429-.484l.375-.419.154-.176 1.388-1.531v-.011l1.828-2.026 5.451-6.057.022.022c.275.286.562.573.859.881.793.804 1.63 1.685 2.489 2.621 2.258 2.434 4.714 5.297 7.015 8.501.165.209.319.43.462.65a61.463 61.463 0 0 1 2.841 4.339c.408.683.804 1.377 1.189 2.092.11.319.209.628.308.947a47.229 47.229 0 0 1 1.685 7.577c.44 3.205.583 6.508.484 9.856-.099 3.304-.441 6.674-.991 10.065a94.749 94.749 0 0 1-1.388 7.015c-1.696 7.323-4.195 14.701-7.059 21.859a244.719 244.719 0 0 1-2.797 6.707 323.624 323.624 0 0 1-4.911 10.66 560.632 560.632 0 0 1-4.933 9.911 418.698 418.698 0 0 1-2.555 4.394c-.066.11-.132.22-.187.33-.452.76-.903 1.52-1.354 2.269-.507.848-1.013 1.696-1.531 2.544a380.464 380.464 0 0 1-13.897 21.21 1.572 1.572 0 0 1-.154.22 343.874 343.874 0 0 1-5.749 7.929c-.551.738-1.101 1.476-1.663 2.213-.594.793-1.2 1.586-1.817 2.368-27.707 35.944-62.23 66.668-107.568 95.554a76.178 76.178 0 0 0-13.931 11.034c-.429.419-.837.848-1.244 1.278a54.95 54.95 0 0 0-1.134 1.222 65.345 65.345 0 0 0-3.094 3.623c-.209.253-.418.518-.617.782-.286.352-.561.716-.837 1.079l-.066.099a63.002 63.002 0 0 0-2.026 2.852 56.86 56.86 0 0 0-1.916 2.973 71.703 71.703 0 0 0-4.857 9.449c-1.09 2.643-2.269 6.222-3.458 10.065H81.849c10.33-22.443 19.393-43.642 25.075-60.039.661-15.748-.584-30.207-2.808-43.939-3.204-19.778-8.413-38.059-12.84-56.548-.022-.11-.055-.22-.077-.33-1.399-5.837-2.709-11.695-3.854-17.642a1.866 1.866 0 0 0-.066-.341c-4.141-21.562-6.035-44.148-1.432-70.325 3.315-18.93 10.032-39.732 21.738-63.376a.33.33 0 0 1 .044-.088v-.011c8.755-23.137 16.672-42.992 17.95-48.928 2.863-13.413-5.22-51.978.595-56.757 1.443-1.189 6.277-.639 12.356 2.214 9.019 4.173 16.166 10.45 21.595 18.137a59.938 59.938 0 0 1 3.37 5.297c12.554 22.069 13.204 52.958 5.088 79.024-.903 4.438-3.777 17.003-5.088 26.98-.771 5.837-1.002 10.792 0 12.73.275.54.65.848 1.134.87.341.033.749-.088 1.222-.375 21.342-21.639 44.402-47.132 66.151-70.831.44-.474.881-.958 1.31-1.421 2.885-3.161 5.759-6.277 8.59-9.35 16.056-17.179 14.294-17.025 21.782-21.892 2.312-1.509 5.517-3.502 10.418-6.64a85.711 85.711 0 0 1 9.405-5.165 97.857 97.857 0 0 1 4.933-2.158c.275-.121.562-.231.848-.341 5.01-1.993 10.208-3.645 15.505-5.088 2.213-.617 4.46-1.189 6.706-1.74a477.7 477.7 0 0 1 9.184-2.114c5.616-1.267 11.266-2.467 16.849-3.799 4.361-1.035 8.689-2.136 12.939-3.403 8.611-2.566 16.926-5.759 24.601-10.264 10.429-5.913 43.135-15.12 70.413-20.042.518-.099 1.024-.187 1.531-.286.518-.088 1.035-.176 1.542-.264 19.646-3.359 35.812-4.284 37.618.198 7.048 17.532-12.29 32.806-37.618 45.943-.507.264-1.024.529-1.542.793-.507.264-1.013.518-1.531.782-8.028 4.03-16.563 7.863-24.976 11.486-2.423 1.046-4.834 2.07-7.224 3.083-8.303 3.513-16.32 6.817-23.423 9.922a.083.083 0 0 1-.044.022c-.241.131-.373.594-.384 1.365z"/><path fill="#FFBAC3" d="M300.707 926.219c-.429.419-.837.848-1.244 1.278-.386.396-.76.804-1.134 1.222a65.345 65.345 0 0 0-2.191 2.511c-.308.364-.617.738-.903 1.112-.209.253-.418.518-.617.782-.286.352-.561.716-.837 1.079l-.066.099a73.124 73.124 0 0 0-2.026 2.852 85.28 85.28 0 0 0-1.916 2.973 74.749 74.749 0 0 0-4.141 7.819c-.242.54-.484 1.09-.716 1.63-3.304-28.709-40.294-33.411-55.876-28.841-15.572 4.57-34.535-5.991-43.245-8.644-8.711-2.654-32.993-.727-51.328 12.455-4.614 3.315-10.175 16.794-15.902 35.096H81.849c10.33-22.443 19.393-43.642 25.075-60.039 2.951-8.523 1.035-24.613-2.808-43.939-3.447-17.29-8.424-37.178-12.84-56.548-.022-.11-.055-.22-.077-.33-1.354-5.958-2.665-11.871-3.854-17.642a1.866 1.866 0 0 0-.066-.341c-4.185-20.461-6.883-39.127-5.341-51.967.606-5.033 1.982-11.299 3.909-18.357 5.033-18.457 13.743-42.276 21.738-63.376l.033-.099s0 .011.011.011c2.5 4.009 3.744 8.204 2.368 12.103-4.9 13.93-8.579 44.655-16.364 70.357-7.797 25.692 22.96 131.443 36.814 147.443 14.393 16.629 43.928 5.231 76.15 21.342 16.353 8.193 44.886 7.048 58.178 7.312 10.45.197 28.62 14.513 35.932 20.647z"/><path fill="#FFBAC3" d="M424.07 817.225c-18.445 12.04-123.213 14.218-137.576 17.498-48.908 11.17-133.871 5.695-123.001-25.28 11.476-32.703 14.217-108.45.41-122.174 9.716-9.282 53.788-56.206 77.995-82.672l139.205-37.824 10.656 6.6c-8.239 5.3-17.519 10.527-27.919 15.576l64.274 114.296 27.718-30.79s8.488 6.184 12.338 16.132c13.379 34.566 2.146 69.068-44.1 128.638z"/><path fill="#FFF" d="M429.526 340.823H180.978c-9.657 0-17.485 7.19-17.485 16.049v434.315c0 8.859 7.828 16.038 17.485 16.038h248.547c9.658 0 17.496-7.178 17.496-16.038V356.872c0-8.859-7.838-16.049-17.495-16.049z"/><linearGradient id="p" x1="160.125" x2="448.558" y1="573.683" y2="573.683" gradientUnits="userSpaceOnUse"><stop offset="0" stop-color="#5d64c2"/><stop offset="1" stop-color="#251978"/></linearGradient><path fill="url(#p)" d="M447.832 339.903c-1.993-6.629-7.841-11.552-14.911-12.114a18.627 18.627 0 0 0-1.366-.055H177.139c-1.608 0-3.16.22-4.625.65-.947.264-1.861.617-2.742 1.024a17.201 17.201 0 0 0-9.647 15.483v457.561c0 3.436 1.002 6.64 2.72 9.316a16.404 16.404 0 0 0 2.742 3.282 16.785 16.785 0 0 0 11.552 4.581h254.417c4.46 0 8.523-1.729 11.552-4.581a17.186 17.186 0 0 0 5.451-12.598V344.891c0-1.74-.254-3.414-.727-4.988zm-284.338 16.97c0-1.09.121-2.148.341-3.183.176-.793.418-1.575.716-2.335.386-.958.859-1.883 1.432-2.753a15.448 15.448 0 0 1 2.048-2.522 17.022 17.022 0 0 1 5.605-3.777 17.581 17.581 0 0 1 5.561-1.388c.066-.022.121-.022.187-.022.209-.022.419-.033.628-.044.297-.011.595-.022.892-.022h97.822c1.277 0 2.291.936 2.346 2.114.275 6.101 3.425 11.596 8.215 15.362 4.097 3.227 9.427 5.198 15.208 5.198.099 0 .198 0 .297-.011a24.426 24.426 0 0 0 6.706-.991c9.173-2.654 15.979-10.407 16.397-19.558.055-1.178 1.068-2.114 2.334-2.114h97.844c1.795 0 3.535.253 5.176.716 3.546 1.013 6.607 3.039 8.777 5.726.341.408.65.837.936 1.278.297.44.562.892.804 1.366.242.462.462.947.661 1.442.198.485.363.991.507 1.509.363 1.277.551 2.621.551 4.009v434.314c0 1.388-.187 2.731-.551 4.019a13.884 13.884 0 0 1-.507 1.498c-.198.496-.418.969-.661 1.443a16.002 16.002 0 0 1-3.381 4.383 16.58 16.58 0 0 1-2.577 1.96c-.694.441-1.42.815-2.169 1.156h-.011a17.737 17.737 0 0 1-3.657 1.178 4.766 4.766 0 0 1-.385.077 18.12 18.12 0 0 1-2.819.319c-.22.011-.44.011-.672.011H180.883c-5.099 0-9.68-2.026-12.852-5.253a15.311 15.311 0 0 1-1.729-2.059 14.92 14.92 0 0 1-1.751-3.216 14.9 14.9 0 0 1-1.057-5.517V356.873z"/><path fill="#FFF" d="M292.84 345.093c0-6.331 5.215-11.463 11.651-11.463s11.652 5.132 11.652 11.463c0 6.333-5.216 11.465-11.652 11.465-6.436 0-11.651-5.132-11.651-11.465z"/><linearGradient id="q" x1="295.042" x2="313.938" y1="345.093" y2="345.093" gradientUnits="userSpaceOnUse"><stop offset="0" stop-color="#5d64c2"/><stop offset="1" stop-color="#251978"/></linearGradient><path fill="url(#q)" d="M295.042 345.093c0-5.134 4.231-9.296 9.449-9.296 5.217 0 9.447 4.162 9.447 9.296 0 5.135-4.23 9.297-9.447 9.297-5.218 0-9.449-4.162-9.449-9.297z"/><path fill="#FFF" d="M304.491 341.009c0-1.469 1.21-2.66 2.703-2.66 1.493 0 2.703 1.191 2.703 2.66s-1.21 2.66-2.703 2.66c-1.493 0-2.703-1.191-2.703-2.66z"/><linearGradient id="r" x1="302.832" x2="302.832" y1="537.216" y2="584.355" gradientUnits="userSpaceOnUse"><stop offset="0" stop-color="#5d64c2"/><stop offset="1" stop-color="#251978"/></linearGradient><path fill="url(#r)" d="M236.941 574.366h-25.345v-11.443l25.345-30.127h12.126v30.776h6.285v10.794h-6.285v9.359h-12.126v-9.359zm0-10.794v-15.759l-13.392 15.759h13.392zm28.385-29.922h33.031v11.102h-22.374l-1.195 7.515a24.027 24.027 0 0 1 4.594-1.64 19.165 19.165 0 0 1 4.492-.547c5.009 0 9.074 1.515 12.195 4.543 3.12 3.029 4.679 6.843 4.679 11.443 0 3.234-.803 6.342-2.408 9.325-1.605 2.984-3.883 5.26-6.832 6.832-2.949 1.571-6.724 2.357-11.323 2.357-3.302 0-6.131-.313-8.488-.939-2.357-.626-4.361-1.559-6.012-2.801-1.651-1.241-2.989-2.647-4.014-4.219-1.025-1.571-1.879-3.53-2.562-5.875l14.073-1.537c.342 2.254 1.138 3.968 2.391 5.141 1.252 1.173 2.744 1.759 4.475 1.759 1.935 0 3.535-.734 4.799-2.203 1.264-1.469 1.896-3.66 1.896-6.575 0-2.983-.638-5.169-1.913-6.558-1.276-1.389-2.972-2.084-5.089-2.084-1.344 0-2.642.33-3.894.991-.934.478-1.959 1.344-3.074 2.596l-11.853-1.708 4.406-26.918zm81.296 11.272-13.834 1.708c-.364-1.935-.973-3.302-1.827-4.099-.854-.797-1.907-1.195-3.16-1.195-2.255 0-4.008 1.139-5.26 3.416-.911 1.64-1.583 5.147-2.015 10.521 1.662-1.685 3.37-2.932 5.124-3.741 1.753-.808 3.78-1.213 6.08-1.213 4.463 0 8.237 1.594 11.323 4.782 3.085 3.189 4.628 7.23 4.628 12.126 0 3.302-.78 6.319-2.34 9.052-1.56 2.733-3.723 4.799-6.49 6.2-2.767 1.4-6.234 2.101-10.401 2.101-5.01 0-9.029-.854-12.058-2.562-3.029-1.708-5.448-4.435-7.259-8.181-1.811-3.746-2.716-8.704-2.716-14.876 0-9.04 1.901-15.661 5.704-19.863 3.803-4.201 9.074-6.302 15.815-6.302 3.985 0 7.133.461 9.445 1.383 2.311.922 4.23 2.272 5.756 4.048 1.526 1.776 2.688 4.008 3.485 6.695zm-25.618 22.305c0 2.71.683 4.833 2.05 6.37 1.366 1.537 3.04 2.306 5.021 2.306 1.822 0 3.348-.694 4.577-2.084 1.23-1.389 1.845-3.461 1.845-6.217 0-2.823-.638-4.975-1.913-6.456-1.276-1.48-2.858-2.22-4.748-2.22-1.936 0-3.558.717-4.867 2.152-1.311 1.436-1.965 3.485-1.965 6.149zm37.642-33.577h33.031v11.102h-22.373l-1.195 7.515a24.027 24.027 0 0 1 4.594-1.64 19.165 19.165 0 0 1 4.492-.547c5.009 0 9.074 1.515 12.195 4.543 3.12 3.029 4.679 6.843 4.679 11.443 0 3.234-.803 6.342-2.408 9.325-1.605 2.984-3.883 5.26-6.832 6.832-2.949 1.571-6.724 2.357-11.323 2.357-3.302 0-6.131-.313-8.488-.939-2.357-.626-4.361-1.559-6.012-2.801-1.651-1.241-2.989-2.647-4.014-4.219-1.025-1.571-1.879-3.53-2.562-5.875l14.073-1.537c.342 2.254 1.138 3.968 2.391 5.141 1.252 1.173 2.744 1.759 4.475 1.759 1.935 0 3.535-.734 4.799-2.203 1.264-1.469 1.896-3.66 1.896-6.575 0-2.983-.638-5.169-1.913-6.558-1.275-1.389-2.972-2.084-5.089-2.084-1.344 0-2.642.33-3.894.991-.934.478-1.959 1.344-3.074 2.596l-11.853-1.708 4.405-26.918z"/><path fill="#C8DCFA" d="M339.207 620.366H197.749c-1.572 0-2.847-1.719-2.847-3.838 0-2.121 1.275-3.839 2.847-3.839h141.458c1.572 0 2.847 1.718 2.847 3.839-.001 2.119-1.275 3.838-2.847 3.838zM411.687 696.531h-136.75c-1.572 0-2.847-1.718-2.847-3.838 0-2.121 1.275-3.839 2.847-3.839h136.749c1.572 0 2.847 1.718 2.847 3.839 0 2.12-1.274 3.838-2.846 3.838zM412.782 620.365h-57.371c-1.572 0-2.848-1.718-2.848-3.838 0-2.119 1.276-3.838 2.848-3.838h57.371c1.572 0 2.847 1.718 2.847 3.838-.001 2.12-1.275 3.838-2.847 3.838zM220.522 656.38h-22.773c-1.572 0-2.847-1.718-2.847-3.838 0-2.119 1.275-3.838 2.847-3.838h22.773c1.573 0 2.847 1.718 2.847 3.838-.001 2.12-1.275 3.838-2.847 3.838zM251.288 696.529h-53.539c-1.572 0-2.847-1.718-2.847-3.838 0-2.119 1.275-3.838 2.847-3.838h53.539c1.572 0 2.847 1.718 2.847 3.838-.001 2.119-1.275 3.838-2.847 3.838zM412.782 656.379H385.41c-1.572 0-2.847-1.718-2.847-3.838 0-2.121 1.275-3.838 2.847-3.838h27.372c1.572 0 2.847 1.717 2.847 3.838-.001 2.119-1.275 3.838-2.847 3.838zM366.304 656.379H240.011c-1.572 0-2.847-1.718-2.847-3.838 0-2.119 1.275-3.838 2.847-3.838h126.293c1.572 0 2.847 1.718 2.847 3.838 0 2.119-1.275 3.838-2.847 3.838z"/><path fill="#FFC9D0" d="M457.499 676.698c17.756 9.588 18.812 40.253-7.472 49.071-25.837 8.707-70.921 25.727-76.308.908-3.556-14.391 9.464-27.007 20.969-34.02-41.865 4.605-37.343-30.773-6.455-46.982-41.911 9.524-51.396-26.409-14.824-45.258 19.585-9.503 78.385-27.622 81.475-27.643 15.802-.092 22.042 5.566 25.227 20.234 2.717 12.64-7.065 22.843-19.811 30.173 23.884 5.64 28.358 41.038-2.801 53.517z"/><path fill="#FFD9DE" d="M386.429 609.894c3.76 6.901 5.175 15.065 4.37 22.305-.274 2.466-1.965 4.391-4.075 4.748-7.162 1.21-23.452 2.986-25.323-5.461-2.595-11.721 12.115-20.332 19.129-23.716 2.151-1.039 4.651-.167 5.899 2.124zM395.417 652.85c6.519 6.084 8.47 15.615 4.803 25.436-.652 1.746-2.044 2.963-3.658 3.254-6.604 1.19-24.244 3.502-26.195-5.309-2.744-12.393 13.86-21.31 20.255-24.246 1.614-.741 3.439-.4 4.795.865zM407.049 699.982c5.712 6.89 7.174 15.987 4.71 24.304-.587 1.982-2.054 3.438-3.831 3.755-6.737 1.198-24.085 3.392-26.018-5.341-2.689-12.143 13.198-20.949 19.855-24.061 1.831-.856 3.912-.31 5.284 1.343z"/><path fill="#FFBAC3" d="M460.26 678.457c-13.56 5.519-51.149 14.728-71.66 18.429a80.817 80.817 0 0 1 6.088-4.229l62.811-15.959a23.051 23.051 0 0 1 2.761 1.759zM465.134 624.894c-19.828 7.068-56.073 17.534-81.933 24.042a106.325 106.325 0 0 1 5.032-3.261l72.281-22.434a26.13 26.13 0 0 1 4.62 1.653z"/><linearGradient id="s" x1="129.986" x2="253.943" y1="332.032" y2="332.032" gradientUnits="userSpaceOnUse"><stop offset=".189" stop-color="#ffbe69"/><stop offset="1" stop-color="#ff8f5c"/></linearGradient><path fill="url(#s)" d="M253.943 296.188v71.688a9.53 9.53 0 0 1-4.31 7.979 9.458 9.458 0 0 1-2.568 1.184 9.538 9.538 0 0 1-2.661.376H139.525a9.515 9.515 0 0 1-5.988-2.113 9.518 9.518 0 0 1-3.552-7.426v-71.688a9.485 9.485 0 0 1 1.94-5.764 9.515 9.515 0 0 1 7.599-3.775h104.878a9.52 9.52 0 0 1 7.599 3.775 9.477 9.477 0 0 1 1.245 2.187 9.437 9.437 0 0 1 .697 3.577z"/><path fill="#FFF" d="m208.116 340.828-4.449-3.755-2.048-1.729-9.019-7.609-.628-.529-.639.529-8.799 7.235-2.037 1.685-6.861 5.649-.044.033-7.588 6.244-.022.022-5.859 4.824-26.584 21.881a9.637 9.637 0 0 0 2.346 1.388l24.238-19.954 3.711-3.05 15.538-12.785.011-.011 3.755-3.094 2.17-1.784 6.651-5.473 6.817 5.748 2.169 1.839 3.204 2.698 42.915 36.208a9.556 9.556 0 0 0 2.566-1.178l-41.514-35.032z"/><path fill="#FFF" d="m253.943 296.188-2.859 7.733-42.951 30.566a26.786 26.786 0 0 1-15.614 4.988 26.786 26.786 0 0 1-15.614-4.988l-42.951-30.566-3.967-7.733c0-2.167.721-4.163 1.94-5.764a9.515 9.515 0 0 1 7.599-3.775h104.878a9.52 9.52 0 0 1 7.599 3.775 9.477 9.477 0 0 1 1.94 5.764z"/><linearGradient id="t" x1="131.221" x2="253.248" y1="311.882" y2="311.882" gradientUnits="userSpaceOnUse"><stop offset=".189" stop-color="#ffbe69"/><stop offset="1" stop-color="#ff8f5c"/></linearGradient><path fill="url(#t)" d="m253.248 292.61-5.17 10.177-41.303 29.724a24.367 24.367 0 0 1-28.513 0l-41.303-29.724-5.738-11.295c.212-.372.447-.73.705-1.069a9.515 9.515 0 0 1 7.599-3.775h104.878a9.52 9.52 0 0 1 7.599 3.775c.508.667.929 1.4 1.246 2.187z"/><linearGradient id="u" x1="118.025" x2="149.051" y1="291.25" y2="291.25" gradientUnits="userSpaceOnUse"><stop offset="0" stop-color="#ff66ba"/><stop offset="1" stop-color="#8a1988"/></linearGradient><circle cx="133.538" cy="291.25" r="15.513" fill="url(#u)"/><path fill="#B4D0FA" d="m255.426 440.404 48.35-36.998c1.97-1.508 4.869-1.509 6.84-.003l48.444 37.001c1.177.899 1.855 2.216 1.855 3.603v48.162c0 2.613-2.361 4.732-5.274 4.732h-96.794c-2.912 0-5.273-2.118-5.273-4.732v-48.165c0-1.386.677-2.701 1.852-3.6z"/><path fill="#FFF" d="M277.092 481.159h60.204a1.06 1.06 0 0 0 1.06-1.06v-74.907a1.06 1.06 0 0 0-1.06-1.06H289.27a1.06 1.06 0 0 0-.749.31l-12.178 12.174a1.059 1.059 0 0 0-.311.749V480.1a1.06 1.06 0 0 0 1.06 1.059z"/><path fill="#C8DCFA" d="m276.032 416.928 12.799-12.795v12.795zM283.948 474.18h47.821a.56.56 0 1 1 0 1.122h-47.821a.561.561 0 0 1 0-1.122zM317.456 463.212h14.313a.56.56 0 1 1 0 1.122h-14.313a.56.56 0 1 1 0-1.122zM292.175 463.212h22.176a.56.56 0 1 1 0 1.122h-22.176a.56.56 0 1 1 0-1.122zM307.973 469.007h23.796a.56.56 0 1 1 0 1.122h-23.796a.561.561 0 0 1 0-1.122zM283.948 469.007h18.322a.56.56 0 1 1 0 1.122h-18.322a.562.562 0 0 1 0-1.122zM283.876 463.212h4.653a.488.488 0 0 1 0 .976h-4.653a.488.488 0 0 1-.488-.488.487.487 0 0 1 .488-.488zM283.948 457.416h47.821a.56.56 0 1 1 0 1.122h-47.821a.561.561 0 0 1 0-1.122zM317.456 446.447h14.313a.56.56 0 1 1 0 1.122h-14.313a.56.56 0 1 1 0-1.122zM292.175 446.447h22.176a.56.56 0 1 1 0 1.122h-22.176a.56.56 0 1 1 0-1.122zM307.973 452.243h23.796a.56.56 0 1 1 0 1.122h-23.796a.56.56 0 1 1 0-1.122zM283.948 452.243h18.322a.56.56 0 1 1 0 1.122h-18.322a.561.561 0 0 1 0-1.122zM283.876 446.447h4.653a.488.488 0 0 1 0 .976h-4.653a.487.487 0 1 1 0-.976zM283.948 440.651h47.821a.56.56 0 1 1 0 1.122h-47.821a.562.562 0 0 1 0-1.122zM317.456 429.683h14.313a.56.56 0 1 1 0 1.122h-14.313a.56.56 0 1 1 0-1.122zM292.175 429.683h22.176a.56.56 0 1 1 0 1.122h-22.176a.56.56 0 1 1 0-1.122zM307.973 435.479h23.796a.56.56 0 1 1 0 1.122h-23.796a.56.56 0 1 1 0-1.122zM283.948 435.479h18.322a.56.56 0 1 1 0 1.122h-18.322a.561.561 0 0 1 0-1.122zM283.876 429.683h4.653a.488.488 0 0 1 0 .976h-4.653a.487.487 0 1 1 0-.976zM283.948 423.887h47.821a.56.56 0 1 1 0 1.122h-47.821a.561.561 0 0 1 0-1.122zM317.456 412.919h14.313a.56.56 0 1 1 0 1.122h-14.313a.56.56 0 1 1 0-1.122zM292.175 412.919h22.176a.56.56 0 1 1 0 1.122h-22.176a.56.56 0 1 1 0-1.122zM307.973 418.715h23.796a.56.56 0 1 1 0 1.122h-23.796a.56.56 0 1 1 0-1.122zM283.948 418.715h18.322a.56.56 0 1 1 0 1.122h-18.322a.561.561 0 0 1 0-1.122z"/><path fill="#C8DCFA" d="M283.876 412.919h4.653a.488.488 0 0 1 0 .976h-4.653a.488.488 0 0 1-.488-.488.487.487 0 0 1 .488-.488zM360.915 440.94v53.688c0 .988-.462 1.879-1.202 2.509a3.644 3.644 0 0 1-.258.202 4.117 4.117 0 0 1-2.394.748h-99.733c-.904 0-1.737-.28-2.394-.748a2.974 2.974 0 0 1-.209-.161c-.769-.632-1.252-1.54-1.252-2.55v-54.279c0-2.8 3.514-4.44 6.068-2.832l38.639 24.313 2.359 1.485.023.015 1.437.904 3.003 1.89a4.222 4.222 0 0 0 4.397.018l3.038-1.874 1.503-.928.734-.452 1.669-1.029 38.532-23.768c2.559-1.579 6.04.064 6.04 2.849z"/><path fill="#FFF" d="m316.344 461.858-1.669 1.029-.734.452 42.715 34.747h.404c.904 0 1.737-.28 2.394-.748.089-.064.176-.131.258-.202l-43.368-35.278zm-18.164-.029-43.455 35.348c.067.056.137.11.209.161.657.469 1.49.748 2.394.748h.506l42.729-34.757-.023-.015-2.36-1.485z"/><path fill="#3C3299" d="M317.44 157.947a.636.636 0 0 1-.545-.628c0-.921.081-1.957.24-3.079.304-2.144.873-4.518 1.693-7.056a.634.634 0 0 1 1.207.39c-.797 2.469-1.35 4.772-1.644 6.844a21.071 21.071 0 0 0-.228 2.901.634.634 0 0 1-.723.628zm5.792-19.313a.635.635 0 0 1-.478-.914 77.96 77.96 0 0 1 5.206-8.807.634.634 0 0 1 1.047.715 76.956 76.956 0 0 0-5.12 8.663.634.634 0 0 1-.655.343zm110.695 3.721-.037-.007a24.491 24.491 0 0 1-4.016-1.176 13.216 13.216 0 0 1-5.163-3.617.633.633 0 1 1 .95-.84 11.965 11.965 0 0 0 4.672 3.275c1.25.483 2.53.859 3.807 1.116a.635.635 0 0 1-.213 1.249zm10.047-.318a.634.634 0 0 1-.078-1.24 21.536 21.536 0 0 0 8.592-4.648.635.635 0 0 1 .842.95 22.807 22.807 0 0 1-9.102 4.922.646.646 0 0 1-.254.016zM334.633 121.9a.634.634 0 0 1-.385-1.049 80.557 80.557 0 0 1 7.258-7.198.635.635 0 0 1 .834.956 78.668 78.668 0 0 0-7.143 7.084.632.632 0 0 1-.564.207zm86.509 6.675a.636.636 0 0 1-.539-.539c-.342-2.415-.325-4.985.05-7.637.125-.881.291-1.779.495-2.67a.633.633 0 1 1 1.236.282 31.492 31.492 0 0 0-.475 2.566c-.358 2.535-.375 4.984-.049 7.281a.635.635 0 0 1-.718.717zm37.419.43a.635.635 0 0 1-.506-.851c.465-1.239.793-2.516.975-3.797.276-1.949.216-3.91-.179-5.826a.634.634 0 1 1 1.242-.256 18.22 18.22 0 0 1 .192 6.259 19.249 19.249 0 0 1-1.043 4.065.63.63 0 0 1-.681.406zm-108.677-20.406a.635.635 0 0 1-.263-1.155 80.976 80.976 0 0 1 8.837-5.127.633.633 0 1 1 .566 1.135 79.849 79.849 0 0 0-8.698 5.046.631.631 0 0 1-.442.101zm75.424.46a.633.633 0 0 1-.468-.932c1.6-2.93 3.602-5.746 5.946-8.37a.634.634 0 1 1 .947.845c-2.281 2.552-4.225 5.289-5.779 8.133a.635.635 0 0 1-.646.324zm-57.326-9.503a.635.635 0 0 1-.124-1.226 90.082 90.082 0 0 1 9.8-2.85.635.635 0 0 1 .285 1.237 88.352 88.352 0 0 0-9.662 2.81.638.638 0 0 1-.299.029zm86.868 10.529a.63.63 0 0 1-.393-.216c-1.976-2.309-4.551-4.417-7.651-6.263a.635.635 0 0 1 .649-1.091c3.22 1.918 5.9 4.114 7.966 6.53a.634.634 0 0 1-.571 1.04zm-67.156-15.109a.635.635 0 0 1 .012-1.258 109.09 109.09 0 0 1 10.166-.759.634.634 0 0 1 .035 1.267c-3.41.097-6.79.35-10.047.75a.543.543 0 0 1-.166 0zm50.145 4.492a.588.588 0 0 1-.122-.03c-2.949-1.038-6.21-1.936-9.691-2.671a.635.635 0 0 1-.49-.752c.073-.343.398-.548.752-.49 3.535.747 6.849 1.66 9.85 2.716a.635.635 0 0 1-.299 1.227zm-29.897-5.119a.633.633 0 0 1 .119-1.261c3.526.167 6.943.442 10.157.816.37.085.597.357.556.704a.635.635 0 0 1-.704.557 147.698 147.698 0 0 0-10.069-.809 1.185 1.185 0 0 1-.059-.007zm30.702-.376a.634.634 0 0 1-.292-1.134 61.812 61.812 0 0 1 8.673-5.436.636.636 0 0 1 .585 1.127 60.437 60.437 0 0 0-8.494 5.323.64.64 0 0 1-.472.12zm296.041 37.785-.662-.094a.634.634 0 1 1 .178-1.256l.662.094a467.6 467.6 0 0 0 9.387 1.235.635.635 0 0 1-.152 1.26 469.293 469.293 0 0 1-9.413-1.239zm-10.694-1.631-.013-.002a569.787 569.787 0 0 1-10.018-1.727.633.633 0 1 1 .227-1.247c3.358.609 6.721 1.189 9.995 1.723a.634.634 0 0 1-.191 1.253zm30.183 3.972a.635.635 0 0 1 .151-1.259c3.395.331 6.793.618 10.099.854a.64.64 0 0 1 .588.678.636.636 0 0 1-.678.588 399.51 399.51 0 0 1-10.16-.861zm-50.163-7.591-.035-.006a712.96 712.96 0 0 1-9.951-2.045.634.634 0 0 1-.488-.753.647.647 0 0 1 .753-.488c3.305.704 6.616 1.386 9.933 2.042a.634.634 0 0 1-.212 1.25zm70.411 9.031a.634.634 0 0 1 .117-1.261c3.405.147 6.812.244 10.128.287.356.013.63.293.626.643a.636.636 0 0 1-.643.626 339.85 339.85 0 0 1-10.165-.289.67.67 0 0 1-.063-.006zm-90.263-13.252a.516.516 0 0 1-.052-.009 929.257 929.257 0 0 1-9.888-2.297.634.634 0 0 1 .294-1.234c3.282.782 6.574 1.548 9.874 2.294a.634.634 0 0 1-.228 1.246zm-19.735-4.694a.816.816 0 0 1-.065-.012c-3.289-.818-6.568-1.647-9.833-2.487a.635.635 0 0 1-.457-.772.648.648 0 0 1 .772-.457c3.263.839 6.538 1.668 9.824 2.484a.635.635 0 0 1-.241 1.244zm130.296 18.2a.635.635 0 0 1 .077-1.262c3.39-.068 6.795-.196 10.12-.38a.627.627 0 0 1 .669.598.633.633 0 0 1-.598.668c-3.34.186-6.76.314-10.165.383a.847.847 0 0 1-.103-.007zM644.788 112.55a.485.485 0 0 1-.074-.015c-3.285-.868-6.556-1.743-9.809-2.621-.339-.091-.539-.439-.447-.777s.445-.538.777-.447c3.252.877 6.521 1.751 9.803 2.619a.635.635 0 0 1-.25 1.241zM456.535 84.587a.634.634 0 0 1-.122-1.227 87.347 87.347 0 0 1 9.819-2.801.634.634 0 1 1 .278 1.238 86.02 86.02 0 0 0-9.675 2.76.635.635 0 0 1-.3.03zm358.449 50.067a.635.635 0 0 1 .03-1.26 249.41 249.41 0 0 0 10.056-1.155.634.634 0 0 1 .171 1.257c-3.315.45-6.715.841-10.108 1.161a.671.671 0 0 1-.149-.003zm-189.797-27.386a.79.79 0 0 1-.079-.016 5092.83 5092.83 0 0 1-9.789-2.691.634.634 0 0 1 .337-1.223c3.241.894 6.505 1.792 9.786 2.69a.634.634 0 0 1-.255 1.24zm-19.572-5.39a.755.755 0 0 1-.08-.016c-3.288-.907-6.55-1.806-9.786-2.693a.634.634 0 0 1-.444-.779.644.644 0 0 1 .779-.444c3.237.887 6.501 1.786 9.789 2.693a.635.635 0 0 1-.258 1.239zm229.474 30.031a.633.633 0 0 1-.024-1.252 218.453 218.453 0 0 0 9.911-2.033.634.634 0 0 1 .284 1.236 219.359 219.359 0 0 1-9.969 2.044.624.624 0 0 1-.202.005zM586.033 96.52a.527.527 0 0 1-.077-.016c-3.299-.89-6.568-1.763-9.804-2.614a.634.634 0 1 1 .323-1.227c3.239.852 6.51 1.725 9.811 2.616a.634.634 0 0 1-.253 1.241zm-109.76-16.426a.635.635 0 0 1 .012-1.258c3.266-.4 6.684-.671 10.16-.806a.634.634 0 1 1 .05 1.268 121.68 121.68 0 0 0-10.055.797.666.666 0 0 1-.167-.001zm90.125 11.27c-.022-.003-.045-.008-.068-.013a851.918 851.918 0 0 0-9.846-2.435.632.632 0 0 1-.468-.764.63.63 0 0 1 .764-.469 815.16 815.16 0 0 1 9.862 2.438.635.635 0 0 1-.244 1.243zm-19.742-4.732a.634.634 0 0 1-10.461-2.867.646.646 0 0 1 .747-.497c3.186.642 6.531 1.354 9.941 2.116a.635.635 0 0 1-.227 1.248zm-50.134-7.364a.634.634 0 0 1 .111-1.261l.523.018c3.072.11 6.314.32 9.638.626.345.019.605.34.574.69a.634.634 0 0 1-.69.573c-3.3-.303-6.519-.513-9.568-.622l-.52-.018a.747.747 0 0 1-.068-.006zm30.232 3.375-.02-.003a299.753 299.753 0 0 0-8.999-1.423l-1.007-.141h-.002a.634.634 0 0 1 .176-1.256l1.011.141c2.886.409 5.927.89 9.038 1.429a.634.634 0 0 1-.197 1.253zm328.105 44.714a.635.635 0 0 1-.084-1.239 197.42 197.42 0 0 0 3.763-1.102.633.633 0 1 1 .369 1.213c-1.259.383-2.521.752-3.787 1.11a.628.628 0 0 1-.261.018z"/><linearGradient id="v" x1="-332.103" x2="-301.007" y1="1366.976" y2="1366.976" gradientTransform="scale(-1 1) rotate(20.292 2908.914 -845.014)" gradientUnits="userSpaceOnUse"><stop offset="0" stop-color="#abdcff"/><stop offset="1" stop-color="#73b2ff"/></linearGradient><path fill="url(#v)" d="m870.967 122.25 29.88-8.851-14.415-12.17z"/><linearGradient id="w" x1="-370.211" x2="-319.995" y1="1372.954" y2="1372.954" gradientTransform="scale(-1 1) rotate(20.292 2908.914 -845.014)" gradientUnits="userSpaceOnUse"><stop offset="0" stop-color="#abdcff"/><stop offset="1" stop-color="#73b2ff"/></linearGradient><path fill="url(#w)" d="m900.344 119.09 33.787-25.553-47.977 15.035z"/><linearGradient id="x" x1="-370.25" x2="-307.936" y1="1352.898" y2="1352.898" gradientTransform="scale(-1 1) rotate(20.292 2908.914 -845.014)" gradientUnits="userSpaceOnUse"><stop offset="0" stop-color="#abdcff"/><stop offset="1" stop-color="#73b2ff"/></linearGradient><path fill="url(#x)" d="m934.15 93.475-68.949-6.805 13.51 11.031z"/><linearGradient id="y" x1="-370.211" x2="-301.007" y1="1362.834" y2="1362.834" gradientTransform="scale(-1 1) rotate(20.292 2908.914 -845.014)" gradientUnits="userSpaceOnUse"><stop offset="0" stop-color="#abdcff"/><stop offset="1" stop-color="#73b2ff"/></linearGradient><path fill="url(#y)" d="m934.131 93.537-48.03 15.203-15.134 13.51 7.661-24.773z"/><linearGradient id="z" x1="511.604" x2="522.371" y1="131.43" y2="138.503" gradientUnits="userSpaceOnUse"><stop offset="0" stop-color="#ff66ba"/><stop offset="1" stop-color="#8a1988"/></linearGradient><path fill="url(#z)" d="M521.145 133.185c.273.431.359.951.232 1.462a1.923 1.923 0 0 1-1.357 1.389l-6.578 1.878a1.97 1.97 0 0 1-1.907-.457 1.88 1.88 0 0 1-.55-1.845l1.627-6.517a1.922 1.922 0 0 1 1.358-1.389 1.973 1.973 0 0 1 1.907.457l4.951 4.638c.123.117.229.246.317.384zm-8.61 3.095a.415.415 0 0 0 .473.18l6.578-1.878a.402.402 0 0 0 .287-.294.394.394 0 0 0-.116-.39l-4.951-4.639a.412.412 0 0 0-.403-.097.404.404 0 0 0-.287.294l-1.627 6.517a.379.379 0 0 0 .046.307z"/><linearGradient id="A" x1="1218.245" x2="1229.012" y1="429.672" y2="436.744" gradientUnits="userSpaceOnUse"><stop offset="0" stop-color="#ff66ba"/><stop offset="1" stop-color="#8a1988"/></linearGradient><path fill="url(#A)" d="M1227.786 431.426c.273.431.359.951.232 1.462a1.923 1.923 0 0 1-1.357 1.389l-6.578 1.878a1.97 1.97 0 0 1-1.907-.457 1.88 1.88 0 0 1-.55-1.845l1.627-6.517a1.922 1.922 0 0 1 1.358-1.389 1.973 1.973 0 0 1 1.907.457l4.951 4.638c.123.117.229.246.317.384zm-8.61 3.095a.415.415 0 0 0 .473.18l6.578-1.878a.402.402 0 0 0 .287-.294.394.394 0 0 0-.116-.39l-4.951-4.639a.412.412 0 0 0-.403-.097.404.404 0 0 0-.287.294l-1.627 6.517a.379.379 0 0 0 .046.307z"/><linearGradient id="B" x1="103.236" x2="112.877" y1="188.671" y2="188.671" gradientUnits="userSpaceOnUse"><stop offset=".189" stop-color="#ffbe69"/><stop offset="1" stop-color="#ff8f5c"/></linearGradient><path fill="url(#B)" d="m110.045 188.673 2.42-2.369a1.357 1.357 0 0 0 0-1.947 1.427 1.427 0 0 0-1.989 0l-2.42 2.369-2.42-2.369a1.427 1.427 0 0 0-1.989 0 1.357 1.357 0 0 0 0 1.947l2.42 2.369-2.415 2.365a1.357 1.357 0 0 0 0 1.947c.274.269.635.403.994.403.36 0 .72-.135.994-.403l2.415-2.365 2.415 2.365c.275.269.635.403.994.403.36 0 .72-.135.994-.403.55-.538.55-1.41 0-1.947l-2.413-2.365z"/><linearGradient id="C" x1="769.95" x2="779.591" y1="92.324" y2="92.324" gradientUnits="userSpaceOnUse"><stop offset=".189" stop-color="#ffbe69"/><stop offset="1" stop-color="#ff8f5c"/></linearGradient><path fill="url(#C)" d="m776.76 92.326 2.42-2.369a1.357 1.357 0 0 0 0-1.947 1.427 1.427 0 0 0-1.989 0l-2.42 2.369-2.42-2.369a1.427 1.427 0 0 0-1.989 0 1.357 1.357 0 0 0 0 1.947l2.42 2.369-2.415 2.365a1.357 1.357 0 0 0 0 1.947c.274.269.635.403.994.403s.72-.135.994-.403l2.415-2.365 2.415 2.365c.274.269.635.403.994.403s.72-.135.994-.403a1.357 1.357 0 0 0 0-1.947l-2.413-2.365z"/><linearGradient id="D" x1="106.327" x2="117.38" y1="481.159" y2="481.159" gradientUnits="userSpaceOnUse"><stop offset="0" stop-color="#5d64c2"/><stop offset="1" stop-color="#251978"/></linearGradient><path fill="url(#D)" d="M111.854 486.571c-3.047 0-5.527-2.428-5.527-5.411 0-2.984 2.479-5.411 5.527-5.411 3.047 0 5.527 2.427 5.527 5.411-.001 2.983-2.48 5.411-5.527 5.411zm0-9.13c-2.094 0-3.797 1.668-3.797 3.718s1.704 3.718 3.797 3.718c2.094 0 3.797-1.668 3.797-3.718s-1.704-3.718-3.797-3.718z"/><linearGradient id="E" x1="1185.78" x2="1196.833" y1="567.415" y2="567.415" gradientUnits="userSpaceOnUse"><stop offset="0" stop-color="#5d64c2"/><stop offset="1" stop-color="#251978"/></linearGradient><path fill="url(#E)" d="M1191.307 572.826c-3.047 0-5.527-2.427-5.527-5.411 0-2.984 2.479-5.411 5.527-5.411 3.047 0 5.527 2.427 5.527 5.411-.001 2.984-2.48 5.411-5.527 5.411zm0-9.129c-2.094 0-3.797 1.668-3.797 3.718s1.704 3.718 3.797 3.718c2.094 0 3.797-1.668 3.797-3.718s-1.704-3.718-3.797-3.718z"/></svg>