<svg xmlns="http://www.w3.org/2000/svg" viewBox="0 0 1364 960"><linearGradient id="a" x1="368.024" x2="471.917" y1="108.197" y2="192.61" gradientUnits="userSpaceOnUse"><stop offset="0" stop-color="#f5cbfb"/><stop offset="1" stop-color="#84d4ff"/></linearGradient><path fill="url(#a)" d="M477.761 127.877c-4.899-.67-9.921 6.474-11.218 15.957-1.082 7.913.779 14.936 4.269 17.439-.123.295-.245.59-.371.882-3.227 7.469-7.121 15.077-12.786 20.996l-.015.019c-.644-.8-1.286-1.601-1.951-2.387-4.682-5.539-9.78-10.649-15.075-15.557 2.804-2.926 3.849-7.047 4.902-10.857a113.018 113.018 0 0 0 2.821-13.292c.519-3.457.875-6.933 1.077-10.418.137-.012.274-.029.411-.054 4.866-.878 7.434-9.225 5.734-18.643-1.699-9.419-7.021-16.342-11.887-15.465-4.866.878-7.433 9.225-5.734 18.643 1.332 7.383 4.89 13.231 8.709 14.993a109.209 109.209 0 0 1-.951 9.681 112.879 112.879 0 0 1-2.414 12.056c-1.002 3.887-1.891 8.459-4.74 11.461-6.612-6.014-13.478-11.766-20.199-17.672a1.41 1.41 0 0 0 .165-.317c2.74-7.419 3.538-15.189 2.531-23.028a71.182 71.182 0 0 0-.631-3.91c3.247-2.765 4.715-9.753 3.325-17.462-1.7-9.419-7.021-16.342-11.887-15.465-4.866.878-7.434 9.225-5.734 18.644 1.661 9.208 6.785 16.028 11.561 15.508 1.355 7.982 1.352 16.044-1.533 24.077-3.611-3.213-7.169-6.483-10.6-9.883-5.447-5.398-10.586-11.14-15.062-17.345 2.586-3.543 1.461-11.087-2.998-18.17-5.098-8.1-12.623-12.531-16.808-9.897-4.184 2.634-3.444 11.336 1.654 19.435 4.778 7.591 11.688 11.96 15.982 10.31 7.09 9.797 15.744 18.417 24.794 26.575-3.779.613-7.66.289-11.468.103-4.393-.215-8.787-.458-13.162-.911a111.794 111.794 0 0 1-8.586-1.215c-1.663-3.848-7.28-7.597-14.51-9.242-9.332-2.122-17.787.065-18.883 4.887-1.097 4.821 5.58 10.45 14.912 12.573 9.332 2.122 17.787-.066 18.883-4.887.032-.139.035-.281.054-.422 2.709.467 5.44.836 8.182 1.109 4.391.438 8.796.695 13.203.911 4.559.223 9.121.545 13.609-.493.124-.028.232-.071.331-.12a659.374 659.374 0 0 0 6.301 5.503c4.771 4.121 9.563 8.23 14.237 12.466a103.462 103.462 0 0 1-33.307 6.701c-1.799-3.887-8.279-7.087-16.191-7.625-9.549-.648-17.561 2.825-17.897 7.758-.335 4.933 7.134 9.458 16.683 10.107 9.348.635 17.204-2.684 17.845-7.452a105.404 105.404 0 0 0 34.211-6.999c.341-.132.574-.35.724-.605 3.015 2.782 5.97 5.627 8.822 8.58a138.783 138.783 0 0 1 8.873 10.136 1.545 1.545 0 0 0-.343.145c-7.111 4.17-14.756 7.31-22.763 9.287-2.102.519-4.273.993-6.482 1.388-2.688-3.226-9.217-5.179-16.662-4.615-9.543.722-16.977 5.304-16.605 10.235.374 4.93 8.412 8.342 17.956 7.62 9.544-.722 16.978-5.305 16.605-10.235a4.849 4.849 0 0 0-.05-.402c1.773-.329 3.524-.702 5.237-1.108 8.531-2.019 16.701-5.363 24.259-9.796.204-.12.353-.266.46-.425 3.97 5.192 7.6 10.641 10.895 16.328.626 1.08 1.229 2.172 1.833 3.263a1.512 1.512 0 0 0-.328.14 79.585 79.585 0 0 1-12.774 5.915c-3.019-2.778-9.098-4.393-15.954-3.874-9.544.722-16.978 5.305-16.605 10.235.374 4.93 8.412 8.342 17.956 7.62 9.544-.722 16.978-5.305 16.605-10.235a4.77 4.77 0 0 0-.325-1.397 82.287 82.287 0 0 0 12.592-5.889c.056-.032.099-.07.147-.105 5.387 10.056 9.943 20.538 14.224 31.109.673 1.662 3.364.863 2.687-.81-4.472-11.046-9.275-22.053-14.961-32.546 2.908-2.776 5.736-5.754 8.201-8.978.189.079.376.164.575.218 4.771 1.298 10.675-5.138 13.185-14.373 2.511-9.236.678-17.774-4.093-19.071-4.771-1.297-10.674 5.138-13.185 14.374-1.938 7.13-1.279 13.829 1.313 17.117-2.221 2.915-4.76 5.625-7.39 8.172-3.818-6.81-8.047-13.374-12.83-19.569.134-.07.265-.159.386-.286 6.073-6.347 10.315-14.6 13.655-22.661l.054-.135c4.78.273 9.584-6.746 10.848-15.989 1.29-9.485-1.631-17.715-6.53-18.384z"/><path fill="#161F70" d="M448.23 778.016a1.127 1.127 0 0 0 .203-2.235c-.023-.004-2.439-.453-6.573-1.378a1.129 1.129 0 0 0-.492 2.201c4.179.935 6.631 1.389 6.655 1.394.07.012.139.018.207.018zM428.152 773.372a401.608 401.608 0 0 1-13.12-3.703 1.127 1.127 0 1 1 .649-2.159 398.549 398.549 0 0 0 13.047 3.682 1.127 1.127 0 0 1-.576 2.18zm-26.1-7.858a356.504 356.504 0 0 1-12.82-4.629 1.127 1.127 0 0 1 .807-2.105 355.11 355.11 0 0 0 12.738 4.599 1.129 1.129 0 0 1-.725 2.135zm-25.444-9.775a275.093 275.093 0 0 1-12.374-5.724 1.128 1.128 0 0 1 .999-2.022c3.92 1.936 8.05 3.846 12.272 5.678a1.127 1.127 0 1 1-.897 2.068zm-24.435-12.114a193.31 193.31 0 0 1-11.632-7.156 1.128 1.128 0 0 1 1.25-1.877 191.585 191.585 0 0 0 11.496 7.072 1.127 1.127 0 1 1-1.114 1.961zm-22.679-15.212c-3.687-2.953-7.126-6.018-10.221-9.108a1.127 1.127 0 1 1 1.593-1.596c3.037 3.032 6.414 6.042 10.037 8.943a1.129 1.129 0 0 1-.705 2.008c-.247 0-.496-.081-.704-.247zm-19.259-19.42c-2.851-3.765-5.326-7.669-7.356-11.601a1.129 1.129 0 0 1 .484-1.519 1.13 1.13 0 0 1 1.519.484c1.971 3.818 4.377 7.611 7.151 11.275a1.128 1.128 0 0 1-1.798 1.361zm-12.433-24.38a65.042 65.042 0 0 1-2.322-13.556 1.127 1.127 0 1 1 2.25-.144 62.83 62.83 0 0 0 2.241 13.086 1.127 1.127 0 1 1-2.169.614zm11.829-15.12a1.127 1.127 0 1 1 .402-2.218c4.405.798 8.856.899 13.147.302a1.127 1.127 0 1 1 .311 2.233c-1.938.27-3.921.407-5.893.408a44.59 44.59 0 0 1-7.967-.725zm25.607-4.282a1.128 1.128 0 0 1 .532-1.503c4.411-2.105 7.931-4.694 10.462-7.695a1.126 1.126 0 1 1 1.723 1.454c-2.738 3.249-6.512 6.034-11.215 8.276a1.124 1.124 0 0 1-1.502-.532zm-38.731-.087c-4.022-1.97-7.92-4.491-11.584-7.494a1.127 1.127 0 1 1 1.43-1.744c3.53 2.892 7.28 5.319 11.147 7.214a1.126 1.126 0 1 1-.993 2.024zm.456-6.558a1.127 1.127 0 0 1-.965-1.269c.595-4.381 1.611-8.891 3.022-13.406a1.127 1.127 0 1 1 2.152.673c-1.372 4.394-2.362 8.781-2.94 13.037a1.127 1.127 0 0 1-1.269.965zm-21.755-10.697a78.288 78.288 0 0 1-7.726-11.374 1.129 1.129 0 0 1 1.969-1.101 76.005 76.005 0 0 0 7.501 11.047 1.126 1.126 0 1 1-1.744 1.428zm76.774-2.367a1.128 1.128 0 0 1-1.079-1.174c.012-.28.019-.56.019-.839.001-3.828-1.125-7.806-3.255-11.503a1.127 1.127 0 1 1 1.954-1.126c2.328 4.039 3.557 8.407 3.556 12.629 0 .312-.006.623-.02.935a1.129 1.129 0 0 1-1.126 1.08l-.049-.002zm-47.237-12.794a1.13 1.13 0 0 1-.424-1.538c2.57-4.526 5.616-8.091 9.053-10.596a1.127 1.127 0 1 1 1.328 1.822c-3.176 2.315-6.009 5.641-8.421 9.887a1.127 1.127 0 0 1-1.536.425zm-42.957-8.714a90.332 90.332 0 0 1-3.663-13.23 1.127 1.127 0 1 1 2.212-.436 88.184 88.184 0 0 0 3.57 12.898 1.128 1.128 0 0 1-2.119.768zm77.018-1.44c-3.824-2.536-8.012-3.926-12.112-4.02a1.128 1.128 0 0 1-1.101-1.153c.014-.623.537-1.095 1.153-1.102 4.527.104 9.128 1.624 13.307 4.395a1.128 1.128 0 0 1-1.247 1.88zm-82.344-25.406a98.249 98.249 0 0 1-.124-4.962c0-2.888.127-5.831.378-8.748a1.127 1.127 0 1 1 2.246.194c-.245 2.852-.369 5.73-.369 8.555 0 1.621.041 3.252.121 4.849a1.126 1.126 0 0 1-1.069 1.182l-.057.002a1.129 1.129 0 0 1-1.126-1.072zm3.161-25.918a1.127 1.127 0 0 1-.864-1.339 118.644 118.644 0 0 1 3.667-13.192 1.128 1.128 0 0 1 2.135.727 116.444 116.444 0 0 0-3.597 12.939 1.127 1.127 0 0 1-1.341.865zm8.453-25.728a1.128 1.128 0 0 1-.549-1.497 144.2 144.2 0 0 1 6.345-12.109 1.13 1.13 0 0 1 1.543-.404 1.13 1.13 0 0 1 .404 1.543 141.734 141.734 0 0 0-6.245 11.918 1.125 1.125 0 0 1-1.498.549zm13.472-23.515a1.127 1.127 0 0 1-.271-1.571 179.593 179.593 0 0 1 8.3-10.837 1.13 1.13 0 0 1 1.587-.151c.48.397.547 1.107.151 1.588a176.861 176.861 0 0 0-8.196 10.701 1.124 1.124 0 0 1-1.571.27zm17.172-20.944a1.128 1.128 0 0 1 .028-1.594c3.127-3.017 6.65-5.96 10.473-8.748a1.127 1.127 0 1 1 1.328 1.821c-3.74 2.727-7.183 5.603-10.236 8.548a1.126 1.126 0 0 1-1.593-.027zm21.549-16.217a1.128 1.128 0 0 1 .413-1.54 165.643 165.643 0 0 1 12.102-6.306 1.13 1.13 0 0 1 1.5.539 1.126 1.126 0 0 1-.539 1.5 164.064 164.064 0 0 0-11.936 6.22 1.129 1.129 0 0 1-1.54-.413zm24.405-11.787a1.129 1.129 0 0 1 .635-1.463 264.536 264.536 0 0 1 12.812-4.665 1.127 1.127 0 1 1 .718 2.138 262.49 262.49 0 0 0-12.702 4.626 1.131 1.131 0 0 1-1.463-.636zm25.686-8.79a1.128 1.128 0 0 1 .769-1.397 395.315 395.315 0 0 1 13.15-3.558 1.127 1.127 0 0 1 .552 2.186 395.723 395.723 0 0 0-13.075 3.537 1.127 1.127 0 0 1-1.396-.768zm26.315-6.748a1.129 1.129 0 0 1 .856-1.346c4.303-.954 8.787-1.89 13.327-2.781a1.126 1.126 0 1 1 .434 2.212 552.551 552.551 0 0 0-13.272 2.771 1.123 1.123 0 0 1-1.345-.856zm26.647-5.301a1.127 1.127 0 0 1 .917-1.305 757.903 757.903 0 0 1 13.424-2.219 1.136 1.136 0 0 1 1.288.94 1.128 1.128 0 0 1-.94 1.288c-4.557.712-9.06 1.456-13.385 2.212a1.127 1.127 0 0 1-1.304-.916zm26.838-4.242a1.127 1.127 0 0 1 .96-1.273c4.44-.623 8.936-1.222 13.482-1.798a1.128 1.128 0 0 1 .283 2.237 999.144 999.144 0 0 0-13.453 1.793 1.129 1.129 0 0 1-1.272-.959zm26.952-3.452a1.128 1.128 0 0 1 .992-1.249c4.464-.512 8.97-1.004 13.517-1.479a1.127 1.127 0 1 1 .234 2.243c-4.539.474-9.038.965-13.494 1.476a1.133 1.133 0 0 1-1.249-.991zm27.023-2.847a1.128 1.128 0 0 1 1.015-1.23c4.48-.427 8.994-.838 13.539-1.236a1.126 1.126 0 1 1 .196 2.246c-4.539.398-9.047.808-13.521 1.235a1.127 1.127 0 0 1-1.229-1.015zm27.064-2.389a1.128 1.128 0 0 1 1.033-1.215c4.491-.363 9.009-.713 13.551-1.053a1.128 1.128 0 0 1 .169 2.249c-4.537.339-9.051.689-13.538 1.052a1.128 1.128 0 0 1-1.215-1.033zm27.095-2.043a1.127 1.127 0 0 1 1.046-1.203c4.5-.314 9.021-.62 13.558-.918a1.127 1.127 0 0 1 .148 2.25c-4.534.298-9.052.603-13.549.917a1.128 1.128 0 0 1-1.203-1.046zm27.11-1.792a1.128 1.128 0 0 1 1.056-1.195c4.507-.28 9.029-.553 13.563-.822a1.126 1.126 0 1 1 .133 2.251c-4.532.269-9.052.542-13.557.822-.023.002-.048.002-.071.002-.59 0-1.087-.461-1.124-1.058zm27.122-1.613a1.13 1.13 0 0 1 1.061-1.191c4.501-.257 9.012-.51 13.53-.76a1.115 1.115 0 0 1 1.188 1.064 1.128 1.128 0 0 1-1.064 1.188 7755.87 7755.87 0 0 0-13.59.762 1.13 1.13 0 0 1-1.125-1.063zm27.081-1.509a1.128 1.128 0 0 1 1.064-1.188l13.583-.737a1.14 1.14 0 0 1 1.187 1.065 1.128 1.128 0 0 1-1.065 1.187l-13.581.737a1.128 1.128 0 0 1-1.188-1.064zm27.189-1.474a1.128 1.128 0 0 1 1.065-1.187l13.564-.741c.622-.015 1.153.443 1.188 1.064a1.128 1.128 0 0 1-1.064 1.188l-13.565.741-.062.002a1.128 1.128 0 0 1-1.126-1.067zm27.128-1.493a1.128 1.128 0 0 1 1.062-1.189c4.527-.255 9.048-.513 13.561-.777a1.107 1.107 0 0 1 1.191 1.06 1.127 1.127 0 0 1-1.059 1.191c-4.516.263-9.037.522-13.565.778l-.064.002a1.13 1.13 0 0 1-1.126-1.065zm27.123-1.578a1.126 1.126 0 0 1 1.057-1.193c4.53-.276 9.049-.558 13.554-.846a1.127 1.127 0 1 1 .144 2.25c-4.507.289-9.028.57-13.561.846-.023.002-.046.002-.07.002a1.127 1.127 0 0 1-1.124-1.059zm27.113-1.732a1.128 1.128 0 0 1 1.049-1.201c4.532-.308 9.049-.625 13.546-.952a1.128 1.128 0 0 1 .163 2.249 2857.408 2857.408 0 0 1-13.633.954 1.127 1.127 0 0 1-1.125-1.05zm27.1-1.957a1.127 1.127 0 0 1 1.036-1.211c4.535-.354 9.046-.718 13.533-1.096.604-.034 1.166.409 1.218 1.029a1.129 1.129 0 0 1-1.029 1.218c-4.491.378-9.007.743-13.548 1.096a1.126 1.126 0 0 1-1.21-1.036zm27.073-2.266c-.057-.62.4-1.169 1.02-1.226 4.536-.414 9.042-.843 13.514-1.288a1.126 1.126 0 1 1 .223 2.244c-4.478.445-8.99.875-13.532 1.29a1.129 1.129 0 0 1-1.225-1.02zm27.038-2.677a1.128 1.128 0 0 1 .999-1.243 1254.82 1254.82 0 0 0 13.484-1.539 1.117 1.117 0 0 1 1.254.985 1.128 1.128 0 0 1-.985 1.254c-4.462.534-8.966 1.047-13.51 1.542a1.13 1.13 0 0 1-1.242-.999zm26.979-3.208a1.129 1.129 0 0 1 .97-1.266c4.53-.597 9.011-1.218 13.44-1.864a1.134 1.134 0 0 1 1.279.953 1.129 1.129 0 0 1-.953 1.279c-4.439.647-8.931 1.27-13.471 1.869a1.13 1.13 0 0 1-1.265-.971zm26.888-3.9c-.1-.615.318-1.193.932-1.293a763.36 763.36 0 0 0 13.369-2.289 1.128 1.128 0 0 1 .401 2.218 758.458 758.458 0 0 1-13.409 2.297 1.126 1.126 0 0 1-1.293-.933zm26.738-4.803a1.127 1.127 0 0 1 .881-1.329 562.26 562.26 0 0 0 13.251-2.85 1.127 1.127 0 1 1 .501 2.199 562.923 562.923 0 0 1-13.305 2.861 1.128 1.128 0 0 1-1.328-.881zm26.488-6.003a1.127 1.127 0 0 1 .809-1.374 401.42 401.42 0 0 0 13.049-3.607 1.127 1.127 0 1 1 .638 2.162 404.118 404.118 0 0 1-13.123 3.628 1.127 1.127 0 0 1-1.373-.809zm26.048-7.64c-.201-.59.114-1.23.704-1.431a273.123 273.123 0 0 0 12.68-4.661 1.128 1.128 0 0 1 .832 2.096 276.602 276.602 0 0 1-12.787 4.699 1.124 1.124 0 0 1-1.429-.703zm25.225-9.939a1.127 1.127 0 0 1 .541-1.5 175.934 175.934 0 0 0 11.955-6.168 1.128 1.128 0 0 1 1.113 1.961 179.09 179.09 0 0 1-12.109 6.247 1.123 1.123 0 0 1-1.5-.54zm23.554-13.247a1.127 1.127 0 0 1 .273-1.571c3.769-2.654 7.278-5.45 10.427-8.308a1.126 1.126 0 1 1 1.515 1.669c-3.218 2.922-6.799 5.775-10.644 8.483a1.124 1.124 0 0 1-1.571-.273zm19.989-17.898a1.128 1.128 0 0 1-.167-1.586c2.84-3.513 5.32-7.218 7.373-11.013a1.126 1.126 0 1 1 1.983 1.073c-2.118 3.916-4.676 7.737-7.603 11.358a1.125 1.125 0 0 1-1.586.168zm13.222-23.43a1.127 1.127 0 0 1-.673-1.445 120.812 120.812 0 0 0 3.906-12.856 1.128 1.128 0 0 1 2.192.531 122.88 122.88 0 0 1-3.979 13.097 1.128 1.128 0 0 1-1.446.673zm6.576-26.268a1.126 1.126 0 0 1-.994-1.246c.415-3.688.625-7.411.626-11.066 0-.776-.009-1.55-.029-2.322a1.127 1.127 0 0 1 1.1-1.154l.028-.001c.61 0 1.111.486 1.127 1.1a101.462 101.462 0 0 1-.613 13.695 1.126 1.126 0 0 1-1.245.994zm-1.648-27.92a98.04 98.04 0 0 0-3.083-12.993 1.128 1.128 0 0 1 2.154-.668 100.056 100.056 0 0 1 3.153 13.293 1.127 1.127 0 1 1-2.224.368zm-7.864-25.484a117.734 117.734 0 0 0-6.268-11.846 1.127 1.127 0 0 1 1.93-1.164 120.083 120.083 0 0 1 6.388 12.074 1.127 1.127 0 1 1-2.05.936zm-13.782-22.976a155.894 155.894 0 0 0-8.532-10.402 1.126 1.126 0 0 1 .09-1.592 1.125 1.125 0 0 1 1.591.09 158.73 158.73 0 0 1 8.657 10.552 1.13 1.13 0 0 1-1.806 1.352zm-17.888-20.1a209.89 209.89 0 0 0-10.017-9.038 1.127 1.127 0 1 1 1.458-1.721 212.87 212.87 0 0 1 10.124 9.135 1.129 1.129 0 0 1-1.565 1.624zm-20.568-17.468a275.695 275.695 0 0 0-10.985-7.871 1.128 1.128 0 0 1 1.268-1.865 280.28 280.28 0 0 1 11.076 7.936 1.13 1.13 0 0 1-.68 2.028c-.237 0-.475-.074-.679-.228zm-22.329-15.234a350.96 350.96 0 0 0-11.64-6.897 1.126 1.126 0 1 1 1.113-1.961c4 2.269 7.942 4.605 11.714 6.942a1.129 1.129 0 0 1-.594 2.086 1.147 1.147 0 0 1-.593-.17zM943.47 160.25a432.957 432.957 0 0 0-12.1-6.077 1.127 1.127 0 1 1 .981-2.03 433.353 433.353 0 0 1 12.163 6.11 1.126 1.126 0 1 1-1.044 1.997zm-24.378-11.791a511.522 511.522 0 0 0-12.433-5.377 1.129 1.129 0 0 1 .868-2.082 519.881 519.881 0 0 1 12.486 5.401c.568.255.823.922.568 1.49a1.13 1.13 0 0 1-1.489.568zm-25.003-10.442a599.239 599.239 0 0 0-12.685-4.767 1.127 1.127 0 1 1 .769-2.119 603.866 603.866 0 0 1 12.734 4.786 1.129 1.129 0 0 1-.408 2.178 1.138 1.138 0 0 1-.41-.078zm-25.473-9.255a681.12 681.12 0 0 0-12.879-4.227 1.126 1.126 0 0 1-.734-1.415 1.126 1.126 0 0 1 1.416-.734 695.5 695.5 0 0 1 12.922 4.239 1.129 1.129 0 0 1-.725 2.137zm-25.839-8.201a744.242 744.242 0 0 0-13.033-3.735 1.126 1.126 0 1 1 .603-2.172 760.123 760.123 0 0 1 13.072 3.746 1.127 1.127 0 1 1-.642 2.161zm-26.129-7.24a826.1 826.1 0 0 0-13.156-3.283 1.127 1.127 0 1 1 .528-2.192 830.495 830.495 0 0 1 13.191 3.292 1.127 1.127 0 0 1-.563 2.183zm-26.363-6.351a861.765 861.765 0 0 0-13.254-2.859 1.128 1.128 0 0 1 .458-2.208c4.446.924 8.917 1.887 13.29 2.866a1.128 1.128 0 0 1-.494 2.201zm-26.552-5.513a912.317 912.317 0 0 0-13.303-2.449 1.128 1.128 0 0 1 .393-2.221c4.419.78 8.906 1.605 13.335 2.455a1.127 1.127 0 1 1-.425 2.215zm-26.652-4.704a956.134 956.134 0 0 0-13.393-2.062 1.128 1.128 0 0 1 .327-2.231 924.5 924.5 0 0 1 13.425 2.068 1.127 1.127 0 0 1-.359 2.225zm-26.826-3.934a956.134 956.134 0 0 0-13.471-1.681 1.127 1.127 0 0 1-.988-1.251c.072-.619.639-1.074 1.251-.988 4.505.528 9.006 1.09 13.503 1.684a1.127 1.127 0 1 1-.295 2.236zm-26.976-3.167a943.748 943.748 0 0 0-13.537-1.296 1.128 1.128 0 0 1-1.024-1.222 1.135 1.135 0 0 1 1.222-1.024c4.521.4 9.045.832 13.569 1.298a1.127 1.127 0 0 1-.114 2.249.908.908 0 0 1-.116-.005zm-27.053-2.391a933.407 933.407 0 0 0-13.543-.901 1.125 1.125 0 0 1-1.058-1.192 1.11 1.11 0 0 1 1.192-1.059c4.517.267 9.043.568 13.575.902a1.128 1.128 0 0 1-.166 2.25zM628.952 85.654A1.128 1.128 0 0 0 629 83.4a972.708 972.708 0 0 0-6.765-.27 1.144 1.144 0 0 0-1.168 1.086 1.128 1.128 0 0 0 1.086 1.168c2.247.081 4.496.172 6.748.27h.051z"/><linearGradient id="b" x1="626.226" x2="662.022" y1="80.431" y2="80.431" gradientUnits="userSpaceOnUse"><stop offset="0" stop-color="#abdcff"/><stop offset="1" stop-color="#73b2ff"/></linearGradient><path fill="url(#b)" d="m662.022 87.334-35.796 2.174 10.758-18.153z"/><linearGradient id="c" x1="582.39" x2="640.194" y1="87.063" y2="87.063" gradientUnits="userSpaceOnUse"><stop offset="0" stop-color="#abdcff"/><stop offset="1" stop-color="#73b2ff"/></linearGradient><path fill="url(#c)" d="M629.023 95.237 582.39 81.524l57.804-2.636z"/><linearGradient id="d" x1="582.345" x2="654.164" y1="64.793" y2="64.793" gradientUnits="userSpaceOnUse"><stop offset="0" stop-color="#abdcff"/><stop offset="1" stop-color="#73b2ff"/></linearGradient><path fill="url(#d)" d="m582.345 81.467 71.819-33.347-10.232 16.623z"/><linearGradient id="e" x1="582.39" x2="662.022" y1="75.906" y2="75.906" gradientUnits="userSpaceOnUse"><stop offset="0" stop-color="#abdcff"/><stop offset="1" stop-color="#73b2ff"/></linearGradient><path fill="url(#e)" d="m582.39 81.524 57.927-2.48 21.705 8.29-18.089-22.855z"/><linearGradient id="f" x1="884.079" x2="992.939" y1="243.952" y2="243.952" gradientUnits="userSpaceOnUse"><stop offset="0" stop-color="#84d4ff"/><stop offset="1" stop-color="#f5cbfb"/></linearGradient><path fill="url(#f)" d="M942.643 286.601c1.362-2.49.891-5.73-.765-8.029-1.657-2.299-4.33-3.721-7.099-4.323-2.77-.602-5.65-.452-8.464-.101-4.657.582-9.382 1.788-13.298 4.304 1.595-6.7 3.71-13.279 6.316-19.664.237-.581.485-1.157.729-1.734l13.221 6.519c2.94 1.45 5.972 2.926 9.242 3.173 3.27.247 6.879-1.024 8.454-3.904 1.362-2.49.891-5.73-.766-8.029-1.657-2.299-4.329-3.721-7.099-4.323-2.77-.602-5.65-.452-8.464-.101-4.803.6-9.682 1.863-13.667 4.545a137.026 137.026 0 0 1 11.034-20.106l13.649 6.091c2.994 1.336 6.081 2.694 9.358 2.816 3.278.121 6.835-1.287 8.298-4.226 1.265-2.54.671-5.76-1.073-7.993-1.744-2.234-4.469-3.552-7.26-4.047-2.791-.495-5.664-.235-8.463.224-4.481.735-9.006 2.055-12.752 4.553a134.85 134.85 0 0 1 10.307-13.016 129.532 129.532 0 0 1 3.363-3.588l14.244 5.801c3.036 1.237 6.166 2.493 9.446 2.506 3.28.014 6.789-1.511 8.156-4.496 1.181-2.58.481-5.778-1.335-7.953-1.816-2.175-4.584-3.404-7.39-3.807s-5.669-.049-8.451.502c-3.976.787-7.968 2.044-11.385 4.166a129.194 129.194 0 0 1 12.742-10.75l14.905-1.639c3.261-.359 6.613-.745 9.507-2.294 2.894-1.55 5.257-4.56 5.04-7.833-.188-2.83-2.325-5.307-4.959-6.354-2.633-1.047-5.654-.808-8.315.173-2.662.982-5.013 2.655-7.2 4.464-4.03 3.333-7.72 7.363-9.527 12.239-.015.01-.031.016-.046.027a130.306 130.306 0 0 0-13.538 11.468c1.847-3.792 2.639-8.122 2.924-12.366.19-2.83.175-5.715-.584-8.447-.759-2.732-2.331-5.32-4.72-6.843-2.39-1.523-5.65-1.808-8.058-.306-2.785 1.738-3.848 5.414-3.414 8.665.433 3.252 2.08 6.195 3.695 9.049l7.378 13.036a134.769 134.769 0 0 0-13.814 16.747c1.027-4.32.732-8.955-.086-13.358-.518-2.788-1.249-5.578-2.662-8.034-1.413-2.457-3.579-4.573-6.272-5.454-2.694-.882-5.924-.348-7.884 1.704-2.268 2.374-2.386 6.197-1.159 9.238 1.227 3.041 3.553 5.483 5.826 7.845l10.38 10.787c-.126.19-.256.377-.381.568a138.937 138.937 0 0 0-10.718 19.665c.524-4.948-.788-10.002-2.682-14.639-1.072-2.624-2.352-5.207-4.233-7.326-1.882-2.119-4.431-3.752-7.248-4.069-2.817-.318-5.874.86-7.379 3.266-1.741 2.783-1.082 6.55.735 9.279 1.817 2.728 4.59 4.648 7.295 6.5l12.75 8.73-.121.288-.144.026.11.054a136.63 136.63 0 0 0-6.906 20.667c-1.315-4.271-3.915-8.155-6.851-11.578-1.881-2.192-3.949-4.278-6.45-5.723s-5.492-2.205-8.318-1.61c-2.826.595-5.403 2.712-6.084 5.519-.788 3.247 1.06 6.676 3.695 8.73 2.635 2.054 5.934 3.021 9.145 3.943l13.682 3.933.388.191a130.13 130.13 0 0 0-2.968 23.814c-.027.846 1.29 1.049 1.317.192a129.99 129.99 0 0 1 2.883-23.398l12.543 6.185c2.94 1.45 5.972 2.926 9.242 3.173 3.269.248 6.878-1.024 8.453-3.904z"/><linearGradient id="g" x1="571.56" x2="510.964" y1="1550.425" y2="1419.483" gradientTransform="rotate(-8.698 -6081.58 1715.072)" gradientUnits="userSpaceOnUse"><stop offset="0" stop-color="#84d4ff"/><stop offset="1" stop-color="#f5cbfb"/></linearGradient><path fill="url(#g)" d="M443.208 568.299c-2.069-2.532-.984-6.606 1.561-8.649 2.544-2.043 6.036-2.468 9.308-2.342 5.292.205 10.063 1.519 14.988 3.111a217.944 217.944 0 0 1-10.541-10.275 224.348 224.348 0 0 1-6.582-7.163c-5.725 4.615-12.852 7.476-20.182 8.079-2.779.228-5.962-.033-7.72-2.196-2.055-2.527-.969-6.602 1.565-8.648 2.534-2.046 6.009-2.476 9.263-2.354 5.465.204 10.369 1.605 15.465 3.27-6.518-7.582-12.507-15.628-17.752-24.132-6.323 3.538-13.698 5.18-20.924 4.621-2.779-.215-5.881-.978-7.275-3.392-1.627-2.821.091-6.672 2.917-8.29 2.826-1.619 6.325-1.492 9.52-.856 5.176 1.031 9.66 3.079 14.252 5.425-5.387-9.052-10.146-18.934-11.835-29.363-.035-.217-.061-.436-.094-.653-6.821 2.674-14.446 3.274-21.597 1.671-2.72-.61-5.682-1.808-6.716-4.396-1.208-3.025 1.042-6.591 4.071-7.789 3.028-1.198 6.473-.574 9.544.512 5.41 1.913 9.84 4.899 14.437 8.191-1.622-12.1-1.02-24.551-3.056-36.576-6.91 2.792-14.672 3.444-21.946 1.814-2.72-.609-5.682-1.807-6.716-4.396-1.208-3.024 1.042-6.59 4.071-7.789 3.028-1.198 6.473-.574 9.544.512 5.556 1.964 10.077 5.06 14.808 8.457-.562-2.996-1.299-5.963-2.293-8.89-2.013-5.925-5.277-11.362-9.374-16.159-6.029 4.668-13.527 7.415-21.147 7.72-2.785.111-5.955-.284-7.621-2.519-1.946-2.611-.69-6.637 1.927-8.574 2.618-1.938 6.108-2.222 9.354-1.963 5.954.473 11.18 2.343 16.707 4.441-6.774-7.605-15.657-13.514-24.953-17.066-5.945 3.537-12.894 5.384-19.812 5.22-2.787-.066-5.926-.662-7.446-2.998-1.776-2.73-.267-6.667 2.469-8.435 2.736-1.767 6.237-1.829 9.46-1.364 5.142.741 9.668 2.501 14.302 4.556a1.3 1.3 0 0 1 .607.071c7.979 2.846 15.338 7.325 21.701 12.904a76.087 76.087 0 0 1 4.084 3.856c-2.558-6.225-3.404-13.153-2.364-19.804.43-2.754 1.432-5.788 3.948-6.989 2.939-1.403 6.644.609 8.038 3.552 1.394 2.944.996 6.422.114 9.558-1.646 5.847-4.564 10.677-7.757 15.788 2.636 2.927 4.997 6.097 6.872 9.556 2.839 5.238 4.554 10.802 5.645 16.524.462-6.926 2.899-13.718 6.985-19.333 1.64-2.254 3.916-4.496 6.702-4.417 3.255.093 5.634 3.575 5.531 6.83-.103 3.255-2.045 6.168-4.261 8.555-4.247 4.573-9.198 7.578-14.534 10.762 1.526 9.488 1.542 19.344 2.257 28.826.225 2.985.533 5.94.998 8.864.121-7.537 2.601-15.023 7.029-21.125 1.637-2.256 3.91-4.501 6.697-4.426 3.256.089 5.639 3.567 5.54 6.822-.099 3.255-2.037 6.172-4.25 8.561-4.337 4.683-9.413 7.727-14.884 10.999.53 3.111 1.256 6.185 2.291 9.214 1.893 5.54 4.413 10.858 7.238 15.978.751 1.362 1.528 2.71 2.323 4.047-.541-6.814.829-13.779 3.953-19.863 1.273-2.48 3.177-5.045 5.942-5.396 3.231-.41 6.118 2.664 6.517 5.896.399 3.232-1.07 6.41-2.893 9.11-3.367 4.988-7.604 8.635-12.19 12.447 5.125 8.308 11.043 16.148 17.419 23.54-2.295-6.755-2.603-14.179-.833-21.092.692-2.7 1.979-5.625 4.598-6.579 3.06-1.116 6.556 1.241 7.662 4.305 1.106 3.063.378 6.488-.8 9.524-2.236 5.762-5.682 10.349-9.423 15.225a236.98 236.98 0 0 0 2.579 2.899c4.761 5.255 9.779 10.315 15.06 15.078-2.134-6.613-2.38-13.832-.655-20.567.692-2.701 1.979-5.624 4.598-6.58 3.06-1.116 6.556 1.242 7.662 4.305 1.106 3.063.377 6.488-.801 9.524-2.174 5.604-5.492 10.096-9.113 14.823 6.086 5.358 12.517 10.318 19.313 14.721 1.415.917-.104 3.05-1.517 2.134-6.863-4.446-13.348-9.469-19.488-14.883-5.757 4.63-12.934 7.497-20.323 8.09-2.796.226-5.997-.041-7.768-2.207z"/><linearGradient id="h" x1="414.863" x2="333.372" y1="3112.189" y2="2990.997" gradientTransform="rotate(-21.655 -6078.829 1748.232)" gradientUnits="userSpaceOnUse"><stop offset="0" stop-color="#84d4ff"/><stop offset="1" stop-color="#f5cbfb"/></linearGradient><path fill="url(#h)" d="M404.37 563.877c12.237 10.443 33.572 6.039 46.693 16.084 7.315 6.078 7.067 14.987 8.555 22.899 3.937 13.989 9.174 29.451 20.566 41.534 5.647 5.297 13.36 9.228 17.873 15.124-6.278 2.213-14.216 3.844-22.437 4.358a22.394 22.394 0 0 1-.598-.305c-7.704-4.08-14.478-10.266-17.275-18.725-2.549-7.702-2.12-16.703-7.285-23.37-2.826-3.648-6.996-5.843-10.964-8.013-4.095-2.244-7.903-4.644-10.829-8.351-4.888-6.182-7.689-14.609-14.725-18.842-4.296-2.578-9.379-2.721-14.197-3.462-2.695-.411-5.366-1.056-7.757-2.407-2.041-1.153-3.819-2.694-5.419-4.394-3.158-3.354-5.675-7.245-8.778-10.648-3.145-3.455-6.967-6.117-11.2-8.077-9.245-4.275-19.504-5.209-29.386-7.126-8.94-1.737-18.416-4.424-25.294-10.716a21.341 21.341 0 0 1-.689-.656c.455-1.326 1.3-2.598 2.587-3.774 12.087-8.471 29.681 6.254 43.717 6.916 16.108-.787 27.228-6.914 37.475 9.607 2.791 4.262 5.141 8.835 9.367 12.344z"/><linearGradient id="i" x1="398.521" x2="317.031" y1="3123.177" y2="3001.986" gradientTransform="rotate(-21.655 -6078.829 1748.232)" gradientUnits="userSpaceOnUse"><stop offset="0" stop-color="#84d4ff"/><stop offset="1" stop-color="#f5cbfb"/></linearGradient><path fill="url(#i)" d="M337.206 550.156c9.882 1.917 20.141 2.85 29.386 7.126 4.233 1.959 8.055 4.621 11.2 8.077 3.102 3.402 5.62 7.293 8.778 10.648 1.601 1.701 3.378 3.242 5.419 4.394 2.391 1.351 5.062 1.997 7.757 2.407 4.818.741 9.9.883 14.197 3.462 7.036 4.233 9.837 12.66 14.725 18.842 2.926 3.707 6.733 6.107 10.829 8.351 3.968 2.169 8.138 4.365 10.964 8.013 5.165 6.666 4.737 15.668 7.285 23.37 2.798 8.459 9.571 14.645 17.275 18.725.196.103.4.208.598.305-.417.03-.833.053-1.252.069-19.041.931-39.222-4.24-43.629-22.11-.092-9.117.722-16.646-13.118-19.217-22.344-6.778-47.741-6.164-52.307-29.99-2.761-10.446-2.135-27.282-16.441-32.909-5.97-1.448-11.986-.045-17.97-1.327-10.767-1.519-21.831-10.972-19.886-18.905a4.66 4.66 0 0 1 .207-.702c.223.224.455.443.689.656 6.878 6.291 16.354 8.978 25.294 10.715z"/><path fill="#FFF" d="M337.206 550.156c9.882 1.917 20.141 2.85 29.386 7.126 4.233 1.959 8.055 4.621 11.2 8.077 3.102 3.402 5.62 7.293 8.778 10.648 1.601 1.701 3.378 3.242 5.419 4.394 2.391 1.351 5.062 1.997 7.757 2.407 4.818.741 9.9.883 14.197 3.462 7.036 4.233 9.837 12.66 14.725 18.842 2.926 3.707 6.733 6.107 10.829 8.351 3.968 2.169 8.138 4.365 10.964 8.013 5.165 6.666 4.737 15.668 7.285 23.37 2.798 8.459 9.571 14.645 17.275 18.725.196.103.4.208.598.305-.417.03-.833.053-1.252.069a47.605 47.605 0 0 1-5.346-3.358c-3.194-2.327-6.069-5.11-8.304-8.37-2.377-3.471-3.802-7.344-4.717-11.433-.927-4.172-1.43-8.458-2.772-12.528-1.527-4.656-4.313-8.265-8.401-10.98-4.002-2.654-8.519-4.468-12.33-7.429-3.205-2.495-5.541-5.808-7.674-9.219-2.222-3.565-4.259-7.313-7.122-10.422-3.474-3.779-7.848-5.383-12.853-6.092-4.843-.683-9.81-.999-14.048-3.696-3.752-2.389-6.518-5.979-9.214-9.441-2.974-3.821-6.002-7.495-10.052-10.224-4.317-2.9-9.244-4.749-14.241-6.073-15.037-3.996-34.579-3.734-46.277-15.193a4.66 4.66 0 0 1 .207-.702c.223.224.455.443.689.656 6.878 6.291 16.354 8.978 25.294 10.715z"/><path fill="#FFF" d="M833.873 903.166H509.955c-30.211 0-54.701-24.49-54.701-54.701V201.313h433.32v647.153c0 30.21-24.49 54.7-54.701 54.7z"/><linearGradient id="j" x1="505.364" x2="873.059" y1="120.737" y2="1010.321" gradientUnits="userSpaceOnUse"><stop offset="0" stop-color="#5d64c2"/><stop offset="1" stop-color="#251978"/></linearGradient><path fill="url(#j)" d="M851.726 142.215H492.081c-24.423 0-44.209 19.787-44.209 44.204v674.532c0 13.32 5.911 25.287 15.253 33.396.313.263.626.531.94.796 7.626 6.274 17.398 10.012 28.016 10.012h359.645c10.617 0 20.391-3.738 28.016-10.012 9.895-8.11 16.215-20.418 16.215-34.193V186.42c0-24.418-19.811-44.205-44.231-44.205zm34.861 701.508c0 25.637-21.977 46.418-49.089 46.418H506.333c-27.111 0-49.091-20.781-49.091-46.418V230.179c0-15.945 13.67-28.867 30.533-28.867h368.283c16.862 0 30.53 12.922 30.53 28.867v613.544z"/><path fill="#FFF" d="M519.153 173.183c0 7.849-6.374 14.222-14.225 14.222-7.852 0-14.225-6.374-14.225-14.222 0-7.855 6.374-14.228 14.225-14.228s14.225 6.374 14.225 14.228z"/><linearGradient id="k" x1="486.477" x2="854.171" y1="128.543" y2="1018.127" gradientUnits="userSpaceOnUse"><stop offset="0" stop-color="#5d64c2"/><stop offset="1" stop-color="#251978"/></linearGradient><path fill="url(#k)" d="M514.551 173.182c0 5.312-4.311 9.624-9.624 9.624-5.311 0-9.625-4.312-9.625-9.624 0-5.313 4.314-9.625 9.625-9.625 5.314 0 9.624 4.312 9.624 9.625z"/><path fill="#FFF" d="M548.273 173.182c0 5.312-4.312 9.624-9.625 9.624s-9.624-4.312-9.624-9.624c0-5.313 4.311-9.625 9.624-9.625 5.313 0 9.625 4.312 9.625 9.625z"/><path fill="#CBDAF2" d="M545.22 240.714h-57.744a2.93 2.93 0 0 1-2.93-2.93v-.995a2.93 2.93 0 0 1 2.93-2.93h57.744a2.93 2.93 0 0 1 2.93 2.93v.994a2.931 2.931 0 0 1-2.93 2.931zM545.22 259.356h-57.744a2.93 2.93 0 0 1-2.93-2.93v-.995a2.93 2.93 0 0 1 2.93-2.93h57.744a2.93 2.93 0 0 1 2.93 2.93v.995a2.93 2.93 0 0 1-2.93 2.93zM545.22 277.998h-57.744a2.93 2.93 0 0 1-2.93-2.93v-.995a2.93 2.93 0 0 1 2.93-2.93h57.744a2.93 2.93 0 0 1 2.93 2.93v.995a2.93 2.93 0 0 1-2.93 2.93z"/><ellipse cx="671.914" cy="448.423" fill="#CBDAF2" rx="95.479" ry="92.233"/><ellipse cx="670.493" cy="422.334" fill="#FFF" rx="37.066" ry="35.806"/><path fill="#FFF" d="M704.489 458.429c-2.983-2.251-7.153-2.172-10.086.139-6.38 5.028-14.536 8.057-23.431 8.057-8.606 0-16.523-2.831-22.802-7.591-2.99-2.266-7.228-2.22-10.112.17-7.478 6.194-12.031 15.126-12.031 26.737v1.047c0 6.004 5.039 10.871 11.255 10.871h69.265c6.215 0 11.254-4.867 11.254-10.871v-1.047c.001-12.106-5.086-21.304-13.312-27.512z"/><linearGradient id="l" x1="674.336" x2="674.336" y1="413.882" y2="803.9" gradientUnits="userSpaceOnUse"><stop offset="0" stop-color="#abdcff"/><stop offset="1" stop-color="#73b2ff"/></linearGradient><path fill="url(#l)" d="M771.579 584.452H577.094c-7.635 0-13.824 6.189-13.824 13.824v68.628c0 7.635 6.189 13.824 13.824 13.824h194.484c7.635 0 13.824-6.189 13.824-13.824v-68.628c0-7.635-6.189-13.824-13.823-13.824z"/><path fill="#FFF" d="M1061.836 861.112v40.037H945.458c-11.041 0-20.026-8.969-20.026-20.011 0-11.041 8.985-20.026 20.026-20.026h116.378z"/><linearGradient id="m" x1="724.17" x2="1061.836" y1="881.13" y2="881.13" gradientUnits="userSpaceOnUse"><stop offset="0" stop-color="#ff2e81"/><stop offset="1" stop-color="#ff7ace"/></linearGradient><path fill="url(#m)" d="M945.458 861.112c-17.471 0-29.793 22.495-9.52 40.037h125.898v7.909H732.688a8.518 8.518 0 0 1-8.518-8.518v-38.82a8.518 8.518 0 0 1 8.518-8.518h329.148v7.909H945.458z"/><path fill="#036E91" d="M944.138 861.158a19.93 19.93 0 0 1 1.321-.047h116.378v-7.909h-108.82a20.156 20.156 0 0 0-8.879 7.956z"/><path fill="#DCE5ED" d="M933.983 899.34h-159.04c-19.278 0-34.906-15.628-34.906-34.906v-11.232h-7.35a8.518 8.518 0 0 0-8.518 8.518v38.82a8.518 8.518 0 0 0 8.518 8.518h329.148v-7.909H935.939a40.108 40.108 0 0 1-1.956-1.809z"/><linearGradient id="n" x1="917.523" x2="1061.836" y1="881.13" y2="881.13" gradientUnits="userSpaceOnUse"><stop offset="0" stop-color="#ff2e81"/><stop offset="1" stop-color="#ff7ace"/></linearGradient><path fill="url(#n)" d="M925.432 881.138c0 11.042 8.985 20.011 20.026 20.011h116.378v7.909H945.458c-15.407 0-27.935-12.529-27.935-27.92 0-15.407 12.528-27.936 27.935-27.936h116.378v7.909H945.458c-11.041.001-20.026 8.986-20.026 20.027z"/><path fill="#FFF" d="M842.139 853.202h7.493v55.856h-7.493zM823.404 853.202h7.493v55.856h-7.493z"/><circle cx="882.106" cy="884.129" r="16.231" fill="#FFF"/><path fill="#E6E8F0" d="M1005.851 869.188h-61.213a1.504 1.504 0 0 1 0-3.008h61.213a1.504 1.504 0 1 1 0 3.008zM1049.837 897.734h-69.461a1.504 1.504 0 1 1 0-3.008h69.461a1.504 1.504 0 1 1 0 3.008zM1005.851 883.769h-38.114a1.504 1.504 0 0 1 0-3.008h38.114a1.504 1.504 0 0 1 0 3.008zM960.245 883.768H943.95a1.503 1.503 0 1 1 0-3.007h16.295a1.504 1.504 0 0 1 0 3.007zM1043.229 883.768h-16.295a1.503 1.503 0 1 1 0-3.007h16.295a1.504 1.504 0 1 1 0 3.007zM1032.098 870.691h-5.164a1.504 1.504 0 0 1 0-3.008h5.164a1.504 1.504 0 1 1 0 3.008zM972.439 897.734h-5.164a1.504 1.504 0 1 1 0-3.008h5.164a1.504 1.504 0 0 1 0 3.008zM1058.009 883.768h-5.164a1.503 1.503 0 1 1 0-3.007h5.164c.83 0 1.504.673 1.504 1.503a1.505 1.505 0 0 1-1.504 1.504z"/><linearGradient id="o" x1="1010.299" x2="1027.983" y1="884.129" y2="884.129" gradientUnits="userSpaceOnUse"><stop offset="0" stop-color="#ff2e81"/><stop offset="1" stop-color="#ff7ace"/></linearGradient><path fill="url(#o)" d="M1010.299 875.436v17.385l8.842-6.144 8.842 6.144v-17.385z"/><path fill="#FFF" d="M770.7 805.256v40.037h116.378c11.042 0 20.027-8.97 20.027-20.011s-8.985-20.026-20.027-20.026H770.7z"/><linearGradient id="p" x1="635.052" x2="1335.507" y1="825.274" y2="825.274" gradientUnits="userSpaceOnUse"><stop offset="0" stop-color="#abdcff"/><stop offset="1" stop-color="#73b2ff"/></linearGradient><path fill="url(#p)" d="M887.079 805.256c17.471 0 29.793 22.494 9.52 40.037H770.7v7.909h331.444a6.222 6.222 0 0 0 6.222-6.222v-43.412a6.222 6.222 0 0 0-6.222-6.222H770.7v7.91h116.379z"/><path fill="#FFB32E" d="M892.512 806.006c-3.676-4.355-9.171-7.128-15.302-7.128H770.701v6.377h116.378c1.882.001 3.704.263 5.433.751z"/><path fill="#DCE5ED" d="M1102.145 797.346h-3.648v21.082c0 15.682-12.713 28.396-28.396 28.396h-299.4v6.378h331.444a6.222 6.222 0 0 0 6.222-6.222v-43.412a6.223 6.223 0 0 0-6.222-6.222z"/><linearGradient id="q" x1="704.624" x2="998.678" y1="825.274" y2="825.274" gradientUnits="userSpaceOnUse"><stop offset="0" stop-color="#abdcff"/><stop offset="1" stop-color="#73b2ff"/></linearGradient><path fill="url(#q)" d="M907.105 825.282c0 11.041-8.985 20.011-20.027 20.011H770.7v7.909h116.378c15.407 0 27.936-12.529 27.936-27.92 0-15.407-12.529-27.936-27.936-27.936H770.7v7.91h116.378c11.042 0 20.027 8.985 20.027 20.026z"/><path fill="#FFF" d="M990.398 853.202h-7.493v-55.856h7.493zM1009.134 853.202h-7.493v-55.856h7.493zM934.097 825.274c0-8.463 6.861-15.324 15.323-15.324 8.463 0 15.323 6.861 15.323 15.324 0 8.463-6.86 15.323-15.323 15.323-8.462.001-15.323-6.86-15.323-15.323z"/><path fill="#E6E8F0" d="M844.522 812.918h-68.548a1.504 1.504 0 1 1 0-3.007h68.548a1.505 1.505 0 0 1 0 3.007zM893.532 841.464h-77.739a1.504 1.504 0 1 1 0-3.008h77.739a1.504 1.504 0 0 1 0 3.008zM844.522 827.498H801.71a1.504 1.504 0 1 1 0-3.007h42.811a1.502 1.502 0 1 1 .001 3.007zM793.706 827.498h-18.5a1.504 1.504 0 1 1 0-3.007h18.5a1.502 1.502 0 1 1 0 3.007zM886.169 827.498h-18.5a1.503 1.503 0 0 1 0-3.007h18.5a1.502 1.502 0 1 1 0 3.007zM875.415 812.918h-6.097a1.504 1.504 0 1 1 0-3.007h6.097a1.503 1.503 0 1 1 0 3.007zM807.293 841.464h-6.097a1.504 1.504 0 1 1 0-3.008h6.097a1.504 1.504 0 0 1 0 3.008zM902.637 827.498h-6.097a1.504 1.504 0 1 1 0-3.007h6.097a1.505 1.505 0 0 1 0 3.007z"/><path fill="#FFF" d="M1049.048 795.951c-1.728-.618-288.89 1.174-290.128-.611-6.981-3.252-12.884-8.744-16.668-15.443h-.046V743.2h.028c4.018-7.123 10.421-12.867 17.964-16.044h288.33c-6.811 22.288-4.16 46.331.52 68.795z"/><linearGradient id="r" x1="732.19" x2="1055.086" y1="760.554" y2="760.554" gradientUnits="userSpaceOnUse"><stop offset=".189" stop-color="#ffbe69"/><stop offset="1" stop-color="#ff8f5c"/></linearGradient><path fill="url(#r)" d="M1053.453 788.377a5.514 5.514 0 0 1 1.632 3.933 5.563 5.563 0 0 1-5.564 5.564H769.5a37.127 37.127 0 0 1-14.458-2.903 31.277 31.277 0 0 1-1.363-.612 26.423 26.423 0 0 1-1.372-.677c-.371-.195-.742-.389-1.113-.603a28.2 28.2 0 0 1-1.159-.686 34.805 34.805 0 0 1-.965-.603c-.334-.223-.668-.445-.992-.677-.287-.205-.575-.409-.854-.612a32.123 32.123 0 0 1-.871-.677c-.259-.204-.51-.408-.751-.612a28.391 28.391 0 0 1-1.447-1.28 25.099 25.099 0 0 1-.733-.687l-.306-.306c-.102-.102-.195-.194-.287-.297a13.996 13.996 0 0 1-.64-.677c-.195-.194-.38-.399-.566-.612-.195-.223-.399-.446-.584-.678a9.818 9.818 0 0 1-.501-.603 19.338 19.338 0 0 1-.547-.686 15.07 15.07 0 0 1-.454-.603c-.167-.223-.334-.445-.492-.676-.148-.205-.297-.409-.427-.612-.158-.223-.306-.455-.454-.677-.13-.204-.26-.398-.38-.602-.139-.223-.278-.455-.417-.686-.12-.204-.241-.408-.352-.612a.366.366 0 0 1-.047-.083 37.15 37.15 0 0 1-4.776-18.279c0-6.64 1.734-12.872 4.776-18.279l.028-.056c.111-.204.232-.408.352-.603.129-.232.269-.464.417-.686.12-.204.25-.399.38-.603.139-.222.287-.454.445-.677.14-.204.278-.408.427-.612.157-.232.325-.454.491-.677.148-.204.297-.408.454-.603.177-.232.362-.464.538-.686.167-.204.334-.408.501-.603.195-.232.39-.454.594-.677.176-.213.362-.417.557-.611.204-.232.417-.455.64-.677.195-.204.399-.408.603-.612.232-.223.473-.455.714-.677.213-.204.436-.408.668-.603.26-.232.529-.464.798-.686.241-.204.482-.408.733-.603.287-.232.574-.454.872-.677.278-.205.556-.408.844-.612.325-.232.659-.454.993-.677.315-.203.631-.408.956-.603a28.2 28.2 0 0 1 1.159-.686 35.767 35.767 0 0 1 2.467-1.28c.445-.213.9-.417 1.363-.612a37.227 37.227 0 0 1 14.542-2.94h280.021c1.54 0 2.93.622 3.932 1.633a5.513 5.513 0 0 1 1.632 3.932 5.557 5.557 0 0 1-5.564 5.565H770.474c-.936 0-1.864.047-2.773.139-1.354.13-2.671.361-3.96.677-.705.176-1.41.38-2.096.611-.622.205-1.234.427-1.836.677-.446.186-.9.39-1.336.603-.454.214-.9.436-1.345.686-.352.186-.695.38-1.039.603-.362.213-.723.436-1.075.677-.297.194-.594.399-.881.612-.306.223-.594.445-.89.677-.25.195-.492.399-.733.603-.26.223-.519.445-.77.686-.213.195-.426.399-.64.603-.232.223-.454.445-.668.677-.195.204-.38.408-.557.612a9.92 9.92 0 0 0-.575.677 7.591 7.591 0 0 0-.492.603c-.185.223-.352.455-.519.686-.157.203-.306.408-.445.612a25.33 25.33 0 0 0-.436.668 7.275 7.275 0 0 0-.38.612 9.526 9.526 0 0 0-.408.686c-.12.204-.232.399-.324.603-.13.223-.241.445-.352.677-.102.204-.204.408-.287.612a9.153 9.153 0 0 0-.306.677 8.412 8.412 0 0 0-.241.603 7.126 7.126 0 0 0-.26.687 6.61 6.61 0 0 0-.213.603 5.481 5.481 0 0 0-.213.677c-.074.204-.13.408-.186.612-.065.223-.12.454-.177.677a6.455 6.455 0 0 0-.139.603 8.324 8.324 0 0 0-.139.686 6.425 6.425 0 0 0-.111.603 8.166 8.166 0 0 0-.102.677 6.757 6.757 0 0 0-.083.612c-.028.223-.046.445-.065.677a6.63 6.63 0 0 0-.046.612 8.32 8.32 0 0 0-.028.677 4.297 4.297 0 0 0-.019.603c-.009.111-.009.213-.009.325 0 .121 0 .241.009.362 0 .203 0 .408.019.603 0 .232.009.454.028.677.009.204.028.408.056.612.009.232.028.454.065.677.018.204.046.408.083.603.018.232.056.463.102.686.028.204.065.409.111.613.037.223.083.445.139.668.037.204.083.408.139.612.056.232.111.455.176.686.055.204.121.408.185.603.065.232.13.454.222.677.056.204.121.409.204.603.074.232.167.454.26.686.074.204.157.399.25.603.093.232.195.454.306.677.083.204.185.408.287.612.111.232.223.454.352.677.103.204.214.398.325.603.13.232.26.464.408.686.121.204.241.408.38.603.139.232.288.454.445.677.139.204.288.408.445.612.157.232.334.455.51.677.158.204.315.408.492.603.186.232.38.464.593.686.176.214.362.408.557.612.213.222.436.454.658.667.213.214.436.418.649.612.25.241.51.464.779.686.241.204.483.408.733.602.297.232.593.464.899.677.288.213.584.417.882.612.352.241.704.463 1.075.676.344.214.695.417 1.057.603.436.25.89.473 1.345.686.436.213.89.417 1.345.603.612.25 1.234.474 1.864.678.704.241 1.419.445 2.152.612 1.391.344 2.828.566 4.293.677.752.074 1.503.103 2.272.103h279.048a5.498 5.498 0 0 1 3.934 1.629z"/><path fill="#E6E8F0" d="M910.72 748.476H766.956a1.504 1.504 0 0 1 0-3.008H910.72a1.505 1.505 0 0 1 0 3.008zM1011.246 777.022H848.632a1.504 1.504 0 1 1 0-3.008h162.615a1.505 1.505 0 0 1-.001 3.008zM910.72 763.057h-90.974a1.503 1.503 0 0 1 0-3.008h90.974a1.505 1.505 0 0 1 0 3.008zM806.49 763.057h-41.107a1.504 1.504 0 1 1 0-3.008h41.107c.831 0 1.504.673 1.504 1.504a1.505 1.505 0 0 1-1.504 1.504zM996.144 763.057h-41.106a1.504 1.504 0 1 1 0-3.008h41.106c.831 0 1.504.673 1.504 1.504a1.505 1.505 0 0 1-1.504 1.504zM970.705 749.98h-15.667a1.504 1.504 0 1 1 0-3.008h15.667a1.505 1.505 0 0 1 0 3.008zM834.358 777.022H818.69a1.504 1.504 0 1 1 0-3.008h15.668a1.504 1.504 0 0 1 0 3.008zM1029.921 763.057h-15.667a1.504 1.504 0 1 1 0-3.008h15.667a1.504 1.504 0 0 1 0 3.008z"/><path fill="#F1C3C4" d="M982.411 829.551c-4.877-24.713-7.54-44.921-6.862-62.723.481-13.056 1.772-25.041 2.822-37.092l-75.719-43.346-24.059-13.778h46.105s65.768 21.323 76.922 39.912c7.502 12.51 5.949 40.7 2.428 66.266-3.718 26.812-9.624 50.76-9.624 50.76h-12.013z"/><path fill="#F1CCCD" d="M926.974 812.15c7.653-12.781 23.686-58.139 24.486-68.806-26.446-9.691-62.773-3.239-82.397-24.346-13.373-14.384-6.604-30.265-4.772-46.041 11.026-.879 26.915-3.108 36.585-1.066 36.436 7.693 82.464 37.99 86.466 61.947 3.877 23.212-33.823 78.447-50.147 85.902-5.607 1.075-8.214-3.908-10.221-7.59z"/><path fill="#161F70" d="M926.974 812.15c-4.349 2.456-9.795 3.576-14.518 5.186-5.018 3.757-9.765 8.057-14.283 12.4.917.924 1.829 1.855 2.746 2.778 5.526-2.493 10.969-5.283 16.447-7.816-1.811 3.349-3.971 8.001-5.785 11.059-1.816 3.059-1.692 6.92-.445 9.201 3.287 6.015 15.288 21.683 21.53 18.513 6.241-3.171-5.09-18.514-2.794-24.762 2.296-6.248 4.726-12.807 7.323-18.968-3.328-2.741-6.674-5.197-10.221-7.591z"/><linearGradient id="s" x1="859.421" x2="1001.619" y1="707.2" y2="707.2" gradientUnits="userSpaceOnUse"><stop offset="0" stop-color="#5d64c2"/><stop offset="1" stop-color="#251978"/></linearGradient><path fill="url(#s)" d="M864.291 672.957s-12.611 27.187 2.755 46.547c13.817 17.407 84.412 23.84 84.412 23.84 5.283-14.73 39.714-17.767 50.161-30.82-4.049-6.481-28.438-28.551-73.627-41.47l-63.701 1.903z"/><path fill="#161F70" d="m982.223 829.003-3.882 12.693 2.43 19.73 3.907.19 3.563-17.272 6.308 11.468c1.699 3.088 4.248 5.614 7.744 6.067 9.218 1.195 27.232 1.506 27.978-4.543.767-6.216-15.786-6.421-22.404-11.797-6.885-5.593-13.19-17.037-13.19-17.037l-12.454.501zM905.265 552.302s11.572-9.807 4.187-21.982c-7.238-11.932-25.821-9.42-29.165-2.559-6.601-1.104-11.627 2.086-14.626 7.443-1.935 3.456-5.878 11.643-5.617 24.8.232 11.674-9.728 15.565-13.399 26.315-4.156 12.171 2.265 14.261-6.196 30.665-6.978 13.527 1.621 21.865 10.701 20.383 11.181-1.826 68.561-20.012 68.561-20.012 1.697-.004 9.524-18.085.556-27.054-14.085-14.082-6.302-28.72-15.002-37.999z"/><linearGradient id="t" x1="905.031" x2="950.955" y1="619.762" y2="619.762" gradientUnits="userSpaceOnUse"><stop offset="0" stop-color="#ff2e81"/><stop offset="1" stop-color="#ff7ace"/></linearGradient><path fill="url(#t)" d="M909.006 624.075c7.876 9.516 21.953 20.548 30.017 29.907 3.975-3.446 8.604-5.153 11.932-9.543-13.546-20.541-28.616-41.28-45.924-58.897 3.227 13.404.209 25.324 3.975 38.533z"/><linearGradient id="u" x1="861.313" x2="928.023" y1="627.904" y2="627.904" gradientUnits="userSpaceOnUse"><stop offset="0" stop-color="#ff2e81"/><stop offset="1" stop-color="#ff7ace"/></linearGradient><path fill="url(#u)" d="M928.022 673.728c-18.547-2.471-33.769 5.227-52.667 3.761a62.286 62.286 0 0 1-6.998-.94c-4.396-.875-7.458-4.899-6.999-9.36l6.233-60.798 5.49-18.699 1.268-4.286 9.83-5.272 10.81.373c16.12 6.998 27.236 25.938 17.46 46.867-9.492 20.338 15.573 48.354 15.573 48.354z"/><path fill="#F1CCCD" d="M895.462 578.671c0 6.118-5.682 6.118-11.38 0l1.338-7.395.827-4.6 8.569 4.284.631 7.546.015.165z"/><path fill="#DCE5ED" d="M880.933 621.764c-4.309 11.723-8.683 39.694-5.578 55.724a62.286 62.286 0 0 1-6.998-.94c-4.396-.875-7.458-4.899-6.999-9.36l6.233-60.798 5.49-18.699c4.833 3.805 7.608 8.525 7.608 8.525s5.537 11.267.244 25.548z"/><path fill="#F1CCCD" d="M932.941 652.902c-4.92 7.484-7.93 6.137-14.524 6.535-8.436.677-17.771 1.309-26.456.631-10.479-.818-25.92 2.086-34.447-4.875-8.526-6.961 2.278-41.312 4.797-49.039 3.345-10.26 7.091-14.733 12.02-22.852-2.211 7.865-4.421 15.376-6.633 23.102 1.388 11.963 2.555 23.993 3.791 35.954 8.471 1.144 14.818 1.274 23.761 2.793 7.894 1.341 18.688 3.805 26.906 6.05 7.25-3.942 15.706-5.783 10.785 1.701z"/><linearGradient id="v" x1="835.322" x2="926.46" y1="677.394" y2="567.008" gradientUnits="userSpaceOnUse"><stop offset="0" stop-color="#ff2e81"/><stop offset="1" stop-color="#ff7ace"/></linearGradient><path fill="url(#v)" d="M895.556 644.719c-.883 4.78-2.494 11.154-3.732 16.12-11.083.52-24.42 2.706-34.753-5.993-10.334-8.698-3.377-43.932.797-53.57 4.482-10.346 8.219-13.644 16.491-18.017 15.828 15.913.313 36.624-1.717 57.722 7.841.998 15.114 2.469 22.914 3.738z"/><path fill="#E3AFB0" d="M895.246 576.105c-.645.416-2.266.787-3.159.633-3.554-.611-5.134-2.245-6.667-5.462l.827-4.6 8.569 4.284.43 5.145z"/><path fill="#F1CCCD" d="M905.465 535.715c-10.956-2.115-9.289 12.06-20.354 13.568 0 0-4.013-5.052-7.007-2.002-3.613 3.681 3.003 9.231 3.003 9.231.587 9.695 7.563 17.387 14.792 15.571 16.44-4.13 9.566-36.368 9.566-36.368z"/><linearGradient id="w" x1="907.012" x2="991.172" y1="663.144" y2="663.144" gradientUnits="userSpaceOnUse"><stop offset="0" stop-color="#c7e1ff"/><stop offset="1" stop-color="#c4e6ff"/></linearGradient><path fill="url(#w)" d="m907.266 681.055 12.797-38.415a7.432 7.432 0 0 1 6.495-3.821h57.176c5.377 0 8.974 5.534 6.789 10.447l-14.869 33.454a7.998 7.998 0 0 1-7.309 4.749H911.89c-3.326 0-5.675-3.258-4.624-6.414z"/><circle cx="951.315" cy="665.697" r="5.426" fill="#FFF"/><path fill="#DCE5ED" d="M953.75 285.599H731.618c-12.415 0-22.483 10.062-22.483 22.477v45.719h.04v93.217h-.04v2.162c0 12.415 10.068 22.483 22.483 22.483h168.906c6.498 8.498 23.694 29.711 23.694 29.711l13.338-29.711h16.195c12.415 0 22.483-10.067 22.483-22.483V308.076c-.001-12.415-10.069-22.477-22.484-22.477z"/><linearGradient id="x" x1="852.564" x2="852.564" y1="230.213" y2="584.959" gradientUnits="userSpaceOnUse"><stop offset="0" stop-color="#abdcff"/><stop offset="1" stop-color="#73b2ff"/></linearGradient><path fill="url(#x)" d="M963.63 279.305H741.498c-12.415 0-22.483 10.062-22.483 22.477v45.719h.04v93.217h-.04v2.162c0 12.415 10.068 22.483 22.483 22.483h168.906c6.498 8.498 23.694 29.711 23.694 29.711l13.338-29.711h16.195c12.415 0 22.483-10.068 22.483-22.483V301.782c-.001-12.415-10.069-22.477-22.484-22.477z"/><path fill="#FFF" d="M756.093 311.184H750.7l-.749 2.537h-4.85l5.777-15.371h5.181l5.776 15.371h-4.974l-.768-2.537zm-.985-3.324-1.697-5.526-1.679 5.526h3.376zM772.614 298.35h4.739v9.158a7.71 7.71 0 0 1-.425 2.572 5.557 5.557 0 0 1-1.332 2.117c-.605.604-1.239 1.029-1.903 1.273-.923.342-2.031.513-3.324.513-.748 0-1.564-.052-2.448-.157-.884-.105-1.624-.312-2.218-.624a5.54 5.54 0 0 1-1.63-1.325c-.493-.573-.83-1.163-1.012-1.771-.294-.978-.44-1.844-.44-2.598v-9.158h4.739v9.376c0 .838.232 1.493.697 1.964.465.472 1.11.707 1.934.707.818 0 1.459-.232 1.924-.697.465-.464.697-1.123.697-1.975v-9.375zM779.419 298.35h14.438v3.796h-4.844v11.575h-4.75v-11.575h-4.844v-3.796zM796.027 298.35h4.75v5.379h5.19v-5.379h4.771v15.371h-4.771v-6.217h-5.19v6.217h-4.75V298.35zM813.882 298.35h12.729v3.282h-7.969v2.443h7.392v3.135h-7.392v3.03h8.199v3.481h-12.959V298.35zM829.431 298.35h4.435l5.788 8.504v-8.504h4.477v15.371h-4.477l-5.756-8.44v8.44h-4.467V298.35zM846.207 298.35h14.438v3.796h-4.844v11.575h-4.75v-11.575h-4.844v-3.796zM862.983 298.35h4.76v15.371h-4.76V298.35zM881.384 307.43l4.162 1.258c-.28 1.167-.72 2.142-1.321 2.925a5.732 5.732 0 0 1-2.239 1.772c-.891.399-2.025.598-3.402.598-1.671 0-3.035-.243-4.094-.728-1.059-.485-1.973-1.339-2.742-2.562-.769-1.222-1.153-2.787-1.153-4.694 0-2.543.676-4.497 2.029-5.862 1.353-1.366 3.266-2.049 5.74-2.049 1.936 0 3.458.392 4.566 1.174 1.108.783 1.931 1.985 2.469 3.607l-4.194.933c-.147-.468-.301-.811-.461-1.027a2.747 2.747 0 0 0-.975-.839 2.8 2.8 0 0 0-1.29-.294c-1.076 0-1.901.433-2.474 1.299-.433.642-.65 1.651-.65 3.026 0 1.704.258 2.871.776 3.503.517.632 1.244.948 2.181.948.909 0 1.595-.255 2.06-.766.465-.509.802-1.25 1.012-2.222zM897.303 311.184h-5.392l-.749 2.537h-4.85l5.777-15.371h5.181l5.776 15.371h-4.974l-.769-2.537zm-.986-3.324-1.697-5.526-1.679 5.526h3.376zM901.997 298.35h14.438v3.796h-4.844v11.575h-4.75v-11.575h-4.844v-3.796zM918.772 298.35h4.76v15.371h-4.76V298.35zM926.342 306.046c0-2.509.699-4.463 2.097-5.861 1.398-1.398 3.345-2.097 5.84-2.097 2.558 0 4.529.687 5.914 2.06 1.384 1.374 2.076 3.298 2.076 5.772 0 1.796-.302 3.27-.907 4.419a6.462 6.462 0 0 1-2.621 2.684c-1.143.64-2.567.959-4.272.959-1.734 0-3.168-.276-4.304-.828-1.136-.552-2.057-1.426-2.763-2.621-.707-1.195-1.06-2.69-1.06-4.487zm4.75.021c0 1.552.288 2.667.865 3.345.577.678 1.361 1.017 2.354 1.017 1.021 0 1.81-.332 2.37-.996.559-.664.839-1.856.839-3.575 0-1.447-.292-2.504-.875-3.172-.584-.667-1.375-1.001-2.375-1.001-.958 0-1.727.339-2.307 1.017-.581.678-.871 1.799-.871 3.365zM944.859 298.35h4.435l5.788 8.504v-8.504h4.477v15.371h-4.477l-5.756-8.44v8.44h-4.467V298.35zM863.764 331.085v3.903a1.406 1.406 0 0 1-2.812 0v-3.553a3.424 3.424 0 0 0-3.424-3.424h-7.974a3.425 3.425 0 0 0-3.425 3.425v12.018h-2.812v-12.37a5.888 5.888 0 0 1 5.888-5.888h8.672a5.89 5.89 0 0 1 5.887 5.889z"/><path fill="#FFF" d="M870.154 343.262v4.097c0 4.161-1.859 7.927-4.866 10.654-3.007 2.727-7.16 4.413-11.749 4.413-9.175 0-16.613-6.746-16.613-15.067v-4.097c0-.496.09-.974.257-1.42.115-.311.268-.605.453-.882.859-1.277 2.409-2.131 4.18-2.131h23.45c1.77 0 3.321.854 4.18 2.131.184.277.338.571.453.882.165.446.255.923.255 1.42z"/><circle cx="853.54" cy="350.627" r="6.383" fill="#FFF"/><linearGradient id="y" x1="847.983" x2="859.097" y1="350.627" y2="350.627" gradientUnits="userSpaceOnUse"><stop offset="0" stop-color="#abdcff"/><stop offset="1" stop-color="#73b2ff"/></linearGradient><circle cx="853.54" cy="350.627" r="5.557" fill="url(#y)"/><path fill="#FFF" d="M855.389 348.762a1.85 1.85 0 0 0-1.951-1.847c-.95.051-1.72.841-1.748 1.793-.02.694.344 1.303.894 1.636l-.336 4.234a.299.299 0 0 0 .298.322h1.986a.299.299 0 0 0 .298-.322l-.336-4.234c.536-.324.895-.91.895-1.582z"/><linearGradient id="z" x1="837.182" x2="869.897" y1="341.4" y2="341.4" gradientUnits="userSpaceOnUse"><stop offset="0" stop-color="#abdcff"/><stop offset="1" stop-color="#73b2ff"/></linearGradient><path fill="url(#z)" d="M869.897 341.841h-32.715c.115-.311.268-.605.453-.882h31.81c.183.277.337.571.452.882z"/><path fill="#FFF" d="M878.248 421.36h-51.125a6.765 6.765 0 0 0-6.765 6.765v10.188a6.765 6.765 0 0 0 6.765 6.765h51.125a6.765 6.765 0 0 0 6.765-6.765v-10.188a6.765 6.765 0 0 0-6.765-6.765zM793.142 374.985l-18.116.06a5.115 5.115 0 0 0-5.099 5.133l.06 18.116a5.115 5.115 0 0 0 5.133 5.099l18.116-.06a5.116 5.116 0 0 0 5.099-5.133l-.06-18.116a5.117 5.117 0 0 0-5.133-5.099zM839.866 374.829l-18.116.06a5.115 5.115 0 0 0-5.099 5.133l.06 18.116a5.115 5.115 0 0 0 5.133 5.099l18.116-.06a5.115 5.115 0 0 0 5.099-5.133L845 379.929a5.118 5.118 0 0 0-5.134-5.1zM886.591 374.674l-18.116.06a5.115 5.115 0 0 0-5.099 5.133l.06 18.116a5.115 5.115 0 0 0 5.133 5.099l18.116-.06a5.115 5.115 0 0 0 5.099-5.133l-.06-18.116a5.115 5.115 0 0 0-5.133-5.099zM933.315 374.518l-18.116.06a5.115 5.115 0 0 0-5.099 5.133l.06 18.116a5.115 5.115 0 0 0 5.133 5.099l18.116-.06a5.115 5.115 0 0 0 5.099-5.133l-.06-18.116a5.115 5.115 0 0 0-5.133-5.099z"/><path fill="#5780C7" d="M832.409 438.718V428.11h3.654c.825 0 1.454.051 1.889.152.608.14 1.126.393 1.556.76a4.32 4.32 0 0 1 1.255 1.812c.277.736.416 1.576.416 2.522 0 .805-.094 1.519-.282 2.142-.188.622-.429 1.137-.723 1.545a3.828 3.828 0 0 1-.966.962 3.94 3.94 0 0 1-1.266.532 7.206 7.206 0 0 1-1.704.181h-3.829zm1.404-1.252h2.265c.699 0 1.248-.065 1.646-.195.398-.13.715-.314.951-.55.333-.333.592-.78.778-1.342.185-.562.278-1.243.278-2.044 0-1.109-.182-1.962-.546-2.558-.365-.596-.807-.995-1.328-1.197-.376-.145-.981-.217-1.816-.217h-2.229v8.103zm8.871-3.915c0-1.76.473-3.139 1.418-4.135s2.166-1.494 3.661-1.494c.979 0 1.862.234 2.648.702a4.588 4.588 0 0 1 1.798 1.957c.413.837.619 1.786.619 2.847 0 1.076-.217 2.038-.651 2.887-.434.849-1.049 1.492-1.845 1.928a5.274 5.274 0 0 1-2.576.655c-.998 0-1.891-.241-2.677-.724a4.656 4.656 0 0 1-1.787-1.975 5.983 5.983 0 0 1-.608-2.648zm1.447.022c0 1.278.344 2.285 1.031 3.021.687.736 1.549 1.104 2.587 1.104 1.056 0 1.926-.372 2.608-1.114.682-.743 1.024-1.797 1.024-3.162 0-.863-.146-1.617-.438-2.261a3.366 3.366 0 0 0-1.28-1.498 3.47 3.47 0 0 0-1.892-.532c-.994 0-1.849.341-2.565 1.024-.717.682-1.075 1.822-1.075 3.418zm10.491 5.145V428.11h1.44l5.572 8.328v-8.328h1.346v10.607h-1.44l-5.571-8.335v8.335h-1.347zm10.744 0V428.11h7.67v1.252h-6.266v3.249h5.868v1.245h-5.868v3.61h6.512v1.252h-7.916zM781.125 384.686l-5.831-1.006c.485-1.788 1.416-3.158 2.794-4.111 1.378-.952 3.329-1.428 5.854-1.428 2.898 0 4.993.52 6.285 1.56 1.292 1.04 1.939 2.347 1.939 3.921 0 .923-.263 1.759-.788 2.507-.525.748-1.318 1.404-2.378 1.968.858.204 1.515.442 1.969.714a4.705 4.705 0 0 1 1.719 1.727c.409.714.613 1.567.613 2.558 0 1.244-.338 2.437-1.015 3.579-.677 1.142-1.651 2.021-2.923 2.638s-2.943.926-5.013.926c-2.019 0-3.612-.228-4.778-.685-1.166-.457-2.126-1.125-2.878-2.004-.752-.879-1.33-1.985-1.734-3.316l6.164-.787c.242 1.195.618 2.024 1.128 2.485.51.462 1.159.692 1.946.692.828 0 1.517-.292 2.067-.875.55-.583.825-1.36.825-2.332 0-.991-.265-1.759-.795-2.303s-1.249-.816-2.158-.816c-.485 0-1.151.117-1.999.35l.318-4.242c.343.049.611.073.803.073.808 0 1.482-.248 2.022-.743.54-.496.81-1.083.81-1.764 0-.651-.202-1.171-.606-1.56-.404-.389-.959-.583-1.666-.583-.727 0-1.318.211-1.772.634-.453.422-.761 1.164-.922 2.223zM823.096 378.87h18.008v4.009c-1.565 1.361-2.873 2.833-3.923 4.417-1.272 1.924-2.277 4.067-3.014 6.428-.586 1.837-.979 4.009-1.181 6.516h-6.149c.485-3.489 1.247-6.414 2.287-8.775 1.04-2.361 2.686-4.888 4.937-7.58h-10.965v-5.015zM868.576 378.87h18.008v4.009c-1.565 1.361-2.873 2.833-3.923 4.417-1.272 1.924-2.277 4.067-3.014 6.428-.586 1.837-.979 4.009-1.181 6.516h-6.149c.485-3.489 1.247-6.414 2.287-8.775 1.04-2.361 2.686-4.888 4.937-7.58h-10.965v-5.015zM917.058 378.167h14.646v4.737h-9.92l-.53 3.207a10.91 10.91 0 0 1 2.037-.7 8.83 8.83 0 0 1 1.992-.233c2.221 0 4.023.646 5.407 1.939 1.383 1.293 2.075 2.92 2.075 4.883 0 1.38-.356 2.706-1.068 3.979a7.113 7.113 0 0 1-3.029 2.915c-1.308.671-2.981 1.006-5.021 1.006-1.464 0-2.719-.134-3.764-.401s-1.934-.666-2.666-1.195c-.732-.53-1.325-1.13-1.78-1.8s-.833-1.506-1.136-2.507l6.24-.656c.151.962.505 1.693 1.06 2.194.555.501 1.217.751 1.984.751.858 0 1.568-.313 2.128-.94s.841-1.562.841-2.806c0-1.273-.283-2.206-.848-2.799-.566-.593-1.318-.889-2.257-.889a3.77 3.77 0 0 0-1.727.423c-.414.204-.869.574-1.363 1.108l-5.255-.729 1.954-11.487z"/><linearGradient id="A" x1="548.552" x2="384.596" y1="736.304" y2="927.745" gradientUnits="userSpaceOnUse"><stop offset=".189" stop-color="#ffbe69"/><stop offset="1" stop-color="#ff8f5c"/></linearGradient><path fill="url(#A)" d="m340.034 783.497 107.611-82.347c4.385-3.355 10.836-3.358 15.225-.006l107.822 82.353c2.62 2.001 4.129 4.932 4.129 8.019V898.71c0 5.816-5.255 10.531-11.737 10.531H347.65c-6.482 0-11.737-4.715-11.737-10.531v-107.2c0-3.083 1.506-6.012 4.121-8.013z"/><path fill="#FFF" d="M382.78 884.896h136.033a2.395 2.395 0 0 0 2.395-2.395V713.245a2.394 2.394 0 0 0-2.395-2.394H410.295c-.635 0-1.244.252-1.693.701l-27.516 27.509a2.396 2.396 0 0 0-.702 1.694v141.747a2.396 2.396 0 0 0 2.396 2.394z"/><path fill="#CED4F0" d="m380.385 739.762 28.919-28.911v28.911zM396.156 872.162h111.797c.724 0 1.311.567 1.311 1.267s-.587 1.267-1.311 1.267H396.156c-.724 0-1.311-.567-1.311-1.267-.001-.7.586-1.267 1.311-1.267zM474.491 847.391h33.462c.724 0 1.311.567 1.311 1.267s-.587 1.267-1.311 1.267h-33.462c-.724 0-1.311-.567-1.311-1.267s.587-1.267 1.311-1.267zM415.388 847.391h51.843c.724 0 1.311.567 1.311 1.267s-.587 1.267-1.311 1.267h-51.843c-.724 0-1.311-.567-1.311-1.267-.001-.7.586-1.267 1.311-1.267zM452.322 860.48h55.631c.724 0 1.311.567 1.311 1.267s-.587 1.267-1.311 1.267h-55.631c-.724 0-1.311-.567-1.311-1.267-.001-.7.586-1.267 1.311-1.267zM396.156 860.48h42.835c.724 0 1.311.567 1.311 1.267s-.587 1.267-1.311 1.267h-42.835c-.724 0-1.311-.567-1.311-1.267-.001-.7.586-1.267 1.311-1.267zM395.986 847.391h10.879c.63 0 1.141.494 1.141 1.102 0 .609-.511 1.102-1.141 1.102h-10.879c-.63 0-1.141-.494-1.141-1.102-.001-.608.51-1.102 1.141-1.102zM396.156 834.302h111.797c.724 0 1.311.567 1.311 1.267s-.587 1.267-1.311 1.267H396.156c-.724 0-1.311-.567-1.311-1.267-.001-.7.586-1.267 1.311-1.267zM474.491 809.531h33.462c.724 0 1.311.567 1.311 1.267s-.587 1.267-1.311 1.267h-33.462c-.724 0-1.311-.567-1.311-1.267s.587-1.267 1.311-1.267zM415.388 809.531h51.843c.724 0 1.311.567 1.311 1.267s-.587 1.267-1.311 1.267h-51.843c-.724 0-1.311-.567-1.311-1.267-.001-.7.586-1.267 1.311-1.267zM452.322 822.621h55.631c.724 0 1.311.567 1.311 1.266 0 .7-.587 1.267-1.311 1.267h-55.631c-.724 0-1.311-.567-1.311-1.267-.001-.699.586-1.266 1.311-1.266zM396.156 822.621h42.835c.724 0 1.311.567 1.311 1.266 0 .7-.587 1.267-1.311 1.267h-42.835c-.724 0-1.311-.567-1.311-1.267-.001-.699.586-1.266 1.311-1.266zM395.986 809.531h10.879c.63 0 1.141.494 1.141 1.102 0 .609-.511 1.102-1.141 1.102h-10.879c-.63 0-1.141-.493-1.141-1.102-.001-.608.51-1.102 1.141-1.102zM396.156 796.443h111.797c.724 0 1.311.567 1.311 1.267s-.587 1.267-1.311 1.267H396.156c-.724 0-1.311-.567-1.311-1.267-.001-.701.586-1.267 1.311-1.267zM474.491 771.672h33.462c.724 0 1.311.567 1.311 1.267s-.587 1.267-1.311 1.267h-33.462c-.724 0-1.311-.567-1.311-1.267s.587-1.267 1.311-1.267zM415.388 771.672h51.843c.724 0 1.311.567 1.311 1.267s-.587 1.267-1.311 1.267h-51.843c-.724 0-1.311-.567-1.311-1.267-.001-.7.586-1.267 1.311-1.267zM452.322 784.761h55.631c.724 0 1.311.567 1.311 1.267s-.587 1.267-1.311 1.267h-55.631c-.724 0-1.311-.567-1.311-1.267-.001-.7.586-1.267 1.311-1.267zM396.156 784.761h42.835c.724 0 1.311.567 1.311 1.267s-.587 1.267-1.311 1.267h-42.835c-.724 0-1.311-.567-1.311-1.267-.001-.7.586-1.267 1.311-1.267zM395.986 771.672h10.879c.63 0 1.141.494 1.141 1.102 0 .609-.511 1.102-1.141 1.102h-10.879c-.63 0-1.141-.493-1.141-1.102-.001-.609.51-1.102 1.141-1.102zM396.156 758.583h111.797c.724 0 1.311.567 1.311 1.267s-.587 1.267-1.311 1.267H396.156c-.724 0-1.311-.567-1.311-1.267-.001-.7.586-1.267 1.311-1.267zM474.491 733.812h33.462c.724 0 1.311.567 1.311 1.267s-.587 1.267-1.311 1.267h-33.462c-.724 0-1.311-.567-1.311-1.267s.587-1.267 1.311-1.267zM415.388 733.812h51.844c.724 0 1.311.567 1.311 1.267s-.587 1.267-1.311 1.267h-51.843c-.724 0-1.311-.567-1.311-1.267-.002-.7.585-1.267 1.31-1.267zM452.322 746.901h55.631c.724 0 1.311.567 1.311 1.267 0 .699-.587 1.266-1.311 1.266h-55.631c-.724 0-1.311-.567-1.311-1.266-.001-.7.586-1.267 1.311-1.267zM396.156 746.901h42.835c.724 0 1.311.567 1.311 1.267 0 .699-.587 1.266-1.311 1.266h-42.835c-.724 0-1.311-.567-1.311-1.266-.001-.7.586-1.267 1.311-1.267z"/><linearGradient id="B" x1="418.214" x2="525.781" y1="790.413" y2="947.262" gradientUnits="userSpaceOnUse"><stop offset=".189" stop-color="#ffbe69"/><stop offset="1" stop-color="#ff8f5c"/></linearGradient><path fill="url(#B)" d="M574.82 784.69v119.492c0 2.199-1.027 4.181-2.675 5.583a7.904 7.904 0 0 1-.575.449c-1.463 1.043-3.317 1.665-5.329 1.665H344.266c-2.011 0-3.866-.622-5.327-1.665a7.657 7.657 0 0 1-.465-.358c-1.712-1.406-2.786-3.427-2.786-5.675V783.375c0-6.231 7.821-9.881 13.506-6.302l85.997 54.112 5.251 3.304.051.032 3.199 2.013 6.684 4.207c2.931 1.845 6.835 1.862 9.786.041l6.762-4.171 3.345-2.065 1.633-1.007 3.715-2.291 85.76-52.899c5.696-3.513 13.443.144 13.443 6.341z"/><path fill="#F7E4C3" d="m475.618 831.247-3.715 2.291-1.633 1.007 95.07 77.335h.9c2.013 0 3.866-.622 5.329-1.665.198-.143.391-.292.575-.449l-96.526-78.519zm-40.426-.063-96.718 78.673c.149.125.305.244.465.358 1.462 1.043 3.316 1.665 5.327 1.665h1.126l95.102-77.359-.051-.032-5.251-3.305z"/><path fill="#FFF" d="m603.892 623.275-12.059-2.08c1.002-3.698 2.929-6.531 5.779-8.501 2.85-1.969 6.886-2.954 12.106-2.954 5.993 0 10.326 1.075 12.999 3.226s4.009 4.853 4.009 8.109c0 1.91-.543 3.638-1.629 5.185-1.086 1.548-2.725 2.904-4.918 4.07 1.775.422 3.132.915 4.072 1.477 1.524.904 2.709 2.095 3.555 3.572.846 1.477 1.269 3.241 1.269 5.291 0 2.573-.7 5.04-2.099 7.401-1.399 2.362-3.414 4.18-6.045 5.456-2.631 1.276-6.087 1.914-10.368 1.914-4.177 0-7.47-.472-9.882-1.417-2.412-.944-4.396-2.326-5.951-4.145-1.556-1.819-2.751-4.104-3.586-6.858l12.748-1.628c.501 2.472 1.279 4.186 2.334 5.14 1.054.955 2.396 1.432 4.025 1.432 1.712 0 3.137-.603 4.276-1.809 1.138-1.206 1.707-2.814 1.707-4.823 0-2.05-.548-3.637-1.644-4.763-1.096-1.125-2.584-1.688-4.464-1.688-1.002 0-2.38.241-4.135.724l.658-8.773c.71.101 1.263.151 1.66.151 1.67 0 3.064-.512 4.182-1.537 1.117-1.025 1.676-2.241 1.676-3.648 0-1.346-.418-2.422-1.253-3.226-.835-.804-1.984-1.206-3.445-1.206-1.503 0-2.725.437-3.665 1.311-.941.873-1.579 2.406-1.912 4.597zM634.525 610.493h37.243v8.29c-3.237 2.814-5.941 5.859-8.113 9.134-2.631 3.979-4.709 8.411-6.233 13.294-1.211 3.798-2.026 8.29-2.443 13.475h-12.717c1.002-7.215 2.579-13.264 4.73-18.148 2.151-4.884 5.554-10.109 10.211-15.676h-22.678v-10.369zM677.312 610.493h37.243v8.29c-3.237 2.814-5.941 5.859-8.113 9.134-2.631 3.979-4.709 8.411-6.233 13.294-1.211 3.798-2.026 8.29-2.443 13.475h-12.717c1.002-7.215 2.579-13.264 4.73-18.148 2.151-4.884 5.554-10.109 10.211-15.676h-22.678v-10.369zM725.048 610.493h30.289v9.797h-20.516l-1.096 6.632a22.578 22.578 0 0 1 4.213-1.447 18.243 18.243 0 0 1 4.119-.482c4.594 0 8.321 1.337 11.182 4.009 2.861 2.673 4.291 6.04 4.291 10.099 0 2.854-.736 5.597-2.208 8.23-1.472 2.633-3.561 4.643-6.265 6.029-2.704 1.387-6.166 2.08-10.383 2.08-3.028 0-5.622-.277-7.784-.829-2.161-.553-3.999-1.376-5.513-2.472-1.514-1.095-2.741-2.336-3.68-3.723-.94-1.387-1.723-3.115-2.349-5.185l12.905-1.357c.313 1.99 1.044 3.502 2.193 4.537 1.148 1.035 2.516 1.552 4.103 1.552 1.775 0 3.242-.648 4.401-1.944 1.159-1.296 1.738-3.23 1.738-5.803 0-2.633-.585-4.562-1.754-5.788-1.17-1.226-2.725-1.839-4.667-1.839-1.232 0-2.423.292-3.571.874-.856.422-1.796 1.186-2.819 2.291l-10.869-1.507 4.04-23.754z"/><linearGradient id="C" x1="378.409" x2="390.269" y1="679.191" y2="686.981" gradientUnits="userSpaceOnUse"><stop offset="0" stop-color="#ff2e81"/><stop offset="1" stop-color="#ff7ace"/></linearGradient><path fill="url(#C)" d="M388.883 681.146c.298.481.393 1.061.254 1.632a2.123 2.123 0 0 1-1.484 1.551l-7.193 2.098a2.126 2.126 0 0 1-2.086-.51 2.128 2.128 0 0 1-.601-2.061l1.78-7.278a2.123 2.123 0 0 1 1.484-1.551 2.124 2.124 0 0 1 2.085.51l5.413 5.18c.136.131.253.275.348.429zm-9.413 3.456a.446.446 0 0 0 .516.201l7.193-2.098a.447.447 0 0 0 .314-.328.446.446 0 0 0-.127-.436l-5.413-5.18a.446.446 0 0 0-.441-.108.445.445 0 0 0-.314.328l-1.779 7.278a.428.428 0 0 0 .051.343z"/><linearGradient id="D" x1="992.601" x2="1004.462" y1="274.287" y2="282.078" gradientUnits="userSpaceOnUse"><stop offset="0" stop-color="#ff2e81"/><stop offset="1" stop-color="#ff7ace"/></linearGradient><path fill="url(#D)" d="M1003.075 276.242c.298.481.393 1.061.254 1.632a2.123 2.123 0 0 1-1.484 1.551l-7.193 2.098a2.124 2.124 0 0 1-2.085-.51 2.128 2.128 0 0 1-.601-2.061l1.779-7.278a2.123 2.123 0 0 1 1.484-1.551 2.126 2.126 0 0 1 2.085.51l5.413 5.18c.137.131.253.275.348.429zm-9.413 3.456a.446.446 0 0 0 .516.201l7.193-2.098a.447.447 0 0 0 .314-.328.446.446 0 0 0-.127-.436l-5.413-5.18a.446.446 0 0 0-.441-.108.445.445 0 0 0-.314.328l-1.779 7.278a.432.432 0 0 0 .051.343z"/><linearGradient id="E" x1="392.543" x2="400.892" y1="280.315" y2="288.973" gradientUnits="userSpaceOnUse"><stop offset=".189" stop-color="#ffbe69"/><stop offset="1" stop-color="#ff8f5c"/></linearGradient><path fill="url(#E)" d="m398.822 284.576 2.646-2.646a1.537 1.537 0 1 0-2.175-2.175l-2.646 2.646-2.646-2.646a1.537 1.537 0 1 0-2.175 2.175l2.646 2.646-2.641 2.641a1.537 1.537 0 1 0 2.174 2.175l2.641-2.641 2.641 2.641a1.534 1.534 0 0 0 2.174 0c.601-.6.601-1.574 0-2.175l-2.639-2.641z"/><linearGradient id="F" x1="1078.146" x2="1088.688" y1="456.786" y2="456.786" gradientUnits="userSpaceOnUse"><stop offset=".189" stop-color="#ffbe69"/><stop offset="1" stop-color="#ff8f5c"/></linearGradient><path fill="url(#F)" d="m1085.591 456.789 2.646-2.646a1.537 1.537 0 1 0-2.175-2.175l-2.646 2.646-2.646-2.646a1.537 1.537 0 1 0-2.175 2.175l2.646 2.646-2.641 2.641a1.537 1.537 0 1 0 2.174 2.175l2.641-2.641 2.641 2.641a1.534 1.534 0 0 0 2.174 0c.601-.6.601-1.574 0-2.175l-2.639-2.641z"/><linearGradient id="G" x1="255.634" x2="267.719" y1="405.574" y2="405.574" gradientUnits="userSpaceOnUse"><stop offset="0" stop-color="#5d64c2"/><stop offset="1" stop-color="#251978"/></linearGradient><path fill="url(#G)" d="M261.677 411.616a6.05 6.05 0 0 1-6.043-6.043 6.05 6.05 0 0 1 6.043-6.043 6.05 6.05 0 0 1 6.043 6.043 6.05 6.05 0 0 1-6.043 6.043zm0-10.194a4.157 4.157 0 0 0-4.152 4.152 4.157 4.157 0 0 0 4.152 4.152 4.157 4.157 0 0 0 4.152-4.152 4.157 4.157 0 0 0-4.152-4.152z"/><linearGradient id="H" x1="998.276" x2="1010.362" y1="590.313" y2="590.313" gradientUnits="userSpaceOnUse"><stop offset="0" stop-color="#5d64c2"/><stop offset="1" stop-color="#251978"/></linearGradient><path fill="url(#H)" d="M1004.319 596.356a6.05 6.05 0 0 1-6.043-6.043 6.05 6.05 0 0 1 6.043-6.043 6.05 6.05 0 0 1 6.043 6.043 6.05 6.05 0 0 1-6.043 6.043zm0-10.195a4.157 4.157 0 0 0-4.152 4.152 4.157 4.157 0 0 0 4.152 4.152 4.157 4.157 0 0 0 4.152-4.152 4.157 4.157 0 0 0-4.152-4.152z"/></svg>