<svg id="Layer_1" data-name="Layer 1" xmlns="http://www.w3.org/2000/svg" viewBox="0 0 122.88 72.45"><title>businessman-with-briefcase</title><path d="M95.25,50.14h-4.4a.22.22,0,0,0-.18.08.23.23,0,0,0-.08.18v9.29a.25.25,0,0,0,.08.18.23.23,0,0,0,.18.07h4.4a.29.29,0,0,0,.18-.07.24.24,0,0,0,.07-.18V50.4a.25.25,0,0,0-.07-.18.21.21,0,0,0-.18-.08ZM24.49,26.43a3.32,3.32,0,0,0-1.74.46,1.44,1.44,0,0,0-.5.57,2.07,2.07,0,0,0-.16.93,8.24,8.24,0,0,0,1.64,4v0h0l3.46,5.47A29.35,29.35,0,0,0,31.83,44a9.48,9.48,0,0,0,6.6,2.66,9.71,9.71,0,0,0,7-2.77,30.58,30.58,0,0,0,4.77-6.5L54.07,31c.73-1.65,1-2.76.82-3.4-.1-.39-.52-.58-1.25-.61h-.47l-.54,0a.76.76,0,0,1-.3,0,5.45,5.45,0,0,1-1.06-.05L52.6,21c-9.86,1.56-17.24-5.77-27.67-1.46l.75,6.93a6.49,6.49,0,0,1-1.19-.05Zm6.24,29.79c-1.9-2.16-2.06-4.43,0-6.83a19.79,19.79,0,0,1,6.45,3,3.24,3.24,0,0,1,1.52-.12c2.09-1.51,4.79-2.11,7.13-3.23,2.79,2.71,2.49,5.2-.25,7.52a19.23,19.23,0,0,1-4.71-1.76,4.08,4.08,0,0,1-.31,1.34l3,10.56C46,61.71,48.4,56.79,49,51.18,48,50.09,47,48.64,46.18,47.39l-.72-1a11.39,11.39,0,0,1-7,2.23,11.22,11.22,0,0,1-7.49-2.8l0,.07c-.32.44-.68,1-1.07,1.54-.74,1.08-1.56,2.28-2.36,3.29,1,6.51,3.54,11.09,5.8,16l3-10.55a3.89,3.89,0,0,1-.6-1.73,17.6,17.6,0,0,1-5,1.86ZM46.67,45.35c.24.35.51.75.8,1.16.53.78,1.12,1.65,1.7,2.44,4,3.48,15.58,4.2,19.9,6.61a11.36,11.36,0,0,1,3.62,3.06c2.49,3.29,2.7,5.89,3.6,9.93-.22,2.34-1.55,3.7-4.18,3.9H4.18c-2.62-.2-4-1.55-4.18-3.9.9-4,1.11-6.63,3.61-9.93a11.25,11.25,0,0,1,3.62-3.06c4.09-2.29,14.71-3.05,19.23-6.1.7-.92,1.43-2,2.09-3,.4-.59.78-1.15,1.1-1.58a.58.58,0,0,1,.19-.19,34.28,34.28,0,0,1-4.29-5.82L22.1,33.44a10,10,0,0,1-2-5,4,4,0,0,1,.33-1.79,3.36,3.36,0,0,1,1.19-1.38,4.14,4.14,0,0,1,.84-.43A84.62,84.62,0,0,1,22.35,15a12.34,12.34,0,0,1,.42-2.23,13.18,13.18,0,0,1,5.82-7.42A16.32,16.32,0,0,1,31.73,3.8c2-.72,1-3.75,3.21-3.8,5.15-.12,13.58,4.24,16.87,7.79a13.32,13.32,0,0,1,3.37,8.45L55,25.18h0a2.51,2.51,0,0,1,1.82,1.87c.28,1.09,0,2.62-.95,4.71h0a.54.54,0,0,0-.05.11l-3.93,6.47a32,32,0,0,1-5.11,6.91l-.08.1ZM66.61,30.42H81.9V26a2.39,2.39,0,0,1,.7-1.69,2.44,2.44,0,0,1,1.7-.71h17.5a2.41,2.41,0,0,1,2.4,2.4v4.39h15.29a3.41,3.41,0,0,1,3.39,3.38V42A74.76,74.76,0,0,1,111,48.68a66.15,66.15,0,0,1-12.69,4.24V49.65a2.71,2.71,0,0,0-2.73-2.73H90.49a2.7,2.7,0,0,0-1.93.8,2.74,2.74,0,0,0-.8,1.93v3.2a67.19,67.19,0,0,1-12.37-4.17,75.84,75.84,0,0,1-12.17-6.91v-8a3.31,3.31,0,0,1,1-2.38,3.35,3.35,0,0,1,2.39-1Zm56.27,16.43V69.06a3.31,3.31,0,0,1-1,2.39,3.36,3.36,0,0,1-2.39,1H83.89a12.55,12.55,0,0,0,.32-1.9,5.26,5.26,0,0,0-.1-1.62l-.46-2.18c-1-4.58-1.67-8-5-12.44h0l0,0a70.79,70.79,0,0,0,9.21,2.64v3.52a2.7,2.7,0,0,0,2.73,2.72h5.11a2.71,2.71,0,0,0,2.73-2.72V56.75l0,.22a71.08,71.08,0,0,0,14.48-4.72,80.09,80.09,0,0,0,10-5.4ZM100,26.9H86.13a.29.29,0,0,0-.21.09.32.32,0,0,0-.09.22v3.11h14.44V27.21a.31.31,0,0,0-.09-.22.32.32,0,0,0-.22-.09Z"/></svg>