<svg xmlns="http://www.w3.org/2000/svg" enable-background="new 0 0 1000 1000" viewBox="0 0 1000 1000" id="cafe"><path fill="#e2e2e2" d="M0 0h1000v1000H0z" class="colore2e2e2 svgShape"></path><path fill="#ecf3ff" d="M252.826 330.065c-2.873 0-5.576.729-7.934 2.011-4.959-8.209-13.966-13.699-24.257-13.699a28.178 28.178 0 0 0-13.876 3.635c-7.889-11.541-21.15-19.118-36.184-19.118-24.192 0-43.804 19.612-43.804 43.804h142.685c.003-9.186-7.444-16.633-16.63-16.633z" class="colorecf9ff svgShape"></path><path fill="#ffffff" d="M785.915 388.758h-58l-17.118-96h53.11z" class="colorffffff svgShape"></path><path fill="#fbbc05" d="M727.915 388.758h-58l-12.227-96h53.109z" class="colorf5a623 svgShape"></path><path fill="#ffffff" d="M669.915 388.758h-58l-7.336-96h53.109z" class="colorffffff svgShape"></path><path fill="#fbbc05" d="M611.915 388.758h-58l-2.446-96h53.11z" class="colorf5a623 svgShape"></path><path fill="#ffffff" d="M553.915 388.758h-58l2.445-96h53.109z" class="colorffffff svgShape"></path><path fill="#fbbc05" d="M495.915 388.758h-58l7.336-96h53.109z" class="colorf5a623 svgShape"></path><path fill="#ffffff" d="M437.915 388.758h-58l12.226-96h53.11z" class="colorffffff svgShape"></path><path fill="#fbbc05" d="M379.915 388.758h-58l17.117-96h53.109z" class="colorf5a623 svgShape"></path><path fill="#ffffff" d="M321.915 388.758h-58l22.008-96h53.109z" class="colorffffff svgShape"></path><path fill="#f59d96" d="M285.915 425.242h169v236h-169z" class="colorf5969c svgShape"></path><path fill="#282828" stroke="#282828" stroke-linecap="round" stroke-linejoin="round" stroke-miterlimit="10" stroke-width="6" d="M312.415 613.208h116v6.072h-116z" opacity=".18" class="color282828 svgShape colorStroke282828 svgStroke"></path><path fill="#df7c74" d="M421.496 484.279h25.336v11.713h-25.336zM285.915 463.946h16.917v11.713h-16.917zM438.831 498.992h18v11.713h-18zM440.499 623.279h12.668v11.713h-12.668zM330.496 623.279h25.336v11.713h-25.336zM316.496 637.992h25.336v11.713h-25.336z" class="colordf747c svgShape"></path><path fill="none" stroke="#255e34" stroke-linecap="round" stroke-linejoin="round" stroke-miterlimit="10" stroke-width="6" d="M285.915 425.242h170v236h-170z" class="colorStroke2d255e svgStroke"></path><path fill="#669ffd" d="M318.415 433.208h104v172h-104z" class="color66cdfd svgShape"></path><path fill="#4285f4" d="M385.42 595.448h-38.35a2.744 2.744 0 0 1-2.744-2.744v-1.217a2.744 2.744 0 0 1 2.744-2.744h38.35a2.744 2.744 0 0 1 2.744 2.744v1.217a2.743 2.743 0 0 1-2.744 2.744z" class="color3297d9 svgShape"></path><path fill="#4285f4" d="M358.165 594.231h16.333v11.761h-16.333zM403.394 606.28h-8v-37.788a4 4 0 0 1 8 0v37.788zM338.331 606.28h-8v-37.788a4 4 0 0 1 8 0v37.788z" class="color3297d9 svgShape"></path><path fill="#ffffff" d="m418.637 605.208 3.778-5.396v-72.497l-54.542 77.893zM361.039 605.208l61.376-87.654v-16.378l-72.844 104.032zM340.62 605.208l81.795-116.816v-8.189l-87.529 125.005z" opacity=".3" class="colorffffff svgShape"></path><path fill="none" stroke="#255e34" stroke-linecap="round" stroke-linejoin="round" stroke-miterlimit="10" stroke-width="6" d="M318.415 433.208h104v172h-104z" class="colorStroke2d255e svgStroke"></path><path fill="#d4867f" d="M312.415 605.208h116v12h-116z" class="colord49d7f svgShape"></path><path fill="none" stroke="#255e34" stroke-linecap="round" stroke-linejoin="round" stroke-miterlimit="10" stroke-width="6" d="M312.415 605.208h116v12h-116z" class="colorStroke2d255e svgStroke"></path><path fill="#d4867f" d="M378.623 505.951h292.584v138H378.623z" transform="rotate(90 524.915 574.95)" class="colord49d7f svgShape"></path><path fill="none" stroke="#255e34" stroke-linecap="round" stroke-linejoin="round" stroke-miterlimit="10" stroke-width="6" d="M378.623 505.951h292.584v138H378.623z" transform="rotate(90 524.915 574.95)" class="colorStroke2d255e svgStroke"></path><path fill="#669ffd" d="M470.915 444.992h108v202.667h-108z" class="color66cdfd svgShape"></path><path fill="#ffffff" d="M579.915 648.659v-96.361l-55.634 96.361zM517.713 647.659l61.202-106.004v-33.117l-80.322 139.121zM489.668 647.659l89.247-154.581V482.33l-95.453 165.329z" opacity=".3" class="colorffffff svgShape"></path><path fill="none" stroke="#255e34" stroke-linecap="round" stroke-linejoin="round" stroke-miterlimit="10" stroke-width="6" d="M470.915 444.992h108v202.667h-108z" class="colorStroke2d255e svgStroke"></path><path fill="#db746b" d="M266.915 661.242h196.75v60h-196.75z" class="colordb6b7b svgShape"></path><path fill="#ea4335" d="M266.915 661.242h8.419v60h-8.419zM457 661.242h4.873v60H457z" class="colorce5569 svgShape"></path><path fill="none" stroke="#255e34" stroke-linecap="round" stroke-linejoin="round" stroke-miterlimit="10" stroke-width="6" d="M266.915 661.242h196.75v60h-196.75z" class="colorStroke2d255e svgStroke"></path><path fill="#f59d96" d="M594.332 425.242h169v236h-169z" transform="rotate(-180 678.832 543.242)" class="colorf5969c svgShape"></path><path fill="#df7c74" d="M724.164 637.992H749.5v11.713h-25.336zM594.332 637.992h25.336v11.713h-25.336zM708.996 623.279h25.336v11.713h-25.336zM611.917 458.758h15.5v11.713h-15.5zM593.331 572.242h15.5v11.713h-15.5z" class="colordf747c svgShape"></path><path fill="none" stroke="#255e34" stroke-linecap="round" stroke-linejoin="round" stroke-miterlimit="10" stroke-width="6" d="M593.331 425.242h170v236h-170z" transform="rotate(-180 678.332 543.242)" class="colorStroke2d255e svgStroke"></path><path fill="#669ffd" d="M626.832 433.208h104v172h-104z" class="color66cdfd svgShape"></path><path fill="#4285f4" d="M663.826 595.448h38.35a2.744 2.744 0 0 0 2.744-2.744v-1.217a2.744 2.744 0 0 0-2.744-2.744h-38.35a2.744 2.744 0 0 0-2.744 2.744v1.217a2.744 2.744 0 0 0 2.744 2.744z" class="color3297d9 svgShape"></path><path fill="#4285f4" d="M674.748 594.231h16.333v11.761h-16.333z" transform="rotate(-180 682.915 600.111)" class="color3297d9 svgShape"></path><path fill="#4285f4" d="M645.852 606.28h8v-37.788a4 4 0 0 0-8 0v37.788zM710.915 606.28h8v-37.788a4 4 0 0 0-8 0v37.788z" class="color3297d9 svgShape"></path><path fill="#ffffff" d="m727.054 605.208 3.778-5.396v-72.497l-54.542 77.893zM669.456 605.208l61.376-87.654v-16.378l-72.844 104.032zM649.036 605.208l81.796-116.816v-8.189l-87.53 125.005z" opacity=".3" class="colorffffff svgShape"></path><path fill="none" stroke="#255e34" stroke-linecap="round" stroke-linejoin="round" stroke-miterlimit="10" stroke-width="6" d="M626.832 433.208h104v172h-104z" class="colorStroke2d255e svgStroke"></path><path fill="#282828" stroke="#282828" stroke-linecap="round" stroke-linejoin="round" stroke-miterlimit="10" stroke-width="6" d="M620.832 613.208h116v6.072h-116z" opacity=".18" class="color282828 svgShape colorStroke282828 svgStroke"></path><path fill="#d4867f" d="M620.832 605.208h116v12h-116z" transform="rotate(-180 678.832 611.208)" class="colord49d7f svgShape"></path><path fill="none" stroke="#255e34" stroke-linecap="round" stroke-linejoin="round" stroke-miterlimit="10" stroke-width="6" d="M620.832 605.208h116v12h-116z" transform="rotate(-180 678.832 611.208)" class="colorStroke2d255e svgStroke"></path><path fill="#db746b" d="M587.165 661.242h195.167v60H587.165z" transform="rotate(-180 684.748 691.242)" class="colordb6b7b svgShape"></path><path fill="#ea4335" d="M587.165 661.242h7.167v60h-7.167z" class="colorce5569 svgShape"></path><path fill="none" stroke="#255e34" stroke-linecap="round" stroke-linejoin="round" stroke-miterlimit="10" stroke-width="6" d="M587.165 661.242h195.167v60H587.165z" transform="rotate(-180 684.748 691.242)" class="colorStroke2d255e svgStroke"></path><path fill="#255e34" d="M490.331 586.992a4.5 4.5 0 0 1-4.5-4.5v-48.333a4.5 4.5 0 0 1 9 0v48.333a4.5 4.5 0 0 1-4.5 4.5z" class="color2d255e svgShape"></path><path fill="#282828" stroke="#282828" stroke-linecap="round" stroke-linejoin="round" stroke-miterlimit="10" stroke-width="6" d="M727.915 394.758h-442v61.144c2.242.556 4.586.856 7 .856h0c16.016 0 29-12.984 29-29 0 16.016 12.984 29 29 29h0c16.016 0 29-12.984 29-29 0 16.016 12.984 29 29 29h0c16.016 0 29-12.984 29-29 0 16.016 12.984 29 29 29h0c16.016 0 29-12.984 29-29 0 16.016 12.984 29 29 29h0c16.016 0 29-12.984 29-29 0 16.016 12.984 29 29 29h0c16.016 0 29-12.984 29-29 0 16.016 12.984 29 29 29h0c16.016 0 29-12.984 29-29 0 16.016 12.984 29 29 29h0c16.016 0 29-12.984 29-29 0 16.016 12.984 29 29 29h0c2.206 0 4.352-.255 6.417-.721v-61.279h-35.417z" opacity=".18" class="color282828 svgShape colorStroke282828 svgStroke"></path><path fill="#d6a821" d="M698.915 450.758c-16.016 0-29-12.984-29-29v-33h58v33c0 16.016-12.984 29-29 29z" class="colord68821 svgShape"></path><path fill="#d6d6d6" d="M640.915 450.758c-16.016 0-29-12.984-29-29v-33h58v33c0 16.016-12.984 29-29 29z" class="colord6d6d6 svgShape"></path><path fill="#d6a821" d="M582.915 450.758c-16.016 0-29-12.984-29-29v-33h58v33c0 16.016-12.984 29-29 29z" class="colord68821 svgShape"></path><path fill="#d6d6d6" d="M524.915 450.758c-16.016 0-29-12.984-29-29v-33h58v33c0 16.016-12.984 29-29 29z" class="colord6d6d6 svgShape"></path><path fill="#d6a821" d="M466.915 450.758c-16.016 0-29-12.984-29-29v-33h58v33c0 16.016-12.984 29-29 29z" class="colord68821 svgShape"></path><path fill="#d6d6d6" d="M408.915 450.758c-16.016 0-29-12.984-29-29v-33h58v33c0 16.016-12.984 29-29 29z" class="colord6d6d6 svgShape"></path><path fill="#d6a821" d="M350.915 450.758c-16.016 0-29-12.984-29-29v-33h58v33c0 16.016-12.984 29-29 29z" class="colord68821 svgShape"></path><path fill="#d6d6d6" d="M292.915 450.758c-16.016 0-29-12.984-29-29v-33h58v33c0 16.016-12.984 29-29 29z" class="colord6d6d6 svgShape"></path><path fill="none" stroke="#255e34" stroke-linecap="round" stroke-linejoin="round" stroke-miterlimit="10" stroke-width="6" d="M698.915 450.758h0c-16.016 0-29-12.984-29-29v-33h58v33c0 16.016-12.984 29-29 29zM640.915 450.758h0c-16.016 0-29-12.984-29-29v-33h58v33c0 16.016-12.984 29-29 29zM582.915 450.758h0c-16.016 0-29-12.984-29-29v-33h58v33c0 16.016-12.984 29-29 29zM524.915 450.758h0c-16.016 0-29-12.984-29-29v-33h58v33c0 16.016-12.984 29-29 29z" class="colorStroke2d255e svgStroke"></path><path fill="none" stroke="#255e34" stroke-linecap="round" stroke-linejoin="round" stroke-miterlimit="10" stroke-width="6" d="M466.915 450.758h0c-16.016 0-29-12.984-29-29v-33h58v33c0 16.016-12.984 29-29 29zM408.915 450.758h0c-16.016 0-29-12.984-29-29v-33h58v33c0 16.016-12.984 29-29 29zM350.915 450.758h0c-16.016 0-29-12.984-29-29v-33h58v33c0 16.016-12.984 29-29 29zM292.915 450.758h0c-16.016 0-29-12.984-29-29v-33h58v33c0 16.016-12.984 29-29 29zM785.915 388.758h-58l-17.118-96h53.11z" class="colorStroke2d255e svgStroke"></path><path fill="none" stroke="#255e34" stroke-linecap="round" stroke-linejoin="round" stroke-miterlimit="10" stroke-width="6" d="M727.915 388.758h-58l-12.227-96h53.109z" class="colorStroke2d255e svgStroke"></path><path fill="none" stroke="#255e34" stroke-linecap="round" stroke-linejoin="round" stroke-miterlimit="10" stroke-width="6" d="M669.915 388.758h-58l-7.336-96h53.109z" class="colorStroke2d255e svgStroke"></path><path fill="none" stroke="#255e34" stroke-linecap="round" stroke-linejoin="round" stroke-miterlimit="10" stroke-width="6" d="M611.915 388.758h-58l-2.446-96h53.11z" class="colorStroke2d255e svgStroke"></path><path fill="none" stroke="#255e34" stroke-linecap="round" stroke-linejoin="round" stroke-miterlimit="10" stroke-width="6" d="M553.915 388.758h-58l2.445-96h53.109z" class="colorStroke2d255e svgStroke"></path><path fill="none" stroke="#255e34" stroke-linecap="round" stroke-linejoin="round" stroke-miterlimit="10" stroke-width="6" d="M495.915 388.758h-58l7.336-96h53.109z" class="colorStroke2d255e svgStroke"></path><path fill="none" stroke="#255e34" stroke-linecap="round" stroke-linejoin="round" stroke-miterlimit="10" stroke-width="6" d="M437.915 388.758h-58l12.226-96h53.11z" class="colorStroke2d255e svgStroke"></path><path fill="none" stroke="#255e34" stroke-linecap="round" stroke-linejoin="round" stroke-miterlimit="10" stroke-width="6" d="M379.915 388.758h-58l17.117-96h53.109zM321.915 388.758h-58l22.008-96h53.109z" class="colorStroke2d255e svgStroke"></path><path fill="#db746b" d="M285.915 274.758h478v18h-478z" class="colordb6b7b svgShape"></path><path fill="#f59d96" d="M285.915 274.758h478v6.234h-478z" class="colorf5969c svgShape"></path><path fill="none" stroke="#255e34" stroke-linecap="round" stroke-linejoin="round" stroke-miterlimit="10" stroke-width="6" d="M285.915 274.758h478v18h-478zM215.443 606.025v56.986" class="colorStroke2d255e svgStroke"></path><path fill="#34a853" d="M234.218 607.826h-6.008c-11.845 0-21.448-9.603-21.448-21.448v-49.224c0-11.845 9.603-21.448 21.448-21.448h6.008c11.845 0 21.448 9.603 21.448 21.448v49.224c0 11.845-9.603 21.448-21.448 21.448z" class="color14a56a svgShape"></path><path fill="none" stroke="#255e34" stroke-linecap="round" stroke-linejoin="round" stroke-miterlimit="10" stroke-width="6" d="M234.218 607.826h-6.008c-11.845 0-21.448-9.603-21.448-21.448v-49.224c0-11.845 9.603-21.448 21.448-21.448h6.008c11.845 0 21.448 9.603 21.448 21.448v49.224c0 11.845-9.603 21.448-21.448 21.448zM199.191 625.864l2.968 15.209 13.284 5.053" class="colorStroke2d255e svgStroke"></path><path fill="#12b03c" d="M192.864 628.422c-9.744 0-17.643-7.899-17.643-17.643v-26.144c0-9.744 7.899-17.643 17.643-17.643s17.643 7.899 17.643 17.643v26.144c0 9.744-7.899 17.643-17.643 17.643z" class="color12b075 svgShape"></path><path fill="none" stroke="#255e34" stroke-linecap="round" stroke-linejoin="round" stroke-miterlimit="10" stroke-width="6" d="M192.864 628.422h0c-9.744 0-17.643-7.899-17.643-17.643v-26.144c0-9.744 7.899-17.643 17.643-17.643h0c9.744 0 17.643 7.899 17.643 17.643v26.144c0 9.744-7.899 17.643-17.643 17.643z" class="colorStroke2d255e svgStroke"></path><path fill="#69251f" d="M238.175 719.574H192.71l-6.13-59.518h57.726z" class="color69351f svgShape"></path><path fill="#63211b" d="m226.978 660.056-6.13 59.518h17.328l6.13-59.518z" class="color632d1b svgShape"></path><path fill="#145626" d="M220.581 672.492h21.593v8.26h-21.593zM188.914 687.113h18.403v8.26h-18.403zM214.412 700.113h25.343v8.26h-25.343z" class="color562314 svgShape"></path><path fill="none" stroke="#255e34" stroke-linecap="round" stroke-linejoin="round" stroke-miterlimit="10" stroke-width="6" d="M238.175 719.574H192.71l-6.13-59.518h57.726zM216.499 640.779l14.229-7.739v-71.274M231.378 583.659l10.796-8.667" class="colorStroke2d255e svgStroke"></path><path fill="#e8e8e8" d="M504.404 514.952h54v25.333h-54z" transform="rotate(-12 531.434 527.648)" class="colore8e8e8 svgShape"></path><path fill="none" stroke="#255e34" stroke-linecap="round" stroke-linejoin="round" stroke-miterlimit="10" stroke-width="3" d="M504.404 514.952h54v25.333h-54z" transform="rotate(-12 531.434 527.648)" class="colorStroke2d255e svgStroke"></path><path fill="#d3d3d3" d="m514.17 526.511 32.527-6.914a2.373 2.373 0 0 1 2.815 1.828l.954 4.487a2.374 2.374 0 0 1-1.828 2.815l-32.526 6.914a2.373 2.373 0 0 1-2.815-1.828l-.954-4.487a2.372 2.372 0 0 1 1.827-2.815z" class="colord3d3d3 svgShape"></path><path fill="none" stroke="#255e34" stroke-linecap="round" stroke-linejoin="round" stroke-miterlimit="10" stroke-width="2" d="m518.836 516.309 8.252-24.317 10.093 19.73" class="colorStroke2d255e svgStroke"></path><circle cx="527.088" cy="493.325" r="3" fill="#255e34" class="color2d255e svgShape"></circle><path fill="#df7c74" d="M344.831 637.992h25.336v11.713h-25.336z" class="colordf747c svgShape"></path><path fill="none" stroke="#00681c" stroke-linecap="round" stroke-linejoin="round" stroke-miterlimit="10" stroke-width="6" d="m218.748 553.242 4.865 8.524M222.832 534.281l4.865 8.524" opacity=".38" class="colorStroke006837 svgStroke"></path><path fill="none" stroke="#39d162" stroke-linecap="round" stroke-linejoin="round" stroke-miterlimit="10" stroke-width="6" d="m234.343 532.686 4.866 8.523" class="colorStroke39d188 svgStroke"></path><path fill="none" stroke="#00681c" stroke-linecap="round" stroke-linejoin="round" stroke-miterlimit="10" stroke-width="6" d="m189.612 601.273 3.032 5.166" opacity=".38" class="colorStroke006837 svgStroke"></path><path fill="none" stroke="#39d162" stroke-linecap="round" stroke-linejoin="round" stroke-miterlimit="10" stroke-width="6" d="m191.348 587.2 3.032 5.166" class="colorStroke39d188 svgStroke"></path><path fill="#d6d6d6" d="M756.915 450.758c-16.016 0-29-12.984-29-29v-33h58v33c0 16.016-12.984 29-29 29z" class="colord6d6d6 svgShape"></path><path fill="none" stroke="#255e34" stroke-linecap="round" stroke-linejoin="round" stroke-miterlimit="10" stroke-width="6" d="M756.915 450.758h0c-16.016 0-29-12.984-29-29v-33h58v33c0 16.016-12.984 29-29 29z" class="colorStroke2d255e svgStroke"></path><path fill="#d6d6d6" d="M756.831 566.261h38v154.981h-38z" class="colord6d6d6 svgShape"></path><path fill="#ffffff" d="M765.165 566.261h19.333v154.981h-19.333z" class="colorffffff svgShape"></path><path fill="none" stroke="#255e34" stroke-linecap="round" stroke-linejoin="round" stroke-miterlimit="10" stroke-width="6" d="M756.831 566.261h38v154.981h-38z" class="colorStroke2d255e svgStroke"></path><path fill="#255e34" d="M777.863 587.159h-5.064a4.801 4.801 0 0 1-4.801-4.801v-13.865h14.667v13.865a4.802 4.802 0 0 1-4.802 4.801z" class="color2d255e svgShape"></path><path fill="none" stroke="#255e34" stroke-linecap="round" stroke-linejoin="round" stroke-miterlimit="10" stroke-width="8" d="M142.847 721.242H841" class="colorStroke2d255e svgStroke"></path><path fill="#ecf3ff" d="M850.334 232.295c-4.681 0-8.97 1.672-12.308 4.447-5.807-13.925-19.547-23.714-35.577-23.714-21.282 0-38.534 17.252-38.534 38.534H869.601c0-10.641-8.626-19.267-19.267-19.267zM572.828 213.028c-.225-14.682-12.19-26.517-26.926-26.517a26.805 26.805 0 0 0-13.179 3.446c-4.244-7.125-11.679-12.126-20.336-13.026-2.893-11.758-13.501-20.481-26.152-20.481-3.451 0-6.748.656-9.78 1.839-9.447-15.196-26.285-25.318-45.494-25.318-25.301 0-46.487 17.555-52.081 41.145a32.225 32.225 0 0 0-13.029-2.74c-17.863 0-32.344 14.481-32.344 32.344 0 3.236.481 6.359 1.366 9.307h237.955z" class="colorecf9ff svgShape"></path></svg>