<svg xmlns="http://www.w3.org/2000/svg" shape-rendering="geometricPrecision" text-rendering="geometricPrecision" image-rendering="optimizeQuality" fill-rule="evenodd" clip-rule="evenodd" viewBox="0 0 512 398.73"><path fill-rule="nonzero" d="M427.19 0v.03c4.73 0 8.57 3.84 8.57 8.57v222.88h67.66c1.96.02 3.93.68 5.54 2.04 3.62 3.06 4.07 8.48 1.01 12.1L382.65 395.58c-.32.39-.69.76-1.09 1.11-3.62 3.05-9.03 2.6-12.09-1.02L242.44 246.05a8.55 8.55 0 0 1-2.42-5.97 8.6 8.6 0 0 1 8.6-8.6h67.63V119.54h-32.94c-2.42-.03-4.82-1.04-6.51-3.02L189.59 14.64a8.586 8.586 0 0 1-2.48-6.04c0-4.75 3.86-8.6 8.61-8.6h231.47zM84.81 398.73v-.03c-4.73 0-8.57-3.84-8.57-8.57V167.25H8.58a8.685 8.685 0 0 1-5.54-2.04c-3.62-3.06-4.07-8.48-1.01-12.1L129.35 3.15c.32-.39.69-.76 1.09-1.11 3.62-3.05 9.04-2.6 12.09 1.02l127.03 149.62a8.54 8.54 0 0 1 2.41 5.97 8.6 8.6 0 0 1-8.6 8.6h-67.62v111.94h32.94c2.42.03 4.82 1.04 6.52 3.02l87.2 101.88a8.586 8.586 0 0 1 2.48 6.04c0 4.75-3.86 8.6-8.6 8.6H84.81zm8.57-17.2h204.25l-72.87-85.14h-37.61a8.6 8.6 0 0 1-8.6-8.6V158.65a8.6 8.6 0 0 1 8.6-8.6h57.66L135.98 21.86 27.14 150.05h57.67a8.6 8.6 0 0 1 8.6 8.6l-.03 222.88zM418.62 17.2H214.37l72.87 85.14h37.61a8.6 8.6 0 0 1 8.6 8.6v129.14a8.6 8.6 0 0 1-8.6 8.6h-57.67l108.84 128.19 108.84-128.19h-57.67a8.6 8.6 0 0 1-8.6-8.6l.03-222.88z"/></svg>