<svg xmlns="http://www.w3.org/2000/svg" data-name="Layer 1" viewBox="0 0 4000 4000"><path fill="#22a7f0" d="M1615.905 3077.516a74.137 74.137 0 0 1-68.548-44.55l-94.401-212.403-227.813 59.946a76.45 76.45 0 0 1-19.429 2.54 75.077 75.077 0 0 1-67.41-107.305l264.027-553.706a29.506 29.506 0 0 1 36.975-14.947l497.143 185.772a29.523 29.523 0 0 1 16.612 39.707l-268.675 600.561a74.151 74.151 0 0 1-68.471 44.385Z"/><path fill="#102770" d="m1428.974 2234.743 497.143 185.771-268.674 600.564a45.5 45.5 0 0 1-83.113-.102l-104.602-235.352-252.097 66.343a46.764 46.764 0 0 1-11.917 1.567c-31.857 0-55.583-33.938-40.754-65.115l264.014-553.676m.012-59.043a59.046 59.046 0 0 0-53.299 33.635l-264.013 553.677a104.598 104.598 0 0 0 94.04 149.555 105.988 105.988 0 0 0 26.941-3.51l203.526-53.562 84.204 189.455c17.019 38.294 53.623 62.08 95.527 62.08 41.79 0 78.352-23.696 95.418-61.845l268.674-600.564a59.033 59.033 0 0 0-33.223-79.405l-497.143-185.771a58.917 58.917 0 0 0-20.652-3.745Z"/><path fill="#fff" d="m1199.61 2814.406 264.012-553.676 457.497 170.956 4.998-11.172-497.144-185.771-264.013 553.676c-13.82 29.055 5.874 60.41 34.402 64.557a44.607 44.607 0 0 1 .248-38.57Z" opacity=".6"/><path fill="#102770" d="m1428.973 2234.743-17.373 36.434c21.12 44.349 68.732 161.047 162.169 245.007 103.038 92.587 44.17 265.879-94.327 268.644q-5.669.114-11.488-.02l-.112 1.313 1.886-.496 104.602 235.351c15.99 35.98 67.034 36.043 83.113.102l268.674-600.564Z" opacity=".3"/><path fill="#ff5722" d="M2384.09 3077.516a74.156 74.156 0 0 1-68.478-44.39L2046.94 2432.57a29.52 29.52 0 0 1 14.65-38.892l481.207-220.42a29.502 29.502 0 0 1 38.945 14.156l279.951 588.325a75.08 75.08 0 0 1-67.404 107.31 76.47 76.47 0 0 1-19.432-2.54l-227.812-59.946-94.402 212.402a74.126 74.126 0 0 1-68.552 44.551Z"/><path fill="#102770" d="m2555.09 2200.094 279.95 588.325c14.83 31.177-8.896 65.115-40.754 65.115a46.764 46.764 0 0 1-11.916-1.567l-252.097-66.343-104.603 235.352a45.5 45.5 0 0 1-83.115.102l-268.672-600.564 481.206-220.42m-.036-59.045a58.78 58.78 0 0 0-24.549 5.376l-481.206 220.42a59.032 59.032 0 0 0-29.301 77.776l268.672 600.564c17.065 38.149 53.627 61.845 95.42 61.845 41.904 0 78.508-23.786 95.527-62.08l84.204-189.455 203.525 53.562a105.988 105.988 0 0 0 26.941 3.51 104.598 104.598 0 0 0 94.065-149.504l-279.956-588.335a59.044 59.044 0 0 0-53.342-33.68Z"/><path fill="#fff" d="m2368.544 3003.753-266.66-596.065-28 12.826 268.672 600.564c14.7 32.857 58.54 35.526 78.188 8.271-19.854 4.669-42.449-3.799-52.2-25.596Z" opacity=".6"/><path fill="#102770" d="M2839.38 2810.597c.055-.96.162-1.908.154-2.879.007.97-.098 1.92-.155 2.879Z" opacity=".3"/><path fill="#102770" d="M2838.53 2817.03c.215-1.03.46-2.046.602-3.095-.142 1.048-.387 2.067-.602 3.095Z" opacity=".3"/><path fill="#102770" d="M2835.889 2825.594c-.504 1.172-1.092 2.301-1.69 3.425.596-1.126 1.187-2.25 1.69-3.425Z" opacity=".3"/><path fill="#102770" d="M2836.782 2823.195c.393-1.085.8-2.16 1.11-3.277-.31 1.115-.716 2.194-1.11 3.277Z" opacity=".3"/><path fill="#102770" d="M2839.03 2801.338c.135.875.148 1.74.229 2.61-.081-.871-.095-1.734-.229-2.61Z" opacity=".3"/><path fill="#102770" d="M2786.807 2852.793c15.91-12.238 23.637-34.574 13.583-55.712l-277.133-582.407-449.374 205.84 56.909 127.207c33.548 1.438 112.082 1.368 205.407-22.055 79.535-19.962 161.305 26.25 182.434 105.483 13.212 49.544 19.205 107.927 5.247 168.855l6.391-14.38 252.099 66.342a44.969 44.969 0 0 0 23.407-.067 44.793 44.793 0 0 1-18.97.894Z" opacity=".3"/><path fill="#102770" d="M2837.552 2794.878c.22.718.322 1.433.506 2.15-.184-.717-.285-1.432-.506-2.15Z" opacity=".3"/><path fill="#102770" d="M2821.597 2844.019a45.807 45.807 0 0 1-4.449 3.035 45.627 45.627 0 0 0 4.449-3.035Z" opacity=".3"/><path fill="#102770" d="M2830.851 2834.413c.825-1.147 1.625-2.302 2.343-3.52-.72 1.213-1.516 2.377-2.343 3.52Z" opacity=".3"/><path fill="#102770" d="M2822.243 2843.497a46.432 46.432 0 0 0 3.75-3.344 46.415 46.415 0 0 1-3.75 3.345Z" opacity=".3"/><path fill="#102770" d="M2826.835 2839.266c1.067-1.125 2.092-2.28 3.042-3.504a46.6 46.6 0 0 1-3.042 3.504Z" opacity=".3"/><path fill="#102770" d="M2816.74 2847.3a45.019 45.019 0 0 1-5.093 2.566 44.787 44.787 0 0 0 5.093-2.566Z" opacity=".3"/><path fill="#102770" d="M2811.453 2849.95a44.3 44.3 0 0 1-5.647 1.941 44.072 44.072 0 0 0 5.647-1.942Z" opacity=".3"/><path fill="#ffca28" d="M2102.85 2638.18a190.397 190.397 0 0 1-123.8-45.918 131.567 131.567 0 0 0-142.278-18.867 190.401 190.401 0 0 1-267.481-127.886 131.682 131.682 0 0 0-104.018-98.891 190.615 190.615 0 0 1-141.224-260.684 131.682 131.682 0 0 0-26.025-141.143 190.616 190.616 0 0 1 38.975-293.91 131.685 131.685 0 0 0 61.906-129.483 190.64 190.64 0 0 1 188.677-215.498c5.17 0 10.422.21 15.608.625 3.513.283 7.08.43 10.598.43a131.46 131.46 0 0 0 115.596-68.794 190.572 190.572 0 0 1 291.567-53.76 131.567 131.567 0 0 0 142.278 18.867 190.402 190.402 0 0 1 267.48 127.886 131.682 131.682 0 0 0 104.019 98.891 190.615 190.615 0 0 1 141.223 260.684 131.68 131.68 0 0 0 26.023 141.143 190.616 190.616 0 0 1-38.972 293.91 131.681 131.681 0 0 0-61.907 129.483 190.641 190.641 0 0 1-188.674 215.498c-5.166 0-10.42-.21-15.61-.625a132.54 132.54 0 0 0-10.599-.43 131.447 131.447 0 0 0-115.593 68.794 190.723 190.723 0 0 1-167.768 99.678Z"/><path fill="#102770" d="M1897.152 1168a159.89 159.89 0 0 1 104.59 38.81 161.089 161.089 0 0 0 174.192 23.099 160.38 160.38 0 0 1 69.229-15.78c71.716 0 138.857 48.392 156.833 123.866a161.097 161.097 0 0 0 127.349 121.071c100.85 18.7 158.779 125.63 119.358 220.32a161.104 161.104 0 0 0 31.86 172.805c70.598 74.405 54.614 194.964-32.937 248.399a161.1 161.1 0 0 0-75.796 158.528c12.798 97.265-63.306 182.133-159.416 182.133q-6.56 0-13.235-.534-6.508-.524-12.974-.523a161.09 161.09 0 0 0-141.526 84.224h-.002c-29.663 54.624-85.283 84.248-141.829 84.248a159.905 159.905 0 0 1-104.59-38.814 161.089 161.089 0 0 0-174.192-23.098 160.382 160.382 0 0 1-69.23 15.78c-71.717 0-138.855-48.392-156.832-123.866a161.1 161.1 0 0 0-127.348-121.071c-100.85-18.699-158.78-125.63-119.358-220.32a161.109 161.109 0 0 0-31.86-172.805c-70.601-74.405-54.615-194.964 32.937-248.399a161.103 161.103 0 0 0 75.795-158.528c-12.797-97.265 63.306-182.133 159.417-182.133q6.559 0 13.235.534 6.507.524 12.971.523a161.102 161.102 0 0 0 141.528-84.224c29.663-54.624 85.284-84.243 141.831-84.246m.01-59.033V1168l-.002-59.033h-.012a220.204 220.204 0 0 0-193.704 115.108 101.951 101.951 0 0 1-89.651 53.362c-2.73 0-5.5-.113-8.232-.333-5.975-.48-12.02-.725-17.974-.725a220.155 220.155 0 0 0-217.944 248.87 102.146 102.146 0 0 1-48.023 100.437 220.128 220.128 0 0 0-45.005 339.419 102.15 102.15 0 0 1 20.183 109.485 220.134 220.134 0 0 0 163.096 301.052 102.136 102.136 0 0 1 80.684 76.707 219.925 219.925 0 0 0 308.899 147.69 102.059 102.059 0 0 1 110.36 14.634 220.085 220.085 0 0 0 336.717-62.083 101.95 101.95 0 0 1 89.651-53.362c2.735 0 5.506.113 8.235.333 5.974.48 12.019.725 17.974.725a220.155 220.155 0 0 0 217.944-248.87 102.146 102.146 0 0 1 48.022-100.437 220.134 220.134 0 0 0 45.008-339.419 102.14 102.14 0 0 1-20.186-109.485 220.134 220.134 0 0 0-163.095-301.052 102.13 102.13 0 0 1-80.684-76.707 219.925 219.925 0 0 0-308.9-147.69 102.059 102.059 0 0 1-110.36-14.634 219.935 219.935 0 0 0-143-53.025Z"/><circle cx="2020.001" cy="1908.332" r="511.868" fill="#fff" opacity=".6" transform="rotate(-45 2020 1908.332)"/><path fill="#102770" d="M2351.996 1272.994a160.924 160.924 0 0 0 58.266 90.066 161.005 161.005 0 0 1-8.266-25.066 159.863 159.863 0 0 0-58.233-90.183 163.144 163.144 0 0 1 8.233 25.183ZM2680.564 1852.19a161.101 161.101 0 0 1-31.862-172.804c29.157-70.037 5.02-146.73-50.313-189.504a160.01 160.01 0 0 1 .313 124.504 161.101 161.101 0 0 0 31.861 172.804c70.6 74.406 54.613 194.964-32.937 248.399a161.1 161.1 0 0 0-75.795 158.529c13.38 101.692-70.414 189.829-172.652 181.598a161.102 161.102 0 0 0-154.501 83.702c-48.948 90.135-168.545 112.186-246.42 45.434a161.101 161.101 0 0 0-174.191-23.098c-57.587 27.463-121.792 17.53-167.83-17.902 34.741 83.056 133.395 123.168 217.83 82.902a161.101 161.101 0 0 1 174.191 23.098c77.875 66.752 197.472 44.701 246.42-45.434a161.102 161.102 0 0 1 154.5-83.702c102.239 8.23 186.034-79.906 172.653-181.598a161.1 161.1 0 0 1 75.795-158.529c87.55-53.435 103.536-173.993 32.938-248.398ZM1420.656 2252.596a160.12 160.12 0 0 1-69.045-30.815c20.171 47.703 62.952 85.414 119.045 95.815a160.764 160.764 0 0 1 69.081 31.007 161.06 161.06 0 0 0-119.081-96.007Z" opacity=".2"/><path fill="#fff" d="M2557.453 1487.175a159.963 159.963 0 0 1 69.077 30.949 159.665 159.665 0 0 0-97.186-59.058 160.773 160.773 0 0 1-69.734-31.505 161 161 0 0 0 97.843 59.614Z" opacity=".6"/><path fill="#fff" d="M1379.405 2125.385a161.102 161.102 0 0 0-31.86-172.806c-70.599-74.402-54.613-194.96 32.937-248.398a161.1 161.1 0 0 0 75.796-158.529c-13.382-101.69 70.415-189.827 172.65-181.6a161.098 161.098 0 0 0 154.503-83.7c48.947-90.134 168.545-112.187 246.42-45.433a161.102 161.102 0 0 0 174.192 23.1c57.678-27.509 121.996-17.493 168.05 18.082-44.754-57.123-125.397-79.937-196.159-46.191a161.102 161.102 0 0 1-174.192-23.099c-77.874-66.754-197.472-44.702-246.42 45.433a161.097 161.097 0 0 1-154.502 83.7c-102.236-8.228-186.032 79.91-172.65 181.6a161.1 161.1 0 0 1-75.796 158.528c-87.55 53.438-103.536 173.996-32.938 248.399a161.102 161.102 0 0 1 31.86 172.805c-29.14 70-4.985 146.584 50.281 189.371-34.339-43.881-45.724-104.689-22.172-161.262Z" opacity=".6"/><path fill="#fff" d="M1626.112 2466.779a160.93 160.93 0 0 0-57.614-89.568 160.842 160.842 0 0 1 29.505 61.46 159.85 159.85 0 0 0 58.013 90 160.102 160.102 0 0 1-29.904-61.892Z" opacity=".6"/><circle cx="2000" cy="1888.332" r="488.255" fill="#fff"/><path fill="#102770" d="M1999.999 2400.202c-282.244 0-511.868-229.624-511.868-511.87s229.624-511.87 511.868-511.87c282.246 0 511.87 229.623 511.87 511.87s-229.624 511.87-511.87 511.87Zm0-976.514c-256.204 0-464.641 208.438-464.641 464.644s208.437 464.643 464.641 464.643c256.206 0 464.644-208.437 464.644-464.643s-208.438-464.644-464.644-464.644Z"/><path fill="#102770" d="M1556.745 1948.331c0-269.655 218.599-488.255 488.255-488.255 146.395 0 277.723 64.447 367.212 166.497-86.641-136.156-238.87-226.497-412.212-226.497-269.656 0-488.255 218.6-488.255 488.255a486.36 486.36 0 0 0 121.042 321.758 485.947 485.947 0 0 1-76.042-261.758Z" opacity=".2"/><path fill="#f9b32f" d="M2122.96 2115.045a52.1 52.1 0 0 1-30.761-10.15l-90.733-65.924a2.485 2.485 0 0 0-2.932 0l-90.732 65.923a52.093 52.093 0 0 1-30.76 10.151 53.113 53.113 0 0 1-42.773-21.958 51.72 51.72 0 0 1-7.25-46.884l34.655-106.66a2.497 2.497 0 0 0-.906-2.794l-90.732-65.922a52.496 52.496 0 0 1 30.857-94.966h112.15a2.49 2.49 0 0 0 2.373-1.724l34.656-106.66a52.497 52.497 0 0 1 99.856 0l34.656 106.66a2.483 2.483 0 0 0 2.373 1.724h112.15a52.496 52.496 0 0 1 30.858 94.966l-90.733 65.922a2.497 2.497 0 0 0-.905 2.793l34.655 106.66a51.724 51.724 0 0 1-7.248 46.88 53.13 53.13 0 0 1-42.773 21.963Z"/><path fill="#102770" d="M1999.999 1656.203a26.996 26.996 0 0 1 26.152 18.999l34.656 106.662a27.495 27.495 0 0 0 26.15 19h112.15c26.637 0 37.71 34.084 16.163 49.74l-90.732 65.92a27.494 27.494 0 0 0-9.988 30.74l34.656 106.663c6.27 19.297-9.06 36.116-26.245 36.116a27.105 27.105 0 0 1-16.067-5.376l-90.733-65.918a27.493 27.493 0 0 0-32.322 0l-90.732 65.918a27.11 27.11 0 0 1-16.067 5.376c-17.187 0-32.515-16.819-26.245-36.116l34.656-106.662a27.494 27.494 0 0 0-9.988-30.74l-90.732-65.92c-21.548-15.657-10.474-49.742 16.162-49.742h112.15a27.497 27.497 0 0 0 26.15-18.999l34.656-106.662a26.995 26.995 0 0 1 26.15-19m0-50a77.304 77.304 0 0 0-73.701 53.546l-29.605 91.115h-95.8a77.497 77.497 0 0 0-45.555 140.19l77.508 56.312-29.605 91.11a76.465 76.465 0 0 0 10.801 69.305 78.18 78.18 0 0 0 62.998 32.263 76.94 76.94 0 0 0 45.454-14.924L2000 2068.81l77.507 56.309a76.928 76.928 0 0 0 45.454 14.924 78.183 78.183 0 0 0 62.998-32.266 76.465 76.465 0 0 0 10.801-69.299l-29.604-91.113 77.505-56.309a77.498 77.498 0 0 0-45.552-140.193h-95.8l-29.603-91.113a77.31 77.31 0 0 0-73.706-53.547Z"/><path fill="#fff" d="M2068.962 1796.004a27.496 27.496 0 0 0 26.15 18.999h112.151a26.76 26.76 0 0 1 18.568 7.182c-2.703-11.504-12.441-21.322-26.724-21.322h-112.15a27.44 27.44 0 0 1-18.872-7.56Z" opacity=".6"/><path fill="#fff" d="m1858.95 2068.067 34.657-106.662a27.445 27.445 0 0 0-7.559-28.66 27.351 27.351 0 0 1-.597 14.52l-34.656 106.662a26.813 26.813 0 0 0 7.377 28.54 27.295 27.295 0 0 1 .779-14.4Z" opacity=".6"/><path fill="#fff" d="M1809.049 1815.003h112.15a27.496 27.496 0 0 0 26.15-19l34.657-106.66c6.657-20.489 31.361-24.39 44.925-11.738l-.78-2.402c-8.232-25.333-44.07-25.333-52.301 0l-34.657 106.66a27.496 27.496 0 0 1-26.15 19h-112.15c-25.47 0-36.633 31.126-18.726 47.543-3.329-15.74 7.701-33.403 26.882-33.403Z" opacity=".6"/><path fill="#102770" d="M2001.926 1669.422v218.676l64.917-93.656-45.129-129.551-19.788 4.531z" opacity=".2"/><path fill="#102770" d="m2001.926 1888.098-136.371 198.93 15.451 13.432 122.338-81.559-1.418-130.803z" opacity=".2"/><path fill="#102770" d="m1774.753 1843.038 227.173 45.06-112.655 44.079-114.518-89.139z" opacity=".2"/><path fill="#102770" d="m2001.926 1888.098 152.064 203.251-4.514-54.177-40.355-101.908-107.195-47.166z" opacity=".2"/><path fill="#102770" d="m2001.926 1888.098 214.389-47.165-107.194 94.331-107.195-47.166z" opacity=".1"/><path fill="#102770" d="M1007.88 1865.426a10.575 10.575 0 0 1-9.741-6.46c-15.389-36.46-34.788-59.516-55.699-67.221a118.451 118.451 0 0 1-6.945 21.694c-5.874 13.74-17.012 24.009-30.557 28.169-15.01 4.585-28.364.547-37.625-11.401-5.59-7.212-5.71-17.354-.332-27.828 8.658-16.86 30.555-33.422 56.795-34.536-.042-45.625-33.018-81.235-38.657-86.987-.491-.308-.98-.615-1.468-.918a75.766 75.766 0 0 1-24.174 37.666c-27.613 23.355-56.072 28.477-82.295 14.815a43.082 43.082 0 0 1-20.957-51.304c6.953-22.13 20.117-37.3 38.07-43.867 18.878-6.92 42.452-4.048 70.338 8.466-2.957-36.23-15.53-63.086-37.464-79.946-44.311-34.053-113.542-17.646-114.235-17.466a10.568 10.568 0 0 1-5.059-20.522c3.223-.801 79.62-19.063 132.075 21.157 29.612 22.71 45.227 59.038 46.423 107.993q5.432 3.142 11.04 6.695a10.8 10.8 0 0 1 1.705 1.342c2.339 2.27 47.07 46.553 45.827 105.381 22.732 6.446 50.044 26.807 72.666 80.396a10.576 10.576 0 0 1-9.731 14.682Zm-86.56-76.23a48.094 48.094 0 0 0-9.8 2.285c-19.09 6.563-28.381 22.168-27.324 26.099 2.5 3.14 6.352 6.318 14.543 3.823 7.58-2.33 13.9-8.262 17.324-16.275a96.745 96.745 0 0 0 5.257-15.932Zm-105.134-134.492a42.36 42.36 0 0 0-14.63 2.387c-11.72 4.287-20.187 14.502-25.17 30.362a21.983 21.983 0 0 0 10.561 26.225c18.247 9.507 38.06 5.4 58.882-12.207a54.674 54.674 0 0 0 18.628-32.417c-18.699-9.512-34.983-14.35-48.271-14.35ZM2977.387 2371.164a10.576 10.576 0 0 1-9.827-14.454c23.037-58.325 51.943-80.634 76.128-87.885-3.125-63.12 43.887-111.875 46.335-114.366a10.53 10.53 0 0 1 1.673-1.381q6.123-4.087 12.048-7.686c-.002-.332-.005-.664-.002-.996.173-52.246 16.04-91.348 47.158-116.216 55.054-43.994 136.929-26.42 140.39-25.64a10.567 10.567 0 0 1-4.59 20.63c-1.183-.273-75.766-16-122.685 21.582-23.73 19.004-36.772 48.882-38.847 88.897 29.965-14.526 55.412-18.379 75.947-11.392 19.206 6.524 33.557 22.32 41.499 45.674a45.521 45.521 0 0 1-20.865 54.692c-27.368 15.079-57.585 10.45-87.404-13.378a81.049 81.049 0 0 1-27.295-40.972c-.872.566-1.75 1.143-2.63 1.724-5.36 5.83-40.61 46.157-39.463 95.805 28.165.308 52.093 17.466 61.77 35.279 5.887 10.834 6.033 21.425.399 29.057-9.449 12.788-23.39 17.373-39.283 12.896-14.433-4.068-26.47-14.659-33.027-29.058a126.257 126.257 0 0 1-8.15-23.833c-18.664 6.826-40.522 26.406-59.448 74.331a10.572 10.572 0 0 1-9.831 6.69Zm90.37-84.048a101.612 101.612 0 0 0 6.292 18.1c3.975 8.73 11.092 15.098 19.524 17.476 9.334 2.637 13.599-1.113 16.55-5.112 1.28-3.58-8.059-19.77-27.802-27.251a51.485 51.485 0 0 0-14.563-3.213Zm58.29-130.171a60.272 60.272 0 0 0 21.493 35.79c22.925 18.321 44.461 22.144 64.01 11.383a24.413 24.413 0 0 0 11.054-29.38c-5.83-17.153-15.35-28.076-28.286-32.47-16.68-5.665-40.01-.602-68.272 14.677ZM2872.116 1015.924a12.646 12.646 0 0 1-3.604-.532 12.504 12.504 0 0 1-8.371-15.571l20.034-66.626a12.5 12.5 0 1 1 23.94 7.197l-20.034 66.626a12.508 12.508 0 0 1-11.965 8.906ZM2812.916 1212.785a12.646 12.646 0 0 1-3.603-.533 12.504 12.504 0 0 1-8.372-15.57l20.035-66.627a12.5 12.5 0 1 1 23.94 7.197l-20.034 66.626a12.507 12.507 0 0 1-11.966 8.907ZM2912.428 1048.844a12.504 12.504 0 0 1-5.928-23.515l61.28-32.945a12.5 12.5 0 0 1 11.836 22.022l-61.28 32.944a12.459 12.459 0 0 1-5.908 1.494ZM2731.366 1146.178a12.5 12.5 0 0 1-5.928-23.51l61.282-32.945a12.5 12.5 0 0 1 11.836 22.022l-61.282 32.944a12.454 12.454 0 0 1-5.908 1.49ZM2984.276 1120.656a12.643 12.643 0 0 1-3.603-.532l-66.626-20.035a12.502 12.502 0 0 1 7.197-23.945l66.626 20.034a12.504 12.504 0 0 1-3.594 24.478ZM2787.416 1061.457a12.643 12.643 0 0 1-3.603-.533l-66.627-20.034a12.502 12.502 0 0 1 7.198-23.945l66.626 20.034a12.504 12.504 0 0 1-3.594 24.478ZM2917.682 1202.208a12.495 12.495 0 0 1-11.02-6.582l-32.947-61.284a12.5 12.5 0 1 1 22.021-11.836l32.947 61.284a12.5 12.5 0 0 1-11 18.418ZM2820.34 1021.144a12.495 12.495 0 0 1-11.02-6.582l-32.947-61.28a12.5 12.5 0 1 1 22.022-11.835l32.947 61.28a12.498 12.498 0 0 1-11.001 18.417ZM1390.221 804.4a12.646 12.646 0 0 1-3.603-.531 12.504 12.504 0 0 1-8.372-15.572l22.122-73.564a12.5 12.5 0 1 1 23.94 7.197l-22.122 73.565a12.507 12.507 0 0 1-11.965 8.906ZM1324.86 1021.754a12.676 12.676 0 0 1-3.606-.532 12.504 12.504 0 0 1-8.37-15.571l22.122-73.56a12.5 12.5 0 1 1 23.94 7.198l-22.12 73.56a12.507 12.507 0 0 1-11.966 8.905ZM1434.733 840.744a12.5 12.5 0 0 1-5.93-23.511l67.658-36.377a12.502 12.502 0 0 1 11.841 22.021l-67.658 36.377a12.471 12.471 0 0 1-5.911 1.49ZM1234.82 948.22a12.5 12.5 0 0 1-5.93-23.512l67.66-36.376a12.501 12.501 0 0 1 11.84 22.021l-67.659 36.377a12.471 12.471 0 0 1-5.91 1.49ZM1514.062 920.04a12.671 12.671 0 0 1-3.606-.532l-73.565-22.124a12.502 12.502 0 0 1 7.202-23.945l73.565 22.124a12.504 12.504 0 0 1-3.596 24.477ZM1296.706 854.674a12.646 12.646 0 0 1-3.604-.532l-73.562-22.119a12.502 12.502 0 0 1 7.197-23.945l73.562 22.119a12.504 12.504 0 0 1-3.593 24.477ZM1440.531 1010.08a12.495 12.495 0 0 1-11.02-6.582l-36.375-67.662a12.5 12.5 0 0 1 22.022-11.835l36.374 67.66a12.5 12.5 0 0 1-11 18.419ZM1333.056 810.168a12.495 12.495 0 0 1-11.02-6.582l-36.375-67.662a12.5 12.5 0 1 1 22.021-11.836l36.375 67.662a12.5 12.5 0 0 1-11.001 18.418ZM1023.171 3097.83s45.593 53.778-7.299 104.111c0 0 59.507-29.915 101.263 31.604 0 0-29.636-80.9 4.684-109.674 0 0-61.238 19.721-98.648-26.042Z"/><circle cx="2516.632" cy="3384.094" r="28.569" fill="#102770"/><path fill="#102770" d="M2799.546 3128.765s-5.742 67.247-75.608 65.306c0 0 60.468 20.21 46.883 90.076 0 0 34.923-74.717 77.619-70.836 0 0-54.716-28.265-48.894-84.546Z"/><circle cx="3181.63" cy="1489.617" r="28.569" fill="#102770"/><path fill="#8bc34a" d="m1885.338 964.142 37.319 21.633s24.948-65.55 95.184-77.167l-10.625-43.067s-88.526 11.56-121.878 98.6Z"/><path fill="#19b5fe" d="m794.536 2164.306 40.192-15.665s14.618 68.597 82.247 90.83l-17.094 40.933s-85.711-24.977-105.345-116.098Z"/><path fill="#ff5722" d="m3196.076 2776.554 6.898-38.63s-63.797-.96-95.556-57.4l-33.52 22.469s37.395 72.095 122.178 73.56Z"/><circle cx="1101.467" cy="1324.334" r="28.569" fill="#102770" transform="rotate(-45 1101.467 1324.334)"/><path fill="#ffca28" d="m3070.365 1721.089-37.324-12.113s-9.669 63.067-69.92 86.815l17.677 36.276s76.529-27.191 89.567-110.978ZM896.465 2556.335l19.175 34.237s-59.96 21.81-71.473 85.54l-39.031-10.244s11.707-80.368 91.33-109.533Z"/><path fill="#19b5fe" d="m2405.05 850.251-39.22 1.281s12.321 62.603-36.286 105.399l28.944 28.118s62.75-51.561 46.563-134.798Z"/><path fill="#ff5722" d="m2278.858 636.946 8.488-38.312s-63.703-3.594-93.103-61.297l-34.42 21.064s34.385 73.578 119.035 78.545Z"/></svg>