<?xml version="1.0" encoding="utf-8"?><svg version="1.1" id="Layer_1" xmlns="http://www.w3.org/2000/svg" xmlns:xlink="http://www.w3.org/1999/xlink" x="0px" y="0px" width="83.207px" height="122.879px" viewBox="0 0 83.207 122.879" enable-background="new 0 0 83.207 122.879" xml:space="preserve"><g><path d="M0,2.458C0,1.1,1.101,0,2.458,0c1.357,0,2.458,1.1,2.458,2.458v4.276c17.879,4.529,27.991,1.129,37.34-2.015 C53.16,1.052,63.104-2.292,81.729,5.839c0.922,0.401,1.473,1.302,1.473,2.246h0.006V68.65c0,1.356-1.1,2.457-2.457,2.457 c-0.377,0-0.734-0.085-1.055-0.237c-15.799-7.177-26.041-3.969-36.816-0.593c-10.491,3.286-21.45,6.717-37.963,2.083v48.062 c0,1.357-1.101,2.457-2.458,2.457c-1.357,0-2.458-1.1-2.458-2.457V2.458L0,2.458z M4.916,11.775v55.468 c15.9,4.803,26.433,1.504,36.504-1.651c10.91-3.418,21.318-6.676,36.873-0.644V9.705C62.336,3.136,53.486,6.111,43.811,9.364 C34.011,12.66,23.427,16.218,4.916,11.775L4.916,11.775z"/></g></svg>