<svg id="Layer_1" data-name="Layer 1" xmlns="http://www.w3.org/2000/svg" viewBox="0 0 122.88 110.52"><defs><style>.cls-1{fill-rule:evenodd;}</style></defs><title>go-to-store</title><path class="cls-1" d="M98.06,60.88A24.82,24.82,0,1,1,73.24,85.7,24.82,24.82,0,0,1,98.06,60.88Zm6.18-14.35v7.64a32.82,32.82,0,0,0-4.89-.57V46.67a20.54,20.54,0,0,0,4.89-.14Zm-32,58.23H13.49A5.9,5.9,0,0,1,9.31,103h0a5.9,5.9,0,0,1-1.74-4.18V46.58a21.94,21.94,0,0,0,4.89.32V98.84a1,1,0,0,0,.31.73h0a1,1,0,0,0,.72.29H54.42V63.14a8.89,8.89,0,0,1,8.86-8.86H77.92a8.82,8.82,0,0,1,6.14,2.5A31.19,31.19,0,0,0,80.21,59a4.72,4.72,0,0,0-2.3-.6H63.28a4.75,4.75,0,0,0-4.74,4.75V99.87H69.22a31.92,31.92,0,0,0,3,4.89ZM27.28,61.05H41.94A2.06,2.06,0,0,1,44,63.11V84.88a2.06,2.06,0,0,1-2.06,2.06H27.28a2.05,2.05,0,0,1-2.05-2.06V63.11a2.05,2.05,0,0,1,2.05-2.06Zm12.6,4.12H29.34V82.82H39.89V65.17Zm56.65-23c-1.13-.53-3.94-1.26-4.82-2.14a10.82,10.82,0,0,1-1.93-2.62,10.82,10.82,0,0,1-1.93,2.62c-1.95,1.94-6.41,3.15-9.36,3.15S71.07,42,69.12,40.08a11.09,11.09,0,0,1-1.93-2.62,10.79,10.79,0,0,1-1.92,2.62c-1.95,1.94-6.41,3.15-9.37,3.15S48.49,42,46.54,40.08a10.82,10.82,0,0,1-1.93-2.62,10.82,10.82,0,0,1-1.93,2.62c-1.94,1.94-6.4,3.15-9.36,3.15S25.9,42,24,40.08A10.82,10.82,0,0,1,22,37.46a10.82,10.82,0,0,1-1.93,2.62c-1.28,1.28-4.66,2.24-6.45,2.75-3.59.44-7.82-.08-10.5-2.75A10.74,10.74,0,0,1,0,32.49V28.33a1.65,1.65,0,0,1,.16-.67L7.72,3.42C8.34,1.43,9.86.15,12.8,0H98.41c2.64.29,4.36,1.39,5.07,3.4,2,5.88,7.45,19.61,8.32,24.8.12,1.18,0,3,0,4.29a10.7,10.7,0,0,1-3.16,7.59c-3.17,3.17-8,3.09-12.12,2.14ZM96.5,80V74.79a2.15,2.15,0,0,1,.87-1.86c1.46-1,2.9.37,3.91,1.28,2.87,2.6,8.07,8.52,9.59,9.82a2.14,2.14,0,0,1,0,3.35C109.31,88.71,103.8,95,101,97.44c-1,.86-2.3,1.93-3.64,1a2.14,2.14,0,0,1-.87-1.85V91.39H86.37a1,1,0,0,1-1-1V81a1,1,0,0,1,1-1Z"/></svg>