<svg xmlns="http://www.w3.org/2000/svg" viewBox="0 0 1035.59 1583.32"><g data-name="Layer 2"><g data-name="Layer 1"><path fill="#33a9af" d="M979,280l-16.5-4.69L933.61,376.81a36,36,0,0,0,24.67,44.31h0a35.8,35.8,0,0,0,29.11-4.36C963.12,374.1,961.2,325.4,979,280Z"/><path fill="#a7ebf2" d="M987.39,416.76a35.64,35.64,0,0,0,15.19-20.32l28.89-101.5-13.24-3.76-4.58,29.7-13.37,6.53-6-25.66L981,298l14.79-13.18L979,280C961.2,325.4,963.12,374.1,987.39,416.76Z"/><rect width="12.98" height="99.22" x="942.39" y="403.05" fill="#33a9af" transform="rotate(15.88 948.994 452.715)"/><rect width="5.07" height="75.15" x="933.03" y="463.27" fill="#33a9af" transform="rotate(-74.11 935.552 500.843)"/><path fill="#c05e2d" d="M907.6,636.88c8-8.06,16-16,23.87-23.85,45.2-44.71-24.55-114.46-69.75-69.75l-1.93,1.93C863.27,579.75,881.67,613,907.6,636.88Z"/><path fill="#a3481f" d="M665.35,728.91c-.13-.86-.26-1.72-.39-2.82C665.18,727.91,665.3,728.74,665.35,728.91Z"/><path fill="#a3481f" d="M648.46,723.84a4.47,4.47,0,0,1,1.11.64c4.08,3.22,16.58,10.35,17.21,10.72-.29-.51-.8-2.12-1.43-6.29-.05-.17-.17-1-.39-2.82.13,1.1.26,2,.39,2.82.19.64-.71-8.76-1.06-13.66-5.27,3-10.54,5.84-12.5,7A17.08,17.08,0,0,1,648.46,723.84Z"/><path fill="#a3481f" d="M859.79,545.21C802,602.53,742.88,666,673.63,709.76c-2.51,1.58-5.92,3.56-9.34,5.49.35,4.9,1.25,14.3,1.06,13.66.63,4.17,1.14,5.78,1.43,6.29l.12.07c.25,0,.16.42-.12-.07-.63-.37-13.13-7.5-17.21-10.72a4.47,4.47,0,0,0-1.11-.64c-2.94,1-2.11-.84,0,0a17.08,17.08,0,0,0,3.33-1.6c2-1.15,7.23-4,12.5-7-.07-.91-.11-1.67-.13-2.18q-.4-12.66-.31-25.33c.11-20.69,1.09-41.37,1.5-62,1-48.85-.78-97.63-11.17-145.55-13.43-62-108.54-35.77-95.11,26.22,11.11,51.28,8,104.33,6.65,156.42-1,40.18-5.13,89.46,17.69,124.89,30.29,47,85.61,38,128,14.52C784.65,761.58,848,696.83,907.6,636.88,881.67,613,863.27,579.75,859.79,545.21Z"/><path fill="#c05e2d" d="M874,592.5s18.14,35.69,47.14,54.8c0,0,39.11-23.09,43.61-58.4l-79.21-37.62Z"/><path fill="#a3481f" d="M260.47,1301.93c52,14.41,107,14.73,160.84,10.7,24.41-1.83,49.11-4.62,71.86-13.65,41.9-16.64,72.71-52.39,101.78-86.85,4.84-5.74,9.82-11.72,11.82-19,2.21-8,.49-16.54-1.23-24.68-16.47-77.77-34.06-158.1-80.88-222.34-21.55-29.57-48.6-54.66-76.15-78.75-14.9-13-30.77-27-35.86-46.13-6.63-24.94,7.66-51.38,27.4-68s44.37-26,67.29-37.85,45.59-27.67,55.82-51.36c15-34.79-2.92-77.61-33.92-99.39S457.71,539,420.15,544c-61.69,8.28-119.26,38.91-164.8,81.35s-79.52,96.23-104,153.48c-14.68,34.41-26.2,71-25.26,108.45,2.25,90,75,166.39,79.23,256.35.71,15.09-.7,30.75-7.77,44.11-16.28,30.76-77.52,17.18-41.38,56.94C182.31,1273.42,223.78,1291.78,260.47,1301.93Z"/><path fill="#757575" d="M797.91,530.24a14.71,14.71,0,0,1-.07-12.33l67.88-150.24a14.79,14.79,0,1,1,27,12.17L824.8,530.08a14.79,14.79,0,0,1-26.89.16Z"/><rect width="57.46" height="161.43" x="874.15" y="233.06" fill="#757575" transform="rotate(23.1 902.922 313.8)"/><polygon fill="#2b2222" points="474.32 1482.02 526.13 1481.98 602.63 1573.56 474.4 1573.67 474.32 1482.02"/><polygon fill="#8b2b16" points="474.32 1482.02 527.09 1481.98 634.56 1549.61 510.14 1548.22 474.32 1482.02 474.32 1482.02"/><path fill="#2b201f" d="M634.56,1549.61l.45.16c0,7.8-14.06,14.14-31.43,14.16l-61.37-1.47c-17.29,0-31.4-6.28-31.41-14.08h-.56l-.1-.16Z"/><path fill="#2b2222" d="M474.38,1552.81a14.88,14.88,0,0,1,10.84-4.57l155.66,1.37c7.83,0,14.21,5.69,14.21,12.75s-6.36,12.79-14.19,12.8l-155.66-1.38a14.87,14.87,0,0,1-10.84-4.56Z"/><polygon fill="#2b2222" points="3.53 1490.18 55.34 1490.13 131.84 1581.72 3.62 1581.83 3.53 1490.18"/><polygon fill="#8b2b16" points="3.53 1490.18 56.3 1490.13 163.77 1557.77 39.35 1556.37 3.53 1490.18 3.53 1490.18"/><path fill="#2b201f" d="M163.77,1557.77l.45.16c0,7.79-14.06,14.14-31.43,14.15l-61.37-1.46c-17.29,0-31.4-6.28-31.41-14.08h-.55l-.11-.17Z"/><path fill="#2b2222" d="M3.6,1561a14.84,14.84,0,0,1,10.83-4.57l155.66,1.36c7.83,0,14.21,5.7,14.22,12.76s-6.36,12.79-14.2,12.8l-155.65-1.38a14.88,14.88,0,0,1-10.85-4.56Z"/><path fill="#2d2d2d" d="M286.87,1071.5C277,951.28,228.14,839,164.35,737.91,148,712,121.62,706.21,98.6,712.71c-3.45,48.55-4.74,97.15-.74,145.62C133.92,924.69,162,996.26,168.5,1071.5c12.22,141.78-77.84,267.63-157.45,377.6C-33.68,1510.89,69,1570,113.26,1508.84,205.68,1381.17,300.35,1235.59,286.87,1071.5Z"/><path fill="#2d2d2d" d="M191.64,800.73,322.2,949.86c38.08,43.49,83.19,85.82,104,140.92,43.7,115.62,41.45,251.2,46.33,373,3.05,75.91,121.43,76.3,118.37,0-5.51-137.33-5.2-289.32-56.1-419-24.06-61.33-67.48-108.37-110.27-157.24L275.34,717c-50.27-57.42-133.71,26.58-83.7,83.7Z"/><path fill="#c05e2d" d="M130.82,711.42C224.34,561.78,521.6,571.61,518.56,388.08a190.41,190.41,0,0,0-80.64-.43c-54,11.7-229.22,105-305.48,197.62C61.73,671.13,27.79,813.52,97.5,858.54,91.13,809.05,104.2,758,130.82,711.42Z"/><path fill="#ede9df" d="M518.56,388.08c3,183.53-294.22,173.7-387.74,323.34-18.2,31.85-29.86,65.79-33.51,99.9,47.11,14.8,100.74,7.82,147.64-14.91,4.22-10.58,8.2-21.32,13.14-31.51,1-1.46,63.77-92.09,156.08-73.94,51,18.78,88.21,30.89,160.15-30.5C718,537.84,633.38,413.09,518.56,388.08Z"/><path fill="#969595" d="M187.31,815.44c3.84,15.48,6.09,30.69,5.57,46A97.69,97.69,0,0,0,228.29,830l.29-.49a143.57,143.57,0,0,0-3.8-24.65A229,229,0,0,1,187.31,815.44Z"/><path fill="#5b5b5b" d="M224.78,804.89a143.57,143.57,0,0,1,3.8,24.65c6.83-10.23,11.76-21.58,16.37-33.13C238.36,799.6,231.6,802.35,224.78,804.89Z"/><path fill="#5b5b5b" d="M97.31,811.32a201.55,201.55,0,0,0,.19,47.22c12.37,8,27.94,13,47.21,14,1.39.07,2.77-.09,4.15-.09a202.5,202.5,0,0,1-11.12-53.81A169.26,169.26,0,0,1,97.31,811.32Z"/><path fill="#5b5b5b" d="M187.31,815.44a201.25,201.25,0,0,1-49.57,3.17,202.5,202.5,0,0,0,11.12,53.81,94.14,94.14,0,0,0,44-10.93C193.4,846.13,191.15,830.92,187.31,815.44Z"/><path fill="#ffb288" d="M882.44,463.2a13.65,13.65,0,0,0,17.47-7.82,13.36,13.36,0,0,0-8-17.18l-2.25-.85-55.79-20.44c-.2-.07-.4-.09-.6-.15a14.78,14.78,0,0,0-2.24-8.42,15.38,15.38,0,0,0-20.89-5l-40,24a14.7,14.7,0,0,0-5.82,18.81c-12.83,26.53-2.45,58.73,24.24,73.07l7,3.73a57.5,57.5,0,0,0,20.79,6.47l3.66,1.35,30.05,11a11.24,11.24,0,0,0,14.35-6.47,11,11,0,0,0-6.64-14.2l-1.81-.72-1-.37c.73-.49,1.46-1,2.17-1.52l9.18,3.37A13.58,13.58,0,0,0,883.67,514a13.32,13.32,0,0,0-8-17.16l-1-.41c.3-.66.56-1.32.82-2a14.87,14.87,0,0,0,18.27-8.86,14.62,14.62,0,0,0-8.85-18.88l-2.39-.92-4.11-1.51c-.18-.93-.41-1.85-.64-2.78Z"/><path fill="#ffb288" d="M600.55,515.57a57.14,57.14,0,0,0,23.6-24L638,464.85c-38.45-20.47-62.86-59.34-78.39-98.81l-37,71.37C540.62,470.93,567.69,499.78,600.55,515.57Z"/><path fill="#f38c65" d="M666.68,284.41A57.69,57.69,0,0,0,589.14,309L559.6,366c15.53,39.47,39.94,78.34,78.39,98.81L691.3,361.94A57.69,57.69,0,0,0,666.68,284.41Z"/><path fill="#683726" d="M657.75,111.65a55.24,55.24,0,0,1-11-5.51c-.8,1.27-1.64,2.5-2.34,3.85l-47.35,91.39C578.6,237,602.26,285.9,649.94,310.6l48.5,25.13c47.66,24.69,101.22,15.8,119.67-19.82l47.35-91.39c8.59-16.59,8-36,.12-54.59C794.89,155.62,725.51,136.53,657.75,111.65ZM834.69,198.1c-10.65-13.09-23.89-20-40.45-22.4-11.06-1.57-21.5-3.31-31.57-8.39-7.09-3.58-1.41-14.55,5.69-11,14.29,7.22,30.39,5.37,45,11.14,13.07,5.18,22.94,13.18,31.75,24C850.15,197.66,839.68,204.22,834.69,198.1Z"/><rect width="31.89" height="14.48" x="829.33" y="238.41" fill="#683726" transform="rotate(-62.61 845.337 245.63)"/><path fill="#ffb288" d="M801.08,165.78,759,144c-41.29-21.39-92.3-4.86-114,36.93l-1.66,3.2-45.85,88.5-.68,1.31c-16.07,31-2,86.87,41.67,145.56l2.21,1.15c56.45,53.4,133.11-19.22,149.17-50.22l.69-1.33,44.4-85.7,1.66-3.2C858.31,238.39,842.39,187.18,801.08,165.78Z"/><path fill="#683726" d="M856.54,233.07c-41.81-45.44-113.18-15.28-155-60.71,1.65-4.19,3.28-8.39,4.93-12.59,41.79,45.44,113.18,15.28,155,60.71C859.83,224.69,858.2,228.88,856.54,233.07Z"/><path fill="#683726" d="M848.15,205.47C812.54,156.56,739,180.9,703.4,132l6.22-12c35.6,48.9,108.53,25.75,144.14,74.67C851.69,198.65,850.23,201.47,848.15,205.47Z"/><path fill="#683726" d="M851.26,198.3c-35.57-48.92-108.5-25.76-144.11-74.66l6.22-12c35.62,48.91,108.54,25.75,144.12,74.66Q854.37,192.28,851.26,198.3Z"/><path fill="#5d2d1e" d="M797.69,298.22c-5.19-2.58-14-.93-17.81,6.73a4.9,4.9,0,0,0-.07,4.15l19.44,4.06C802.55,306.1,802.6,300.69,797.69,298.22Z"/><polygon fill="#ffb288" points="811.34 323.79 798.49 382.68 779.92 373.06 811.34 323.79"/><path fill="#f38c65" d="M802.73,382.57A5.73,5.73,0,0,1,796,386.9h0a5.42,5.42,0,0,1-3.93-6.7l14.33-57.77a5.75,5.75,0,0,1,6.67-4.33h0a5.4,5.4,0,0,1,3.93,6.7Z"/><path fill="#f38c65" d="M801.31,385.69c-1.19,2.29-3.69,3.35-5.63,2.34l-25.26-13.09c-1.93-1-2.52-3.65-1.34-5.94h0c1.19-2.29,3.7-3.33,5.63-2.33L800,379.75c1.94,1,2.52,3.66,1.34,5.94Z"/><polygon fill="#683726" points="749.23 176.39 690.21 140.44 646.08 190.5 586.56 322.22 712.34 247.6 749.23 176.39"/><path fill="#683726" d="M666.51,293.77S628,341.18,580.65,323c0,0,10.1-110.84,79.18-218.52L736.41,169Z"/><path fill="#f38c65" d="M661.74,224.7s-31.35,54.82,10.15,72.22L679,283.26l19.7-38,7.66-14.77C705.36,228.48,688.06,193.72,661.74,224.7Z"/><path fill="#683726" d="M697.6,271.64a8.92,8.92,0,0,1-12.24,3.06h0a8.93,8.93,0,0,1-3.05-12.24l44.42-74A9,9,0,0,1,739,185.36h0a8.92,8.92,0,0,1,3,12.25Z"/><path fill="#683726" d="M720.86,144.6a18.11,18.11,0,1,1-7.76-24.4A18.11,18.11,0,0,1,720.86,144.6Z"/><path fill="#683726" d="M671.79,198.74c-24.49,55.39-61.71,92.58-83.15,83.11s-19-62,5.49-117.43,61.69-92.6,83.14-83.11S696.27,143.35,671.79,198.74Z"/><path fill="#683726" d="M742.84,160,763.4,187l-20.22-2.28-35.07-19.9s-6.3-21.17-4.82-23.75,9.85-8,12.23-8,12.33,4.28,12.33,4.28Z"/><path fill="#683726" d="M858,221.11c-36.81-49.55-111-27-147.79-76.57q3.1-6,6.22-12c36.85,49.54,111,27,147.8,76.56Z"/><path fill="#683726" d="M575.67,262.42s10.48,30.68,5,60.61l21.53-28.28s-.41-18.19-.37-18.79S575.67,262.42,575.67,262.42Z"/><path fill="#5d2d1e" d="M767.41,264.7c19.71-7.42,44.19,2.3,53.45,21.2l-13.21,6.48c-6-12.19-22.36-18.69-35.06-13.91Z"/><path fill="#683726" d="M767.18,405c9.18-8.11,9.51-22.66,4.1-33.61-5.53-11.49-16.73-19.47-27.7-22.61A50.86,50.86,0,0,0,727,346.62a44.19,44.19,0,0,0-14,2.72c-3.74,1.36-6.41,3-9.67,4.39a18.59,18.59,0,0,1-13.18,1.16c-1.9,6.1,1.78,12.59,6.27,17,4.75,4.51,10.74,6.9,15.52,8.56l20.28,6.22c5.35,1.68,9.7,2.53,15,4.37C752.76,393.24,759.53,395.92,767.18,405Z"/><path fill="#ffb288" d="M963.46,500.06c2,5.28.23,11.07-4.33,13.35L955.88,515a18.37,18.37,0,0,1,1.87,1.3l2.82-1.38,0,0,1.72-.84c5.38-2.6,12.08.21,15,6.26,2.86,5.83,1.06,12.48-3.8,15.36a17.5,17.5,0,0,0,.74,1.59L975,537c4.86-2.4,10.95.2,13.63,5.71s.81,11.88-4,14.22L978.16,560c0,.72-.12,1.46-.17,2.14l.68-.34h0l1.26-.56c4-2,9.09.13,11.29,4.69s.7,9.83-3.28,11.75L967.13,587.8l0,0-2.37,1.13a36,36,0,0,1-13.93,7.76l-5.49,1.62c-21.83,6.53-46-7.89-54.16-32.07-.23-.76-.45-1.55-.68-2.29a13.73,13.73,0,0,1-5-12.64L891.35,515a10.23,10.23,0,0,1,9.23-8.91C920,531.07,951.27,521.55,963.46,500.06Z"/><path fill="#ffb288" d="M927.77,547.31,925,541.14a7.74,7.74,0,0,1,3.43-10.25L966,513.45a7.53,7.53,0,0,1,9.89,4.07l2.78,6.17a7.74,7.74,0,0,1-3.43,10.25l-37.54,17.44A7.52,7.52,0,0,1,927.77,547.31Z"/><path fill="#ffb288" d="M938.26,570.6l-2.78-6.18a7.72,7.72,0,0,1,3.43-10.24l37.54-17.44a7.52,7.52,0,0,1,9.88,4.07l2.78,6.17a7.73,7.73,0,0,1-3.43,10.25l-37.54,17.43A7.53,7.53,0,0,1,938.26,570.6Z"/><path fill="#ffb288" d="M953.76,579c-1.79,1.2-3.8,3.35-2.68,5.34a4.16,4.16,0,0,0,3.11,1.71c10.55,1.93,21.06-2.13,30-7.71a17.35,17.35,0,0,0,5.13-4.28,7.83,7.83,0,0,0-1.14-10.57c-3.2-3-6.75-1.46-10.07.29C969.73,568.17,961.68,573.66,953.76,579Z"/><path fill="#ffb288" d="M899.44,526.42a50,50,0,0,0,25.76,20.13c6.21,2,12.57-1.63,14.22-8.16a13.09,13.09,0,0,0-8.28-15.52c-9-3-16.4-12.34-16.69-21.35-.3-8.57,6.63-17,14-17,6.42,0,11.38-5.57,11.1-12.42s-5.73-12.38-12.14-12.37c-20,0-36.94,19.49-36.18,41.62A49,49,0,0,0,899.44,526.42Z"/><path fill="#ffb288" d="M941.42,534.94a11.87,11.87,0,0,0,11.09,5.51c19.85-2.15,34.8-23.36,32-45.4-2.52-19.88-18.46-37.36-37.88-41.58-6.34-1.39-12.3,2.94-13.33,9.64s3.3,13.26,9.64,14.63c9.25,2,17.39,10.63,18.52,19.59,1.09,8.53-5,17.67-12.28,18.46-6.35.69-10.76,6.76-9.84,13.58A13.4,13.4,0,0,0,941.42,534.94Z"/><path fill="#ffb288" d="M957,579a12.27,12.27,0,0,0,7.1,5.2c10.35,2.72,21.59,2.3,33.4-1.23,10.27-3.06,19.51-8,27.36-12.43,5.58-3.13,7.53-10.6,4.34-16.69s-10.27-8.49-15.86-5.36c-6.85,3.85-14.83,8.16-23,10.59-7.84,2.35-15.32,2.71-21.61,1.06s-12.43,2.4-13.71,9A13.33,13.33,0,0,0,957,579Z"/><path fill="#ffb288" d="M951.77,560.87a11.77,11.77,0,0,0,12.29,5.3,157.88,157.88,0,0,0,67.42-33.84c4.91-4.18,5.48-12,1.39-17.38s-11.48-6.42-16.39-2.23a136.14,136.14,0,0,1-58.15,29.19c-6.23,1.4-10,8-8.4,14.66A13.26,13.26,0,0,0,951.77,560.87Z"/><path fill="#ffb288" d="M954.18,535.89a11.62,11.62,0,0,0,13.55,4.93,141.76,141.76,0,0,0,65.47-49.33,13.13,13.13,0,0,0-2.27-17.46,11,11,0,0,0-16.29,1.67,119.4,119.4,0,0,1-55.18,41.6c-6,2.15-9,9.17-6.73,15.66A13.12,13.12,0,0,0,954.18,535.89Z"/><path fill="#683726" d="M719.44,206.82c11.94-6,11,7.43,7.95,17.28l-17,28.94a181.11,181.11,0,0,0-10.89,18.53l-1.12,1.91.17.1a118.18,118.18,0,0,0-12,48.23c-.41,11.88,8,24.27,15.18,31.63a477.24,477.24,0,0,1-47.89-34.23C651.73,317.75,709.66,211.7,719.44,206.82Z"/><path fill="#c05e2d" d="M95.52,650.93c-29.95,42.89-47.78,96.4-38.83,147.94,9.83,56.6,49.46,102.76,74.17,154.63,38.49,80.77,39.36,178.55,2.3,260,22.81,18.79,50.62,32.53,80.1,34.45s60.52-9.23,78.73-32.49c22-28.07,22-67.54,15-102.49a313.69,313.69,0,0,0-31.47-87.15c-23.72-43.94-57.66-81.7-81.57-125.54-38.94-71.41-49.05-158-27.6-236.48,3.21-11.74,7-24.6,1.95-35.66s-23.95-14.94-28.56-3.68Z"/><path fill="#c05e2d" d="M239.07,619.36s-104.33,44.76-73.41,209C165.66,828.33,33.33,630.88,239.07,619.36Z"/><path fill="#c05e2d" d="M54.37,771.37l4.89,449.93s125.1,93.75,232.73-5.85Z"/><path fill="#a3481f" d="M165.6,874.32,125,819.06c-9.15-12.44-17.79-24.2-23.4-37-17.67-40.3-22-84.85-12.39-125.72-19.6,7-37.36,15.9-44.17,35.71A244.36,244.36,0,0,0,65.43,798c7.35,16.76,17.71,30.85,27.73,44.49l40.65,55.26c18,24.51,32.93,46.68,32.65,69.86l39.45.48C206.37,929.76,182.8,897.72,165.6,874.32Z"/><path fill="#e2d9bf" d="M601.86,515.07c-40.79-6.24-75.66-40.65-82.45-81.35-1.19-7.12-1.58-14.5.24-21.49,2.47-9.5,17.89-32.31,30-31,11,1.24,7,30.86,8.6,41C563.59,456.47,578.7,489.23,601.86,515.07Z"/><path fill="#e2d9bf" d="M597.46,514.55c4.12,1.19,8.48-.42,12.42-2.11q10.08-4.34,19.74-9.54a35.53,35.53,0,0,0,8.22-5.57,19.36,19.36,0,0,0,5.72-14.05c-.1-4.52-1.9-12.62-7.71-11.35-4.13.91-9,11.4-11.42,14.67C616.74,497.06,608.14,507,597.46,514.55Z"/><path fill="#e2d9bf" d="M591.15,476.5c-8.94-16-23.41-28.84-29.47-46.11-1.76-5-2.8-10.33-5.59-14.83-7,15.43-14.17,32.5-9.59,48.82,4.51,16.07,19.09,26.83,32.06,37.33,4.06,3.29,21.05,19.77,22.47,7.94C602.28,499.24,596.08,485.31,591.15,476.5Z"/><path fill="#e2d9bf" d="M612.91,489.05A48,48,0,0,1,635,472.6c2,3.76,1.8,8.42.31,12.42s-4.13,7.46-6.85,10.75a82.74,82.74,0,0,1-10.55,10.87c-2.53,2.11-9.68,8.43-13.29,7.73C596.79,512.85,610.42,492.29,612.91,489.05Z"/><path fill="#a3481f" d="M485.14,474.28c-19.58,24.58-46.64,42-74,57.46-52.29,29.6-103.61,51-172.08,87.62C256.58,628,406.3,588,424.47,582c88.78-29.32,149.2-127.25,135.58-219.76C491.27,353,515.65,436,485.14,474.28Z"/><path fill="#ed6464" d="M585.24,516a18.36,18.36,0,0,0,1,7.09l4.41,15.52,10-8.38c2.73-2.28,5.51-4.63,7.27-7.73,3-5.3,2.76-21.85-5.21-23.18C597.39,498.39,585.83,511,585.24,516Z"/><path fill="#ed6464" d="M532.93,860.69c-13.26-29.88-17.17-61.83-15.64-91.81s8.11-58.82,17.08-86.16c18-54.48,44.31-103.44,59.59-157.41-7.21,55.63-26.42,109.63-35.68,163.43-4.61,26.75-6.53,53.72-4,79.45s9.74,50,22.41,69.72Z"/><path fill="#c05e2d" d="M742.87,484.1c-23.3,62-79.75,196-154,167-70.65-27.56-79.49-143.06-76.15-205,3.44-63.43-95.21-63.24-98.63,0C408.21,554.88,444.21,708.77,563,746.32c142.37,45,230-120.48,273.4-232.21C826.66,476.83,779.48,448.15,742.87,484.1Z"/><path fill="#a3481f" d="M748.81,468c-1.64,4.5-3.64,9.95-5.94,16.09,36.61-36,83.79-7.27,93.56,30,2.66-6.84,5.17-13.5,7.5-19.88C865.73,434.51,770.44,408.76,748.81,468Z"/><path fill="#54293a" d="M574.63,234.08s136.11,16.85,294.26-17.76l-32.23,63.86S665.42,290.72,577.31,268C577.31,268,571.28,248.29,574.63,234.08Z" opacity=".32"/><path fill="#601a0f" d="M746.91,132.41c20.11-3.74,40.33-7.48,60.78-7.81a183.93,183.93,0,0,1,99.74,27.77c9.46,5.91,19.22,14.17,19.83,25.31.85,15.49-15.82,25.58-30.48,30.64-35.53,12.28-73.22,16.7-110.57,21-62.43,7.25-125.46,14.51-188,8.17-24.07-2.44-48.9-7.29-68.31-21.74-4-3-8-6.85-8.49-11.83-3.13-32.62,63.53-41.91,84.9-45.43C653.31,150.79,700.07,141.12,746.91,132.41Z"/><path fill="#8b2b16" d="M594.16,167.51q7-34.08,14-68.17c2.46-12,5-24.27,11.37-34.76s17.28-19,29.54-19.09c11.56-.06,23.79,7.12,34,1.71C692,42.5,694,31,696.28,21.22S704.3.08,714.35,0c3.66,0,7.13,1.55,10.38,3.25C755,19.09,777.13,47.18,794,76.93c13,22.93,25.59,47.51,35.63,71.95C755.51,176.05,673.7,178.34,594.16,167.51Z"/><path fill="#f4a637" d="M829.58,148.88c.29.69.62,1.38.9,2.07,11,27.05-8.27,28.17-31.72,31.39a1150.18,1150.18,0,0,1-209.59,9.43q2.49-12.14,5-24.26C673.7,178.34,755.51,176.05,829.58,148.88Z"/><path fill="#a3481f" d="M742.87,484.1V443.24s33.91-24.07,78.51-3.56l-9.19,39.07S779.12,452.52,742.87,484.1Z"/><path fill="#f4a637" d="M932.78,620.56a6.71,6.71,0,1,1-6.71-6.7A6.7,6.7,0,0,1,932.78,620.56Z"/><path fill="#f4a637" d="M764.53,455a6.15,6.15,0,1,1-6.14-6.15A6.14,6.14,0,0,1,764.53,455Z"/><path fill="#601a0f" d="M86.23,771.37a7.78,7.78,0,1,1-7.78-7.79A7.78,7.78,0,0,1,86.23,771.37Z"/><path fill="#601a0f" d="M122.44,833.19a7.78,7.78,0,1,1-7.78-7.78A7.78,7.78,0,0,1,122.44,833.19Z"/><path fill="#601a0f" d="M164.43,894.72a7.79,7.79,0,1,1-7.78-7.78A7.78,7.78,0,0,1,164.43,894.72Z"/></g></g></svg>