<svg id="visual" viewBox="0 0 900 600" width="900" height="600" xmlns="http://www.w3.org/2000/svg" xmlns:xlink="http://www.w3.org/1999/xlink" version="1.1"><g stroke-width="1" stroke-linejoin="bevel"><path d="M498 290L535 412L591 336Z" fill="#246688" stroke="#246688"></path><path d="M535 412L615 399L591 336Z" fill="#1d4e6b" stroke="#1d4e6b"></path><path d="M498 290L417 423L535 412Z" fill="#205a7a" stroke="#205a7a"></path><path d="M690 287L617 210L591 336Z" fill="#205a7a" stroke="#205a7a"></path><path d="M591 336L617 210L498 290Z" fill="#246688" stroke="#246688"></path><path d="M417 423L469 509L535 412Z" fill="#277297" stroke="#277297"></path><path d="M535 412L614 527L615 399Z" fill="#246688" stroke="#246688"></path><path d="M615 399L690 287L591 336Z" fill="#297ea6" stroke="#297ea6"></path><path d="M435 163L369 273L498 290Z" fill="#205a7a" stroke="#205a7a"></path><path d="M498 290L369 273L417 423Z" fill="#15384f" stroke="#15384f"></path><path d="M617 210L480 167L498 290Z" fill="#081a28" stroke="#081a28"></path><path d="M369 273L339 308L417 423Z" fill="#0c2435" stroke="#0c2435"></path><path d="M417 423L401 533L469 509Z" fill="#081a28" stroke="#081a28"></path><path d="M469 509L614 527L535 412Z" fill="#0c2435" stroke="#0c2435"></path><path d="M615 399L735 410L690 287Z" fill="#081a28" stroke="#081a28"></path><path d="M480 167L435 163L498 290Z" fill="#081a28" stroke="#081a28"></path><path d="M369 273L323 235L339 308Z" fill="#205a7a" stroke="#205a7a"></path><path d="M339 308L317 367L417 423Z" fill="#1d4e6b" stroke="#1d4e6b"></path><path d="M614 527L665 515L615 399Z" fill="#00101c" stroke="#00101c"></path><path d="M665 515L735 410L615 399Z" fill="#00101c" stroke="#00101c"></path><path d="M332 472L401 533L417 423Z" fill="#00101c" stroke="#00101c"></path><path d="M469 509L529 600L614 527Z" fill="#246688" stroke="#246688"></path><path d="M317 367L332 472L417 423Z" fill="#19435d" stroke="#19435d"></path><path d="M435 163L323 235L369 273Z" fill="#19435d" stroke="#19435d"></path><path d="M339 308L190 323L317 367Z" fill="#1d4e6b" stroke="#1d4e6b"></path><path d="M480 167L462 123L435 163Z" fill="#246688" stroke="#246688"></path><path d="M435 163L318 100L323 235Z" fill="#297ea6" stroke="#297ea6"></path><path d="M622 97L462 123L480 167Z" fill="#246688" stroke="#246688"></path><path d="M832 501L762 402L735 410Z" fill="#277297" stroke="#277297"></path><path d="M735 410L762 402L690 287Z" fill="#205a7a" stroke="#205a7a"></path><path d="M690 287L727 210L617 210Z" fill="#297ea6" stroke="#297ea6"></path><path d="M617 210L622 97L480 167Z" fill="#112e42" stroke="#112e42"></path><path d="M804 290L727 210L690 287Z" fill="#297ea6" stroke="#297ea6"></path><path d="M395 600L529 600L469 509Z" fill="#1d4e6b" stroke="#1d4e6b"></path><path d="M614 527L698 600L665 515Z" fill="#1d4e6b" stroke="#1d4e6b"></path><path d="M529 600L563 600L614 527Z" fill="#297ea6" stroke="#297ea6"></path><path d="M669 85L622 97L617 210Z" fill="#297ea6" stroke="#297ea6"></path><path d="M762 402L804 290L690 287Z" fill="#00101c" stroke="#00101c"></path><path d="M727 210L669 85L617 210Z" fill="#0c2435" stroke="#0c2435"></path><path d="M286 600L395 600L401 533Z" fill="#00101c" stroke="#00101c"></path><path d="M401 533L395 600L469 509Z" fill="#112e42" stroke="#112e42"></path><path d="M777 184L669 85L727 210Z" fill="#19435d" stroke="#19435d"></path><path d="M439 0L375 88L462 123Z" fill="#277297" stroke="#277297"></path><path d="M804 290L777 184L727 210Z" fill="#205a7a" stroke="#205a7a"></path><path d="M510 0L462 123L622 97Z" fill="#246688" stroke="#246688"></path><path d="M462 123L375 88L435 163Z" fill="#081a28" stroke="#081a28"></path><path d="M563 600L698 600L614 527Z" fill="#277297" stroke="#277297"></path><path d="M665 515L832 501L735 410Z" fill="#1d4e6b" stroke="#1d4e6b"></path><path d="M762 402L900 362L804 290Z" fill="#0c2435" stroke="#0c2435"></path><path d="M375 88L318 100L435 163Z" fill="#277297" stroke="#277297"></path><path d="M323 235L190 323L339 308Z" fill="#277297" stroke="#277297"></path><path d="M211 208L190 323L323 235Z" fill="#112e42" stroke="#112e42"></path><path d="M317 367L183 493L332 472Z" fill="#297ea6" stroke="#297ea6"></path><path d="M332 472L286 600L401 533Z" fill="#277297" stroke="#277297"></path><path d="M773 600L832 501L665 515Z" fill="#15384f" stroke="#15384f"></path><path d="M318 100L211 208L323 235Z" fill="#297ea6" stroke="#297ea6"></path><path d="M581 0L510 0L622 97Z" fill="#00101c" stroke="#00101c"></path><path d="M375 88L300 0L318 100Z" fill="#297ea6" stroke="#297ea6"></path><path d="M183 493L286 600L332 472Z" fill="#19435d" stroke="#19435d"></path><path d="M669 85L581 0L622 97Z" fill="#081a28" stroke="#081a28"></path><path d="M710 0L581 0L669 85Z" fill="#00101c" stroke="#00101c"></path><path d="M698 600L773 600L665 515Z" fill="#15384f" stroke="#15384f"></path><path d="M510 0L439 0L462 123Z" fill="#0c2435" stroke="#0c2435"></path><path d="M86 364L170 383L86 330Z" fill="#277297" stroke="#277297"></path><path d="M190 323L170 383L317 367Z" fill="#205a7a" stroke="#205a7a"></path><path d="M832 501L900 362L762 402Z" fill="#246688" stroke="#246688"></path><path d="M804 290L900 234L777 184Z" fill="#277297" stroke="#277297"></path><path d="M170 383L183 493L317 367Z" fill="#1d4e6b" stroke="#1d4e6b"></path><path d="M900 362L900 319L804 290Z" fill="#297ea6" stroke="#297ea6"></path><path d="M900 319L900 234L804 290Z" fill="#15384f" stroke="#15384f"></path><path d="M777 184L818 85L669 85Z" fill="#0c2435" stroke="#0c2435"></path><path d="M900 122L818 85L777 184Z" fill="#0c2435" stroke="#0c2435"></path><path d="M769 0L710 0L669 85Z" fill="#00101c" stroke="#00101c"></path><path d="M900 600L900 517L832 501Z" fill="#081a28" stroke="#081a28"></path><path d="M832 501L900 517L900 362Z" fill="#277297" stroke="#277297"></path><path d="M439 0L300 0L375 88Z" fill="#0c2435" stroke="#0c2435"></path><path d="M167 137L139 197L211 208Z" fill="#277297" stroke="#277297"></path><path d="M167 137L211 208L318 100Z" fill="#112e42" stroke="#112e42"></path><path d="M211 208L139 197L190 323Z" fill="#112e42" stroke="#112e42"></path><path d="M170 383L127 477L183 493Z" fill="#297ea6" stroke="#297ea6"></path><path d="M208 0L167 137L318 100Z" fill="#1d4e6b" stroke="#1d4e6b"></path><path d="M86 364L127 477L170 383Z" fill="#1d4e6b" stroke="#1d4e6b"></path><path d="M183 493L182 600L286 600Z" fill="#1d4e6b" stroke="#1d4e6b"></path><path d="M818 85L769 0L669 85Z" fill="#112e42" stroke="#112e42"></path><path d="M127 477L182 600L183 493Z" fill="#112e42" stroke="#112e42"></path><path d="M900 234L900 122L777 184Z" fill="#246688" stroke="#246688"></path><path d="M818 85L900 0L769 0Z" fill="#0c2435" stroke="#0c2435"></path><path d="M86 330L170 383L190 323Z" fill="#00101c" stroke="#00101c"></path><path d="M139 197L86 330L190 323Z" fill="#15384f" stroke="#15384f"></path><path d="M167 137L135 138L139 197Z" fill="#0c2435" stroke="#0c2435"></path><path d="M139 197L0 306L86 330Z" fill="#081a28" stroke="#081a28"></path><path d="M208 0L135 138L167 137Z" fill="#277297" stroke="#277297"></path><path d="M773 600L900 600L832 501Z" fill="#205a7a" stroke="#205a7a"></path><path d="M300 0L208 0L318 100Z" fill="#15384f" stroke="#15384f"></path><path d="M900 122L900 0L818 85Z" fill="#112e42" stroke="#112e42"></path><path d="M0 426L127 477L86 364Z" fill="#112e42" stroke="#112e42"></path><path d="M0 500L77 600L127 477Z" fill="#081a28" stroke="#081a28"></path><path d="M127 477L77 600L182 600Z" fill="#297ea6" stroke="#297ea6"></path><path d="M0 169L0 306L139 197Z" fill="#081a28" stroke="#081a28"></path><path d="M86 330L0 306L86 364Z" fill="#00101c" stroke="#00101c"></path><path d="M0 169L139 197L135 138Z" fill="#205a7a" stroke="#205a7a"></path><path d="M0 306L0 426L86 364Z" fill="#00101c" stroke="#00101c"></path><path d="M0 426L0 500L127 477Z" fill="#081a28" stroke="#081a28"></path><path d="M0 137L0 169L135 138Z" fill="#277297" stroke="#277297"></path><path d="M208 0L80 0L135 138Z" fill="#081a28" stroke="#081a28"></path><path d="M80 0L0 137L135 138Z" fill="#00101c" stroke="#00101c"></path><path d="M0 500L0 600L77 600Z" fill="#112e42" stroke="#112e42"></path><path d="M80 0L0 0L0 137Z" fill="#081a28" stroke="#081a28"></path></g></svg>