<svg xmlns="http://www.w3.org/2000/svg" data-name="1" viewBox="0 0 4680 3120"><rect width="4680" height="3120" fill="#fff" opacity="0"/><ellipse cx="2278.01" cy="2728.18" fill="#ffe3c2" rx="1141.79" ry="131.82"/><ellipse cx="2372.65" cy="1328.71" fill="#ffe3c2" rx="1272.13" ry="1068.71"/><path fill="#fff6e7" d="M1100.52,1328.71a908.19,908.19,0,0,0,17.29,176.1H2392.15V260.21c-6.5-.08-13-.21-19.5-.21C1670.07,260,1100.52,738.48,1100.52,1328.71Z"/><path fill="#fffff4" d="M1107.33,1217.65a906.81,906.81,0,0,0,10.48,287.16h264.27L2392.15,780.65V540l-19.5-207Z"/><path fill="#ffcc9c" d="M2413.39,260.6c-13.53-.36-27.1-.6-40.74-.6l-1.44,0V1490.54H1874.75V345q-21.32,7.62-42.18,15.91V1490.54H1406.69V633.33q-21.76,21.33-42.19,43.61v813.6H1115q2.79,15.42,6.13,30.68H2414.34v-30.68h-1Z"/><path fill="#ffcc9c" d="M2985.07,391.83V2265.58c393.22-181.79,659.71-533.17,659.71-936.87S3378.29,573.62,2985.07,391.83Z"/><polygon fill="#ffb083" points="1341.65 1490.54 1364.5 1490.54 1364.5 676.94 1341.65 702.51 1341.65 1490.54"/><polygon fill="#ffb083" points="1802.32 1490.54 1832.57 1490.54 1832.57 360.9 1802.32 373.18 1802.32 1490.54"/><polygon fill="#ffb083" points="2343.52 1490.54 2371.21 1490.54 2372.65 260 2343.52 260 2343.52 1490.54"/><rect width="1032.7" height="700.67" x="1661.94" y="926" fill="#4c6000"/><rect width="971.07" height="623.43" x="1692.76" y="964.62" fill="#b3b300"/><rect width="971.07" height="12.97" x="1692.76" y="964.62" fill="#310000"/><rect width="315.65" height="115.42" x="2024.6" y="1626.68" fill="#310000"/><polygon fill="#333900" points="1961.88 1742.1 1920.17 1820.9 2456.4 1820.9 2390.78 1742.1 1961.88 1742.1"/><rect width="1542.06" height="40.13" x="1544.96" y="1820.9" fill="#bf6000"/><rect width="652.11" height="55.66" x="2164.58" y="1861.03" fill="#7e1518"/><rect width="544.63" height="895.24" x="1619.95" y="1861.03" fill="#bf6000"/><rect width="482.31" height="199.88" x="1648.07" y="2207.2" fill="#e07200"/><rect width="482.31" height="15.96" x="1648.07" y="2207.2" fill="#e28100"/><rect width="482.31" height="199.88" x="1648.07" y="2496.43" fill="#e07200"/><rect width="482.31" height="326.33" x="1648.07" y="1861.03" fill="#7e1518"/><rect width="451.09" height="14.06" x="1661.94" y="2449.16" fill="#7e1518"/><circle cx="1885.94" cy="2287.85" r="22.26" fill="#7e1518" transform="rotate(-45 1885.947 2287.845)"/><circle cx="1885.94" cy="2596.91" r="22.26" fill="#7e1518" transform="rotate(-45 1885.944 2596.906)"/><path fill="#ff5b00" d="M1733.67,2138.44V2146a45.09,45.09,0,0,0,45.09,45.09h287.6v-97.71h-287.6A45.1,45.1,0,0,0,1733.67,2138.44Z"/><path fill="#ffcc9c" d="M1772.44,2139.87v4.65a27.92,27.92,0,0,0,27.92,27.92h265.23V2112H1800.36A27.92,27.92,0,0,0,1772.44,2139.87Z"/><path fill="#eb2900" d="M1681.71,2042.28v7.51a45.1,45.1,0,0,0,45.09,45.1h374.46v-97.71H1726.8A45.1,45.1,0,0,0,1681.71,2042.28Z"/><path fill="#ffe3c2" d="M1720.48,2043.71v4.65a27.92,27.92,0,0,0,27.92,27.92h352.09v-60.49H1748.4A27.92,27.92,0,0,0,1720.48,2043.71Z"/><rect width="250.24" height="8.27" x="1852.59" y="2028.71" fill="#ffb083"/><rect width="128.22" height="8.28" x="1974.61" y="2051.46" fill="#ffb083"/><rect width="128.22" height="8.28" x="1937.38" y="2124.87" fill="#ffb083"/><rect width="482.31" height="15.96" x="1648.07" y="2494.35" fill="#e28100"/><rect width="482.31" height="55.66" x="1648.07" y="1861.03" fill="#540000"/><polygon fill="#4c6000" points="1961.88 1742.1 1951.03 1762.6 2404.31 1762.6 2390.78 1742.1 1961.88 1742.1"/><polygon fill="#333900" points="1692.76 1588.06 1703.15 1588.06 1703.15 977.59 1692.76 964.62 1692.76 1588.06"/><path fill="#7e1518" d="M2166.87,753.77a56.62,56.62,0,0,0-56.55,56.55v40.95a8,8,0,1,0,16,0V810.32a40.54,40.54,0,1,1,81.07,0v40.95a8,8,0,0,0,16,0V810.32A56.62,56.62,0,0,0,2166.87,753.77Z"/><path fill="#ff8b00" d="M2166.87,740.33a65.59,65.59,0,0,0-65.52,65.52V853.3a9.28,9.28,0,1,0,18.55,0V805.85a47,47,0,0,1,93.94,0V853.3a9.28,9.28,0,1,0,18.55,0V805.85A65.59,65.59,0,0,0,2166.87,740.33Z"/><rect width="186.31" height="163.46" x="2073.71" y="875.27" fill="#ff9700"/><rect width="186.31" height="163.46" x="2073.71" y="853.3" fill="#ffce00"/><rect width="19.09" height="115.13" x="2228.93" y="875.27" fill="#ffe559" rx="8.81"/><path fill="#7e1518" d="M2166.87,907.31a10.49,10.49,0,1,0,10.49,10.49A10.48,10.48,0,0,0,2166.87,907.31Z"/><path fill="#7e1518" d="M2166.87,905a12.78,12.78,0,1,0,12.78,12.78A12.79,12.79,0,0,0,2166.87,905Zm0,21a8.2,8.2,0,1,1,8.2-8.2A8.21,8.21,0,0,1,2166.87,926Z"/><path fill="#7e1518" d="M2166.87,915.51a2.28,2.28,0,0,0-2.29,2.29v45a2.29,2.29,0,1,0,4.58,0v-45A2.29,2.29,0,0,0,2166.87,915.51Z"/><path fill="#310000" d="M2135,1139.51a30.51,30.51,0,0,0-9.67-6.34,33.37,33.37,0,0,0-24.55,0,29.44,29.44,0,0,0-16.08,15.88,29,29,0,0,0-2.31,11.55v.17a29.62,29.62,0,0,0,2.26,11.55,28.23,28.23,0,0,0,6.34,9.38,30.16,30.16,0,0,0,9.66,6.33,33.26,33.26,0,0,0,24.56,0,29.36,29.36,0,0,0,9.7-6.41,29.79,29.79,0,0,0,6.38-9.46,29.17,29.17,0,0,0,2.3-11.56v-.16a29.57,29.57,0,0,0-2.26-11.56A28.42,28.42,0,0,0,2135,1139.51Zm-4.65,21.26a18.86,18.86,0,0,1-1.28,7,18.38,18.38,0,0,1-3.53,5.72,16.05,16.05,0,0,1-5.48,3.86,17.28,17.28,0,0,1-7,1.4,16.8,16.8,0,0,1-7-1.44,17.38,17.38,0,0,1-9.13-9.67,19.15,19.15,0,0,1-1.28-7v-.16a18.86,18.86,0,0,1,1.28-7,18.22,18.22,0,0,1,3.54-5.72,16.11,16.11,0,0,1,5.43-3.87,17.23,17.23,0,0,1,7-1.39,16.88,16.88,0,0,1,7,1.44,17.22,17.22,0,0,1,9.17,9.66,19.23,19.23,0,0,1,1.28,7Z"/><polygon fill="#310000" points="2148.32 1143.5 2165.84 1143.5 2165.84 1189.39 2178.51 1189.39 2178.51 1143.5 2196.03 1143.5 2196.03 1131.82 2148.32 1131.82 2148.32 1143.5"/><path fill="#310000" d="M2245.42,1137.32a19.64,19.64,0,0,0-6.91-4.07,27.64,27.64,0,0,0-9.25-1.44h-23.53v57.58h12.67v-17.27H2228a31.35,31.35,0,0,0,9.09-1.28,21.63,21.63,0,0,0,7.41-3.82,17.89,17.89,0,0,0,5-6.33,20.15,20.15,0,0,0,1.81-8.81v-.16a20.8,20.8,0,0,0-1.52-8.1A18,18,0,0,0,2245.42,1137.32Zm-7,14.81a8.24,8.24,0,0,1-2.63,6.21c-1.76,1.68-4.23,2.51-7.41,2.51h-10v-17.6h9.79a11.64,11.64,0,0,1,7.52,2.22,7.85,7.85,0,0,1,2.76,6.5Z"/><rect width="447.08" height="95.83" x="1943.33" y="1251.97" fill="#fffff4"/><rect width="143.21" height="30.69" x="2095.26" y="1427.28" fill="#4c6000"/><path fill="#4c6000" d="M2006.05,1285.1a15.82,15.82,0,1,0,15.82,15.82A15.82,15.82,0,0,0,2006.05,1285.1Z"/><path fill="#4c6000" d="M2082.43,1285.1a15.82,15.82,0,1,0,15.82,15.82A15.82,15.82,0,0,0,2082.43,1285.1Z"/><path fill="#4c6000" d="M2158.82,1285.1a15.82,15.82,0,1,0,15.82,15.82A15.82,15.82,0,0,0,2158.82,1285.1Z"/><path fill="#4c6000" d="M2235.2,1285.1a15.82,15.82,0,1,0,15.82,15.82A15.82,15.82,0,0,0,2235.2,1285.1Z"/><path fill="#4c6000" d="M2311.58,1285.1a15.82,15.82,0,1,0,15.82,15.82A15.83,15.83,0,0,0,2311.58,1285.1Z"/><polygon fill="#fff" points="1703.15 1442.63 1703.15 1588.06 1920.17 1588.06 2663.82 1132.77 2663.82 977.59 2447.22 977.59 1703.15 1442.63" opacity=".3"/><rect width="416.33" height="397.12" x="2472.83" y="417.34" fill="#7e1518"/><rect width="416.33" height="373.07" x="2472.83" y="417.34" fill="#eb2900"/><rect width="416.33" height="25.51" x="2472.83" y="391.83" fill="#ff8b5b"/><rect width="288.45" height="215.78" x="2536.77" y="537.99" fill="#ff8b5b"/><polygon fill="#ffbf86" points="2508.12 709.56 2760.13 737.13 2825.22 665.82 2825.22 537.99 2536.77 537.99 2508.12 709.56"/><circle cx="2680.99" cy="473.49" r="17.17" fill="#7e1518"/><polygon fill="#ffe3c2" points="2760.13 737.13 2825.22 665.82 2747.78 665.82 2760.13 737.13"/><path fill="#747900" d="M1359.17,2060c-15.7-32.23-79.58-160.28-105.58-164.61-33.07,23.14,26.45,456.26,124,522.39,95.31,49.29-14.8-348.3-16.12-353.07Z"/><path fill="#747900" d="M1361.43,2064.65l0,0,1.24,2.6Z"/><path fill="#747900" d="M1399.26,2218.13c9.92,178.54,119,61.17,115.72-23.14s24.8-287.64,24.8-287.64S1389.34,2039.6,1399.26,2218.13Z"/><path fill="#666800" d="M1430.67,2426.43C1609.21,2175.15,1538.12,1909,1538.12,1909,1554.66,1990,1265.36,2142.09,1430.67,2426.43Z"/><path fill="#747900" d="M1558.37,2270.27c-14.88,107.46,137.21-84.31,185.15-238C1743.52,2032.22,1573.25,2162.82,1558.37,2270.27Z"/><path fill="#ccdb00" d="M1430.47,1733.37c-14.88-76-72.74,84.31-72.74,84.31-36.36,119,81,424.85,59.52,251.28C1372.61,1908.6,1445.35,1809.41,1430.47,1733.37Z"/><path fill="#666800" d="M1507.12,2414.09c205-34.71,236.4-381.87,236.4-381.87C1662.51,2238.86,1446,2339.7,1507.12,2414.09Z"/><path fill="#ccdb00" d="M1546.25,2402.89c140.51-46.29,267.8-107.46,282.68-160.36C1828.93,2242.53,1576,2278.9,1546.25,2402.89Z"/><path fill="#666800" d="M1139.52,2022.67c1.65,67.78,31.41,357.07,248,383.52C1392.68,2406.83,1213.91,2283.86,1139.52,2022.67Z"/><path fill="#747900" d="M1136.22,2019.36c62.81,295.91,198.37,363.69,218.21,325.67C1332.94,2173.1,1136.22,2019.36,1136.22,2019.36Z"/><path fill="#b3b300" d="M1037,2185.78c-24.8,51.24,211.6,254.58,347.15,239.7C1384.18,2425.48,1195.73,2215.53,1037,2185.78Z"/><path fill="#bb3618" d="M1320.29,2702a41.25,41.25,0,0,0,40.08,31.47h161.11a41.27,41.27,0,0,0,40.64-34.1l33-187.42-321.72-1.65Z"/><path fill="#b3b300" d="M1509.88,2411.15c-33.07,49.6,271.11-8.26,315.74-162,0,0-52.9,39.67-122.33,47.94S1542.94,2361.56,1509.88,2411.15Z"/><path fill="#b3b300" d="M1364.35,1806.11c-46.29,81-23.15,299.21-6.62,451.3s38,196.72,74.39,162c19.84-43,59.52-243-13.22-365.34S1364.35,1806.11,1364.35,1806.11Z"/><path fill="#b3b300" d="M1533,2224.35c-26.45,104.15-112.42,180.19-114.07,186.8,0,0-16.53,109.11,87.62,31.41s89.26-363.69,74.39-439.73S1559.42,2120.2,1533,2224.35Z"/><path fill="#ccdb00" d="M1514.78,2194.59c-28.1,158.7-77.7,218.22-77.7,218.22S1580.91,2264,1577.6,1983C1577.6,1983,1542.88,2035.89,1514.78,2194.59Z"/><path fill="#b3b300" d="M1146.13,1850.74c-51.24,81,170.28,509.17,251.28,570.33C1397.41,2421.07,1265.16,1890.42,1146.13,1850.74Z"/><path fill="#bb3618" d="M1609.62,2425.68l-347.7-4.21a21.41,21.41,0,0,0-19.88,30l20.82,47.71a21.4,21.4,0,0,0,19.62,12.84h312.66a21.41,21.41,0,0,0,20.35-14.75l14.22-43.51A21.4,21.4,0,0,0,1609.62,2425.68Z"/><polygon fill="#7e1518" points="1289.14 2574.64 1595.14 2510.34 1273.42 2510.34 1289.14 2574.64"/><polygon fill="#666800" points="2253.77 1540.63 2385.51 1672.37 2471.46 1632.83 2339.71 1501.09 2253.77 1540.63"/><polygon fill="#ffe3c2" points="2273.98 1530.08 2405.72 1661.82 2491.67 1622.28 2359.93 1490.54 2273.98 1530.08"/><polygon fill="#fffff4" points="2405.72 1661.82 2491.67 1622.28 2359.93 1490.54 2405.72 1661.82"/><path fill="#ff7951" d="M2770.36,2620.34v-77.92h-103.7v84.95L2556,2669.62a48.65,48.65,0,0,0-26.61,24.62h0a18.82,18.82,0,0,0,17,26.87h188a47.76,47.76,0,0,0,46.34-59.35Z"/><polygon fill="#ff5518" points="2666.66 2579.33 2770.36 2620.34 2770.36 2542.42 2666.66 2542.42 2666.66 2579.33"/><path fill="#ff9a74" d="M2529.83,2655.49v-77.92h-103.7v84.95l-110.65,42.25a48.6,48.6,0,0,0-26.6,24.62h0a18.82,18.82,0,0,0,17,26.88h188a47.77,47.77,0,0,0,46.35-59.36Z"/><polygon fill="#ff5518" points="2426.13 2614.48 2529.83 2655.49 2529.83 2577.57 2426.13 2577.57 2426.13 2614.48"/><path fill="#ff9a74" d="M2941.71,964.62l-215,69.75-5.32,81.41-8.75,12.64a26,26,0,0,0,3,33.16l14,14,18,43.11a57.61,57.61,0,0,0,53.16,35.4h40.14l14.06,46.87,130.07-38.67-10.55-83.19Z"/><path fill="#7e1518" d="M3018,1031.93a175.92,175.92,0,0,0-66-109L2930,906a85.76,85.76,0,0,0-78-13.83l-87.15,27.42a77.41,77.41,0,0,0-41.82,31.9h0q-1.93,3-3.56,6.11c-20.43,39.09.67,87.36,42,102.89l14.55,5.47,1.24,50.88a16.05,16.05,0,0,0,20.77,15l15.78-4.86h27.35a45.55,45.55,0,0,1,32.64,13.77l51.85,53.24a38.12,38.12,0,0,0,31.67,8.43h0a38.11,38.11,0,0,0,27.91-22.13l20.67-47A175.83,175.83,0,0,0,3018,1031.93Z"/><path fill="#bb3618" d="M2946.9,933.16c-23.11-20.64-43.44-27.4-44.3-27.68a4.28,4.28,0,0,0-2.65,8.14c.19.06,19.47,6.47,41.25,25.92,20.22,18.06,46.57,51.27,57.24,106.91a4.28,4.28,0,0,0,4.2,3.47,3.71,3.71,0,0,0,.81-.08,4.28,4.28,0,0,0,3.4-5C2995.73,986.84,2968.11,952.1,2946.9,933.16Z"/><path fill="#ff5518" d="M2854,1244l-13.1,10.06,12.58,29.3,9.82-33A5.93,5.93,0,0,0,2854,1244Z"/><path fill="#bb3618" d="M2419.64,2047.3a136.44,136.44,0,0,0-94.36,161.83l90.31,387.78,124.79-8.79-8.79-370.87h324.64a268.3,268.3,0,0,0,154.34-48.84l94.9-66.75-355-151.69Z"/><path fill="#7e1518" d="M3006.14,2171.52l99.33-69.86-355-151.69S2777.63,2157.43,3006.14,2171.52Z"/><path fill="#7e1518" d="M2532.17,2199.18l-54.49-31.66a4.63,4.63,0,1,0-4.66,8l54.48,31.67a4.64,4.64,0,0,0,4.67-8Z"/><path fill="#7e1518" d="M2514.61,2223.31l-40.43,10.54a4.64,4.64,0,0,0,1.16,9.13,4.77,4.77,0,0,0,1.18-.15l40.42-10.55a4.63,4.63,0,0,0-2.33-9Z"/><polygon fill="#7e1518" points="2577.29 2217.25 2647.6 2577.57 2784.7 2577.57 2770.63 2217.25 2577.29 2217.25"/><polygon fill="#310000" points="2577.29 2217.25 2774.89 2326.26 2770.63 2217.25 2577.29 2217.25"/><rect width="697.79" height="33.4" x="2598.38" y="2217.25" fill="#333900"/><path fill="#ff8b00" d="M3171.8,1554.24a628.55,628.55,0,0,0-69.3-230.63l-10.79-20.5a91.3,91.3,0,0,0-65.78-47.51h0a266.84,266.84,0,0,0-149.1,18h0a266.83,266.83,0,0,0-134.46,128l-114.69,234.49,137.1,100.77L2749.6,1929.3a88.3,88.3,0,0,0,31.34,74.62l47.65,39.87a300,300,0,0,0,295.92,51.6h0l46.35-408.1a628.85,628.85,0,0,0,.94-133Z"/><path fill="#4c6000" d="M3007.63,1631.35a956.7,956.7,0,0,0-96,268.78h0A958,958,0,0,0,2894.79,2040l-8.17,177.3h379.65l10.19-133.74a787.72,787.72,0,0,1,14.27-100.71L3314,1871.19A786.7,786.7,0,0,1,3373.1,1695l90-190.21H3075.57Z"/><path fill="#747900" d="M3037.53,1631.35a956.7,956.7,0,0,0-96,268.78h0A958,958,0,0,0,2924.69,2040l-8.17,177.3h379.66l10.19-133.74a785.93,785.93,0,0,1,14.26-100.71l23.25-111.61A786.7,786.7,0,0,1,3403,1695l90-190.21H3105.47Z"/><path fill="#666800" d="M3296.18,2217.25l10.19-133.74a785.93,785.93,0,0,1,14.26-100.71l23.25-111.61A786.87,786.87,0,0,1,3403,1695l90-190.21-576.51,712.44Z"/><ellipse cx="2830.8" cy="1126.95" fill="#ff9a74" rx="38.08" ry="23.63" transform="rotate(-69.91 2830.734 1126.96)"/><path fill="#ff5518" d="M2839.38,1113.16a4.34,4.34,0,0,0-5.92,1.68l-16.22,29a4.35,4.35,0,0,0,1.68,5.91,4.28,4.28,0,0,0,2.11.56,4.35,4.35,0,0,0,3.8-2.23l16.22-29A4.36,4.36,0,0,0,2839.38,1113.16Z"/><polygon fill="#310000" points="2886.62 2407.08 3007.33 2407.08 3042.49 2250.65 2846.56 2250.65 2886.62 2407.08"/><rect width="19.33" height="269.51" x="2927.95" y="2407.08" fill="#333900"/><path fill="#310000" d="M2939.37,2676.59h0a200.36,200.36,0,0,0-120.22,40.07l-19.22,14.41h278.3l-16.13-12.49A200.35,200.35,0,0,0,2939.37,2676.59Z"/><path fill="#ff9a74" d="M2580.81,1721.59l-115.06-46a169.09,169.09,0,0,0-97.62-8.47h0l-11.49-28.25a33.94,33.94,0,0,0-34.94-21v-25.63a11,11,0,0,0-8.41-10.67l-3.69-.88a11,11,0,0,0-13.53,10.67v35.3l154.67,194.22H2693.3l63.23-90.14-128.85-94.71Z"/><path fill="#ff5518" d="M2584,1718.18a4.64,4.64,0,1,0-6.29,6.82l22.26,20.51a4.64,4.64,0,1,0,6.29-6.83Z"/><polygon fill="#ff5518" points="2620.78 1648.64 2727.31 1772.41 2756.53 1730.76 2627.68 1636.05 2620.78 1648.64"/><path fill="#bb3618" d="M2741.34,1084.14c-3.56,0-6.45,6-6.45,13.48s2.89,13.47,6.45,13.47,6.44-6,6.44-13.47S2744.9,1084.14,2741.34,1084.14Z"/><path fill="#bb3618" d="M2749.25,1057.89c-7-1.08-13.39,2.32-14.21,7.6s4.24,10.43,11.27,11.51,13.4-2.32,14.21-7.59S2756.29,1059,2749.25,1057.89Z"/><path fill="#ff5b00" d="M2851.23,1405.62a79.26,79.26,0,0,0-33.31-51.11L2802.55,1344a4.63,4.63,0,1,0-5.24,7.64l15.37,10.55a70.05,70.05,0,0,1,29.43,45.17l11.85,63.19a4.65,4.65,0,0,0,4.55,3.78,5.1,5.1,0,0,0,.86-.08,4.64,4.64,0,0,0,3.7-5.42Z"/><path fill="#ff5b00" d="M2859.78,1500.35a4.62,4.62,0,0,0-5.72,3.2L2786.42,1742l-19.65-9.36a4.64,4.64,0,1,0-4,8.38l24.61,11.72a4.63,4.63,0,0,0,6.45-2.93L2863,1506.08A4.64,4.64,0,0,0,2859.78,1500.35Z"/><path fill="#ff5b00" d="M2870.25,1583.68,2827.3,1633a4.64,4.64,0,1,0,7,6.09l43-49.32a4.64,4.64,0,0,0-7-6.09Z"/></svg>