<svg xmlns="http://www.w3.org/2000/svg" enable-background="new 0 0 64 64" viewBox="0 0 64 64"><path d="M61.225,18.025c-8.356-1.928-16.292-5.806-22.948-11.215l-5.646-4.587c-0.367-0.299-0.895-0.299-1.262,0l-5.646,4.587
	c-6.656,5.409-14.592,9.287-22.948,11.215c-0.263,0.061-0.49,0.225-0.63,0.455c-0.141,0.231-0.182,0.508-0.114,0.77l1.956,7.58
	c3.908,15.144,13.938,28.279,27.517,36.038C31.657,62.956,31.829,63,32,63s0.343-0.044,0.496-0.132
	c13.579-7.759,23.608-20.895,27.517-36.038l1.956-7.58c0.067-0.262,0.026-0.538-0.114-0.77
	C61.715,18.25,61.487,18.086,61.225,18.025z M58.075,26.33C54.35,40.77,44.861,53.317,32,60.845
	C19.139,53.317,9.65,40.77,5.925,26.33l-1.702-6.596c8.285-2.067,16.136-5.987,22.763-11.371L32,4.288l5.015,4.075
	c6.627,5.384,14.478,9.304,22.763,11.371L58.075,26.33z"/><path d="M52.48 33.398l-1.834-.797c-1.462 3.368-3.299 6.598-5.458 9.598l1.623 1.168C49.055 40.251 50.962 36.897 52.48 33.398zM54.389 28.302l-1.906-.604c-.314.993-.661 1.982-1.031 2.941l1.865.721C53.701 30.362 54.062 29.334 54.389 28.302zM22 21c0 3.604 1.9 6.864 5 8.651V51c0 .266.105.52.293.707l4 4C31.488 55.902 31.744 56 32 56s.512-.098.707-.293l6-6c.391-.391.391-1.023 0-1.414L36.414 46l2.293-2.293c.391-.391.391-1.023 0-1.414L36.414 40l2.293-2.293c.391-.391.391-1.023 0-1.414L36 33.586v-3.43c3.617-1.579 6-5.173 6-9.156 0-5.514-4.486-10-10-10S22 15.486 22 21zM40 21c0 3.377-2.144 6.404-5.334 7.534C34.267 28.675 34 29.053 34 29.477V34c0 .266.105.52.293.707L36.586 37l-2.293 2.293c-.391.391-.391 1.023 0 1.414L36.586 43l-2.293 2.293c-.391.391-.391 1.023 0 1.414L36.586 49 33 52.586V48h-2v4.586l-2-2V29.054c0-.38-.215-.727-.555-.896C25.703 26.794 24 24.051 24 21c0-4.411 3.589-8 8-8S40 16.589 40 21z"/><rect width="2" height="2" x="31" y="44"/><rect width="2" height="2" x="31" y="40"/><rect width="2" height="2" x="31" y="36"/><path d="M29,18c0,1.654,1.346,3,3,3s3-1.346,3-3s-1.346-3-3-3S29,16.346,29,18z M33,18c0,0.552-0.448,1-1,1s-1-0.448-1-1
	s0.448-1,1-1S33,17.448,33,18z"/></svg>