<svg xmlns="http://www.w3.org/2000/svg" viewBox="0 0 24 24"><path d="M8.1 18.8c-2.1 0-3.9-1.7-4-3.9 0-.1.1-.2.2-.3.7-.5 1.5-.8 2.3-.8 2.1 0 3.9 1.7 4 3.9 0 .1-.1.3-.2.3-.6.6-1.4.8-2.3.8zm-3-3.6c.1 1.5 1.5 2.8 3 2.8.5 0 1.1-.2 1.6-.5-.2-1.5-1.5-2.8-3.1-2.8-.4 0-1 .2-1.5.5zM16.6 18.8c-.8 0-1.6-.2-2.3-.8-.1-.1-.2-.2-.2-.3 0-2.1 1.8-3.9 3.9-3.9.8 0 1.6.3 2.3.8.1.1.1.2.1.3.1 2.2-1.6 3.9-3.8 3.9zM15 17.5c.5.3 1 .5 1.6.5 1.6 0 2.9-1.2 3.1-2.8-.5-.3-1.1-.5-1.6-.5-1.7 0-2.9 1.2-3.1 2.8zM2.5 15.6h-.2c-.2-.1-.3-.4-.2-.6l2.1-5.1c.1-.2.3-.3.6-.2.2 0 .3.3.2.5l-2.1 5.1c-.1.2-.3.3-.4.3z"/><path d="M2.8 19.5h-.2c-.2-.1-.3-.3-.2-.6l3.8-9c.1-.2.4-.3.6-.2.2 0 .3.3.2.5l-3.9 9c0 .2-.1.3-.3.3zM6.9 14.3h-.2c-.2-.1-.3-.3-.2-.6l.4-.9c.1-.2.3-.3.5-.2.3.1.4.3.3.6l-.4.9c0 .2-.2.2-.4.2zM5.7 21.8h-.2c-.2-.1-.3-.3-.2-.6L6.6 18c.1-.2.4-.3.6-.2.2.1.3.4.2.6l-1.3 3.2c-.1.1-.2.2-.4.2zM8.5 15.2h-.2c-.2-.1-.3-.3-.2-.6l1-2.4c.1-.2.3-.3.6-.2.2.1.3.3.2.6l-1 2.4c0 .1-.2.2-.4.2zM7.6 22.1h-.1c-.3-.1-.4-.4-.3-.6l1.4-3.2c.1-.3.3-.4.5-.3.3.1.4.4.3.6L8 21.8c-.1.2-.2.3-.4.3zM9.9 16.7h-.2c-.2-.1-.3-.3-.2-.6l1.4-3.3c.1-.2.3-.3.6-.2.2.1.3.4.2.6l-1.4 3.3c-.1.1-.3.2-.4.2zM9.8 21.5h-.2c-.2-.1-.3-.4-.2-.6l3.4-8c.1-.2.4-.3.6-.2.2.1.3.3.2.6l-3.4 8c-.1 0-.3.2-.4.2zM12.4 20h-.1c-.3-.1-.3-.3-.3-.6l3.2-7.6c.1-.2.4-.3.6-.2.2.1.3.3.2.6l-3.3 7.6c0 .1-.2.2-.3.2zM14 20.7h-.1c-.3-.1-.3-.4-.3-.6l1-2.3c.1-.2.3-.3.6-.2.2.1.3.4.2.6l-1 2.3c0 .1-.2.2-.4.2zM16.4 15.1h-.1c-.3-.2-.3-.4-.3-.6l2-4.6c0-.2.3-.3.5-.2.3.1.3.4.3.6l-2 4.6c0 .1-.2.2-.4.2zM15.6 21.7h-.2c-.2-.1-.3-.3-.2-.6l1.2-2.9c.1-.2.3-.3.5-.2.3.1.3.4.3.6L16 21.5c-.1.1-.3.2-.4.2zM18.5 14.7h-.1c-.3-.1-.4-.3-.3-.6L20 9.9c.1-.2.3-.3.5-.2.2.1.4.4.3.6L19 14.5c-.1.1-.3.2-.5.2zM17.5 22.1h-.2c-.2-.1-.3-.4-.2-.6l1.8-4.4c.1-.2.4-.3.6-.2.2.1.3.4.2.6l-1.8 4.4c-.1.1-.2.2-.4.2zM20.1 15.6H20c-.3-.1-.3-.3-.3-.6l1.8-4.1c.1-.2.3-.3.6-.2.2.1.3.4.2.6l-1.8 4.1c0 .1-.2.2-.4.2zM19.5 21.7h-.2c-.2-.1-.3-.4-.2-.6l2.8-6.5c.1-.2.3-.3.6-.2.2.1.3.4.2.6l-2.8 6.5c-.1.1-.2.2-.4.2zM4.1 20.8h-.2c-.2-.1-.3-.4-.2-.6L5.1 17c.1-.2.3-.3.6-.2.2.1.3.4.2.6l-1.3 3.2c-.1.2-.3.2-.5.2z"/><path d="M6.8 13.5c-.1 0-.2-.1-.3-.1-.1-.1-.2-.3-.1-.4l.9-2.2c-.6-1-1-2.1-1-3.2 0-3.3 2.7-6 5.9-6 3.3 0 6 2.7 6 6s-2.7 6-6 6c-1.1 0-2.2-.3-3.2-1l-2 .8c0 .1-.1.1-.2.1zm2.4-1.9c.1 0 .2 0 .3.1.8.6 1.8.9 2.9.9 2.9 0 5.1-2.3 5.1-5.1s-2.3-5.1-5.1-5.1-5.1 2.3-5.1 5.1c0 1 .3 2.1.9 2.9.1.1.1.3 0 .4l-.6 1.4 1.4-.6h.2z"/><path d="M14.8 6.9c-.3 0-.6.2-.6.5s.2.5.6.5c.3 0 .5-.2.5-.5 0-.2-.2-.5-.5-.5zM12.4 6.9c-.3 0-.5.2-.5.5s.2.5.5.5c.4 0 .6-.2.6-.5-.1-.2-.3-.5-.6-.5zM10 6.9c-.3 0-.5.2-.5.5 0 .4.2.6.5.6s.6-.2.6-.5c-.1-.3-.3-.6-.6-.6zM17.5 22.1c-1.5 0-3-.6-4.1-1.7-.5-.5-1.4-.5-1.9-.1l-.3.3c-1 1-2.4 1.5-3.9 1.5-1.2 0-2.4-.4-3.4-1.1-1.1-.7-1.8-1.9-1.8-3.3v-5.5c0-1.9 1.3-2.8 3.8-2.8h1.5c.1 0 .3.1.4.2.1.3.3.6.4.8.1.1.1.3 0 .4l-.6 1.4 1.4-.6c.1-.1.3 0 .4 0 .8.6 1.8.9 2.9.9 2 0 3.8-1.2 4.6-3 .1-.1.2-.2.4-.2h1.5c2.5 0 3.8.9 3.8 2.8v5.5c0 1.3-.7 2.6-1.8 3.3-.9.8-2.1 1.2-3.3 1.2zm-5.2-3c.6 0 1.2.2 1.6.7.9.9 2.2 1.4 3.5 1.4 1 0 2.1-.4 2.9-1 .9-.5 1.4-1.5 1.4-2.6v-5.5c0-.9-.3-2-3-2h-1.2c-1 2-3.1 3.2-5.3 3.2-1.1 0-2.2-.3-3.2-1l-2 1.1c-.2.1-.4 0-.5-.1-.1-.1-.2-.3-.1-.4l.9-2.2c-.1-.1-.2-.3-.3-.4H5.9c-2.6 0-2.9 1.1-2.9 2v5.5c0 1 .5 2 1.4 2.5 1.9 1.4 4.6 1.2 6.3-.3l.2-.2c.4-.5.9-.7 1.4-.7z"/></svg>