<svg id="visual" viewBox="0 0 900 600" width="900" height="600" xmlns="http://www.w3.org/2000/svg" xmlns:xlink="http://www.w3.org/1999/xlink" version="1.1"><path d="M0 157L13.7 141C27.3 125 54.7 93 82 78C109.3 63 136.7 65 163.8 68C191 71 218 75 245.2 89C272.3 103 299.7 127 327 133C354.3 139 381.7 127 409 115C436.3 103 463.7 91 491 93C518.3 95 545.7 111 573 129C600.3 147 627.7 167 654.8 161C682 155 709 123 736.2 115C763.3 107 790.7 123 818 129C845.3 135 872.7 131 886.3 129L900 127L900 0L886.3 0C872.7 0 845.3 0 818 0C790.7 0 763.3 0 736.2 0C709 0 682 0 654.8 0C627.7 0 600.3 0 573 0C545.7 0 518.3 0 491 0C463.7 0 436.3 0 409 0C381.7 0 354.3 0 327 0C299.7 0 272.3 0 245.2 0C218 0 191 0 163.8 0C136.7 0 109.3 0 82 0C54.7 0 27.3 0 13.7 0L0 0Z" fill="#9e90fa"></path><path d="M0 199L13.7 186C27.3 173 54.7 147 82 132C109.3 117 136.7 113 163.8 114C191 115 218 121 245.2 140C272.3 159 299.7 191 327 202C354.3 213 381.7 203 409 198C436.3 193 463.7 193 491 195C518.3 197 545.7 201 573 207C600.3 213 627.7 221 654.8 222C682 223 709 217 736.2 217C763.3 217 790.7 223 818 228C845.3 233 872.7 237 886.3 239L900 241L900 125L886.3 127C872.7 129 845.3 133 818 127C790.7 121 763.3 105 736.2 113C709 121 682 153 654.8 159C627.7 165 600.3 145 573 127C545.7 109 518.3 93 491 91C463.7 89 436.3 101 409 113C381.7 125 354.3 137 327 131C299.7 125 272.3 101 245.2 87C218 73 191 69 163.8 66C136.7 63 109.3 61 82 76C54.7 91 27.3 123 13.7 139L0 155Z" fill="#8877f6"></path><path d="M0 259L13.7 247C27.3 235 54.7 211 82 199C109.3 187 136.7 187 163.8 194C191 201 218 215 245.2 232C272.3 249 299.7 269 327 278C354.3 287 381.7 285 409 280C436.3 275 463.7 267 491 271C518.3 275 545.7 291 573 293C600.3 295 627.7 283 654.8 274C682 265 709 259 736.2 268C763.3 277 790.7 301 818 313C845.3 325 872.7 325 886.3 325L900 325L900 239L886.3 237C872.7 235 845.3 231 818 226C790.7 221 763.3 215 736.2 215C709 215 682 221 654.8 220C627.7 219 600.3 211 573 205C545.7 199 518.3 195 491 193C463.7 191 436.3 191 409 196C381.7 201 354.3 211 327 200C299.7 189 272.3 157 245.2 138C218 119 191 113 163.8 112C136.7 111 109.3 115 82 130C54.7 145 27.3 171 13.7 184L0 197Z" fill="#715df2"></path><path d="M0 391L13.7 406C27.3 421 54.7 451 82 447C109.3 443 136.7 405 163.8 380C191 355 218 343 245.2 359C272.3 375 299.7 419 327 441C354.3 463 381.7 463 409 449C436.3 435 463.7 407 491 407C518.3 407 545.7 435 573 441C600.3 447 627.7 431 654.8 438C682 445 709 475 736.2 492C763.3 509 790.7 513 818 516C845.3 519 872.7 521 886.3 522L900 523L900 323L886.3 323C872.7 323 845.3 323 818 311C790.7 299 763.3 275 736.2 266C709 257 682 263 654.8 272C627.7 281 600.3 293 573 291C545.7 289 518.3 273 491 269C463.7 265 436.3 273 409 278C381.7 283 354.3 285 327 276C299.7 267 272.3 247 245.2 230C218 213 191 199 163.8 192C136.7 185 109.3 185 82 197C54.7 209 27.3 233 13.7 245L0 257Z" fill="#614dd5"></path><path d="M0 601L13.7 601C27.3 601 54.7 601 82 601C109.3 601 136.7 601 163.8 601C191 601 218 601 245.2 601C272.3 601 299.7 601 327 601C354.3 601 381.7 601 409 601C436.3 601 463.7 601 491 601C518.3 601 545.7 601 573 601C600.3 601 627.7 601 654.8 601C682 601 709 601 736.2 601C763.3 601 790.7 601 818 601C845.3 601 872.7 601 886.3 601L900 601L900 521L886.3 520C872.7 519 845.3 517 818 514C790.7 511 763.3 507 736.2 490C709 473 682 443 654.8 436C627.7 429 600.3 445 573 439C545.7 433 518.3 405 491 405C463.7 405 436.3 433 409 447C381.7 461 354.3 461 327 439C299.7 417 272.3 373 245.2 357C218 341 191 353 163.8 378C136.7 403 109.3 441 82 445C54.7 449 27.3 419 13.7 404L0 389Z" fill="#513eb8"></path></svg>